<?xml version="1.0" encoding="utf-8"?>
<!-- Generator: Adobe Illustrator 17.0.0, SVG Export Plug-In . SVG Version: 6.00 Build 0)  -->
<!DOCTYPE svg PUBLIC "-//W3C//DTD SVG 1.1//EN" "http://www.w3.org/Graphics/SVG/1.1/DTD/svg11.dtd">
<svg version="1.1" id="Layer_1" xmlns="http://www.w3.org/2000/svg" xmlns:xlink="http://www.w3.org/1999/xlink" x="0px" y="0px"
	 width="886px" height="436px" viewBox="0 0 886 436" enable-background="new 0 0 886 436" xml:space="preserve">
<path fill="#64BB41" d="M0,0v349.41l532.338,83.166c154.516,24.14,299.268-81.938,323.312-236.931L886,0H0z"/>
<linearGradient id="SVGID_1_" gradientUnits="userSpaceOnUse" x1="484.7115" y1="305.3621" x2="285.3783" y2="-133.3046" gradientTransform="matrix(1 0 0 -1 -4.84 289.4)">
	<stop  offset="0" style="stop-color:#60A445"/>
	<stop  offset="1" style="stop-color:#488B2D"/>
</linearGradient>
<path fill="url(#SVGID_1_)" d="M0,0v345.037l526.33,82.126C679.102,451,822.219,346.249,845.992,193.195L876.001,0H0z"/>
<g opacity="0.1">
	<g>
		<path fill="#FFFFFF" d="M623.941,37.34c-0.116-0.313-0.257-0.601-0.366-0.917c-1.642-5.741-2.254-12.224-3.569-18.486
			c-5.587-24.94-8.196-50.82-8.196-50.82s13.867,22.342,24.847,45.592c2.827,5.787,6.357,11.352,8.596,16.907
			c0.102,0.302,0.165,0.602,0.26,0.9c17.425-14.495,43.942-51.347-47.128-102.044C556.646,21.077,600.961,35.601,623.941,37.34z
			 M825.585,90.233c-95.047-49.828-114.905-7.913-119.008,14.38c0.344-0.081,0.672-0.19,1.02-0.271
			c6.304-1.044,13.301-1.012,20.132-1.684c27.238-3.034,55.187-3.066,55.187-3.066s-25.262,11.385-51.214,19.854
			c-6.469,2.197-12.77,5.108-18.934,6.757c-0.334,0.07-0.657,0.102-0.992,0.165C725.594,144.815,762.456,174.33,825.585,90.233z
			 M518.121,113.204c0.334,0.201,0.672,0.362,1.002,0.57c5.703,3.997,11.037,9.348,16.827,14.031
			c23.395,18.412,44.829,39.664,44.829,39.664s-28.834-10.512-55.774-23.78c-6.789-3.239-14.039-5.805-20.136-9.232
			c-0.313-0.201-0.591-0.425-0.897-0.629c-4.789,24.648-1.15,75.314,117.293,58.955C589.984,82.262,539.843,99.251,518.121,113.204z
			 M629.446,197.663c-17.116,96.198,28.033,100.177,50.057,96.795c-0.183-0.266-0.383-0.506-0.566-0.781
			c-2.915-5.041-5.038-11.004-7.77-16.605c-11.216-22.233-19.858-46-19.858-46s18.385,17.983,34.266,37.449
			c4.04,4.824,8.692,9.285,12.127,14.021c0.165,0.261,0.299,0.528,0.461,0.791C711.083,265.897,727.207,225.452,629.446,197.663z
			 M735.066,256.41c0.235-0.151,0.45-0.315,0.693-0.464c4.465-2.398,9.757-4.162,14.721-6.416
			c19.714-9.247,40.799-16.412,40.799-16.412s-15.882,15.045-33.103,28.07c-4.268,3.312-8.21,7.115-12.397,9.936
			c-0.232,0.136-0.471,0.245-0.703,0.378c15.59,10.393,51.664,23.251,75.79-56.349C735.192,201.829,731.926,238.537,735.066,256.41z
			 M867.602,57.553c-53.305,58.65-24.323,79.217-7.879,85.633c-0.011-0.257-0.042-0.499-0.046-0.757
			c0.197-4.584,1.336-9.477,1.902-14.368c2.004-19.557,6.42-39.137,6.42-39.137s4.715,19.499,7.085,39.021
			c0.658,4.88,1.888,9.757,2.173,14.334c0,0.243-0.025,0.478-0.028,0.72C893.567,136.254,922.05,115.127,867.602,57.553z
			 M670.121,103.848c0.01,0.254,0.042,0.496,0.046,0.752c-0.197,4.584-1.336,9.479-1.906,14.368
			c-2.001,19.559-6.417,39.138-6.417,39.138s-4.715-19.502-7.085-39.022c-0.658-4.88-1.888-9.755-2.173-14.333
			c0-0.242,0.025-0.479,0.028-0.721c-16.339,6.747-44.822,27.873,9.627,85.446C715.547,130.827,686.565,110.261,670.121,103.848z
			 M773.938-25.128c0.179-0.186,0.373-0.344,0.556-0.524c-17.306-5.892-54.371-9.095-55.64,70.997
			c83.434-8.441,76.69-43.465,68.997-59.363c-0.183,0.197-0.338,0.4-0.524,0.601c-3.523,3.326-7.985,6.254-12.014,9.566
			c-15.913,13.423-33.662,25.24-33.662,25.24s10.794-17.895,23.378-34.234C768.123-16.972,770.784-21.478,773.938-25.128z
			 M680.974,17.519c-46.618,47.195-23.174,65.322-9.679,71.222c0.003-0.215-0.018-0.419-0.011-0.634
			c0.334-3.817,1.459-7.868,2.11-11.929c2.38-16.263,6.775-32.46,6.775-32.46s3.231,16.436,4.5,32.809
			c0.376,4.096,1.224,8.205,1.297,12.038c-0.007,0.204-0.039,0.397-0.049,0.601C699.798,84.072,724.34,67.379,680.974,17.519z
			 M638.157,64.48c0.207-0.049,0.411-0.077,0.619-0.119c-8.969-11.335-32.562-29.24-70.65,24.412
			c60.376,29.712,72.095,3.154,74.278-10.87c-0.214,0.056-0.415,0.13-0.629,0.183c-3.931,0.756-8.315,0.844-12.58,1.371
			c-17.007,2.328-34.509,2.785-34.509,2.785s15.625-7.524,31.732-13.233C630.432,67.529,634.328,65.609,638.157,64.48z
			 M543.892,217.454c25.814,60.035,52.75,47.072,63.931,37.749c-0.204-0.088-0.408-0.159-0.608-0.25
			c-3.506-1.863-6.902-4.511-10.509-6.751c-14.524-8.768-28.163-19.262-28.163-19.262s17.003,3.952,33.141,9.583
			c4.057,1.362,8.326,2.314,12.011,3.825c0.19,0.092,0.362,0.201,0.548,0.292C615.104,228.455,609.289,200.206,543.892,217.454z
			 M713.127,204.759c0.833-15.42,3.558-30.946,3.558-30.946s4.437,15.145,7.035,30.389c0.703,3.809,1.853,7.591,2.25,11.177
			c0.007,0.193-0.004,0.376,0.003,0.566c12.57-5.86,34.133-23.429-10.787-66.743c-39.628,47.881-16.1,63.023-2.95,67.492
			c-0.018-0.197-0.053-0.391-0.063-0.591C712.156,212.501,712.863,208.619,713.127,204.759z M833.888,199.222
			c12.577-7.661,33.198-28.763-19.869-69.458c-35.923,55.304-9.082,68.628,5.415,71.842c-0.042-0.211-0.105-0.408-0.144-0.619
			c-0.471-3.815-0.215-8.009-0.425-12.129c-1.069-16.432-0.144-33.192-0.144-33.192s6.617,15.533,11.297,31.377
			c1.227,3.956,2.925,7.83,3.797,11.582C833.849,198.824,833.86,199.021,833.888,199.222z M853.879,49.851
			c-0.207,0.014-0.404,0.045-0.612,0.056c-3.737-0.035-7.756-0.762-11.754-1.064c-15.984-1.01-32.044-3.812-32.044-3.812
			s15.773-3.99,31.616-6.233c3.962-0.612,7.9-1.645,11.624-1.973c0.2-0.007,0.39,0.007,0.587,0.004
			c-5.9-11.993-23.81-32.668-69.373,9.271C833.019,84.32,849.058,62.248,853.879,49.851z M808.152-27.357
			c0.186,0.056,0.373,0.098,0.559,0.161c3.259,1.3,6.505,3.305,9.89,4.929c13.617,6.322,26.634,14.243,26.634,14.243
			s-15.294-1.877-30.002-5.302c-3.692-0.812-7.528-1.248-10.91-2.229c-0.176-0.063-0.337-0.14-0.513-0.204
			c0.7,12.505,8.681,36.701,64.188,15.491C839.254-50.434,816.991-36.569,808.152-27.357z M718.275-63.836
			c17.119-2.271,34.727-2.658,34.727-2.658s-15.751,7.503-31.981,13.181c-4.043,1.473-7.971,3.389-11.828,4.511
			c-0.207,0.045-0.415,0.07-0.622,0.115c8.973,11.44,32.621,29.546,71.177-24.269c-60.601-30.136-72.506-3.47-74.767,10.632
			c0.215-0.057,0.418-0.13,0.636-0.183C709.573-63.249,713.982-63.323,718.275-63.836z M690.947-52.08
			c-0.183-0.06-0.366-0.105-0.548-0.173c-3.2-1.36-6.371-3.417-9.69-5.101c-13.346-6.563-26.06-14.7-26.06-14.7
			s15.115,2.194,29.615,5.91c3.639,0.885,7.433,1.4,10.759,2.447c0.176,0.067,0.334,0.145,0.506,0.215
			c-0.394-12.415-7.728-36.571-63.259-16.757C659.564-29.881,681.968-43.14,690.947-52.08z M693.79-39.215
			c0.039,0.151,0.091,0.292,0.127,0.443c0.475,2.745,0.432,5.79,0.731,8.764c1.347,11.859,1.262,24.02,1.262,24.02
			s-5.33-11.032-9.271-22.353c-1.027-2.82-2.387-5.569-3.15-8.259c-0.032-0.145-0.049-0.289-0.077-0.433
			c-8.836,5.945-23.019,21.875,16.803,49.639C724.284-28.562,704.394-37.351,693.79-39.215z M566.293,17.462
			c0.004,2.96-0.591,6.149-0.816,9.317c-0.728,12.667-3.01,25.415-3.01,25.415s-3.604-12.456-5.696-24.983
			c-0.566-3.132-1.501-6.244-1.818-9.19c-0.007-0.154,0.003-0.31,0-0.464c-10.344,4.781-28.107,19.161,8.677,54.86
			c32.688-39.236,13.399-51.737,2.609-55.444C566.254,17.139,566.283,17.297,566.293,17.462z M534.724,58.661
			c-0.102,0.144-0.183,0.288-0.285,0.432c-1.979,2.443-4.602,4.711-6.909,7.189c-9.078,10.007-19.496,19.122-19.496,19.122
			s5.365-12.477,12.028-24.093c1.628-2.926,2.939-6.065,4.648-8.688c0.102-0.134,0.211-0.253,0.313-0.383
			c-11.736-2.38-36.014-1.381-29.566,50.56C548.69,90.422,541.144,68.315,534.724,58.661z M758,159.243
			c-0.046-0.119-0.077-0.242-0.12-0.362c-6.867,6.135-17.095,21.488,20.706,40.85c15.579-38.234-2.665-43.532-12.035-43.922
			c0.053,0.123,0.112,0.243,0.162,0.37c0.756,2.31,1.1,4.94,1.73,7.467c2.648,10.065,4.1,20.553,4.1,20.553
			s-5.977-8.895-10.79-18.198C760.514,163.688,758.995,161.472,758,159.243z M538.994-0.094c1.385-2.028,3.287-3.959,4.926-6.029
			c6.438-8.36,13.976-16.109,13.976-16.109s-3.372,10.068-7.816,19.54c-1.079,2.387-1.899,4.915-3.062,7.066
			c-0.067,0.113-0.148,0.211-0.214,0.32c9.321,1.157,28.219-1.079,19.777-41.267c-40.771,12.86-33.43,29.675-27.78,36.834
			C538.871,0.142,538.923,0.022,538.994-0.094z M534.56,12.665c-0.07,0.067-0.133,0.141-0.204,0.207
			c-1.371,1.118-3.073,2.07-4.627,3.171c-6.146,4.472-12.918,8.314-12.918,8.314s4.412-6.226,9.433-11.841
			c1.238-1.42,2.328-2.992,3.572-4.236c0.07-0.059,0.144-0.115,0.214-0.176c-6.121-2.573-19.489-4.669-22.158,24.378
			C538.4,31.52,536.916,18.635,534.56,12.665z M801.114-65.906c-0.011,0.112-0.011,0.224-0.025,0.34
			c-0.366,2.046-1.171,4.184-1.723,6.346c-2.078,8.677-5.246,17.227-5.246,17.227s-0.939-9.018-0.826-17.917
			c0-2.229-0.26-4.486-0.109-6.557c0.014-0.113,0.039-0.214,0.056-0.323c-7.746,2.13-21.817,10.047-0.833,38.909
			C819.889-51.284,808.114-62.12,801.114-65.906z M871.544,46.723c-0.007-0.088-0.021-0.176-0.025-0.267
			c0.004-1.632,0.341-3.39,0.475-5.133c0.436-6.982,1.733-14.003,1.733-14.003s1.948,6.877,3.066,13.789
			c0.302,1.727,0.809,3.446,0.974,5.07c0.004,0.084,0,0.169,0,0.257c5.717-2.612,15.551-10.491-4.624-30.267
			C855.012,37.713,865.606,44.656,871.544,46.723z M876.684,157.234c0.004,0.092,0.014,0.176,0.018,0.268
			c-0.053,1.631-0.436,3.378-0.619,5.119c-0.633,6.972-2.127,13.954-2.127,13.954s-1.755-6.923-2.679-13.863
			c-0.253-1.733-0.71-3.463-0.83-5.091c-0.004-0.088,0.007-0.172,0.007-0.257c-5.787,2.461-15.84,10.087,3.773,30.373
			C892.959,166.667,882.559,159.456,876.684,157.234z M832.489,219.893c0.088-0.033,0.172-0.067,0.26-0.099
			c1.645-0.44,3.505-0.609,5.302-0.956c7.148-1.498,14.567-2.215,14.567-2.215s-6.392,3.663-13.048,6.571
			c-1.656,0.748-3.249,1.681-4.838,2.274c-0.088,0.024-0.172,0.042-0.26,0.067c4.184,4.549,14.792,11.451,29.218-12.481
			C837.066,202.233,832.96,213.867,832.489,219.893z M734.848,277.994c-1.122,0.973-2.524,1.814-3.804,2.777
			c-5.049,3.91-10.639,7.302-10.639,7.302s3.548-5.34,7.619-10.182c1.002-1.223,1.878-2.57,2.89-3.646
			c0.056-0.056,0.12-0.102,0.176-0.155c-5.214-2.017-16.507-3.456-17.981,21.028c25.635-1.551,24.046-12.344,21.908-17.305
			C734.96,277.874,734.911,277.934,734.848,277.994z"/>
	</g>
</g>
</svg>
