<?xml version="1.0" encoding="utf-8"?>
<!-- Generator: Adobe Illustrator 17.0.0, SVG Export Plug-In . SVG Version: 6.00 Build 0)  -->
<!DOCTYPE svg PUBLIC "-//W3C//DTD SVG 1.1//EN" "http://www.w3.org/Graphics/SVG/1.1/DTD/svg11.dtd">
<svg version="1.1" id="Layer_1" xmlns="http://www.w3.org/2000/svg" xmlns:xlink="http://www.w3.org/1999/xlink" x="0px" y="0px"
	 width="730px" height="730px" viewBox="0 0 730 730" enable-background="new 0 0 730 730" xml:space="preserve">
<g opacity="0.4">
	<path fill="#FFFFFF" d="M365,1c25.516,0,50.388,4.84,73.926,14.385c24.369,9.882,46.234,24.402,64.988,43.155L671.46,226.086
		c18.754,18.753,33.273,40.618,43.155,64.988C724.16,314.612,729,339.485,729,365c0,25.516-4.84,50.388-14.385,73.927
		c-9.882,24.369-24.401,46.234-43.155,64.988L503.914,671.46c-18.754,18.754-40.619,33.273-64.988,43.155
		C415.388,724.16,390.516,729,365,729s-50.388-4.84-73.927-14.385c-24.369-9.882-46.234-24.401-64.988-43.155L58.54,503.915
		c-18.754-18.754-33.273-40.619-43.155-64.988C5.84,415.389,1,390.516,1,365s4.84-50.388,14.385-73.926
		c9.882-24.369,24.402-46.234,43.155-64.988L226.086,58.54c18.754-18.754,40.619-33.273,64.988-43.155C314.612,5.84,339.484,1,365,1
		 M365,0c-50.533,0-101.066,19.278-139.621,57.833L57.833,225.379c-77.111,77.11-77.111,202.131,0,279.243l167.546,167.545
		C263.934,710.722,314.467,730,365,730s101.066-19.278,139.621-57.833l167.546-167.545c77.111-77.111,77.111-202.133,0-279.243
		L504.621,57.833C466.066,19.278,415.533,0,365,0L365,0z"/>
</g>
<path fill="#FFFFFF" d="M485.495,99.91l144.594,144.595c66.548,66.547,66.548,174.443,0,240.99L485.495,630.09
	c-66.548,66.547-174.443,66.547-240.99,0L99.911,485.495c-66.548-66.547-66.548-174.443,0-240.99L244.505,99.91
	C311.052,33.363,418.948,33.363,485.495,99.91z"/>
<linearGradient id="SVGID_1_" gradientUnits="userSpaceOnUse" x1="611.8572" y1="347.6448" x2="841.3456" y2="-139.8309" gradientTransform="matrix(1 0 0 -1 -361.84 468.4)">
	<stop  offset="0" style="stop-color:#94BC40"/>
	<stop  offset="1" style="stop-color:#5B9A42"/>
</linearGradient>
<path fill="url(#SVGID_1_)" d="M469.427,135.255L594.74,260.571c57.674,57.674,57.674,151.184,0,208.858L469.427,594.744
	c-57.674,57.675-151.181,57.675-208.854,0L135.26,469.429c-57.674-57.675-57.674-151.184,0-208.858l125.313-125.316
	C318.246,77.58,411.754,77.58,469.427,135.255z"/>
<path fill="#FFFFFF" d="M459.864,156.294l113.837,113.839c52.392,52.393,52.392,137.339,0,189.732l-113.837,113.84
	c-52.392,52.394-137.336,52.394-189.728,0l-113.837-113.84c-52.392-52.393-52.392-137.34,0-189.732l113.837-113.839
	C322.528,103.901,407.472,103.901,459.864,156.294z"/>
</svg>
