<?xml version="1.0" encoding="utf-8"?>
<!-- Generator: Adobe Illustrator 17.0.0, SVG Export Plug-In . SVG Version: 6.00 Build 0)  -->
<!DOCTYPE svg PUBLIC "-//W3C//DTD SVG 1.1//EN" "http://www.w3.org/Graphics/SVG/1.1/DTD/svg11.dtd">
<svg version="1.1" id="Layer_1" xmlns="http://www.w3.org/2000/svg" xmlns:xlink="http://www.w3.org/1999/xlink" x="0px" y="0px"
	 width="230px" height="96px" viewBox="0 0 230 96" enable-background="new 0 0 230 96" xml:space="preserve">
<g>
	<g>
		<path fill="#F9F9F8" d="M73.571-50.271c-0.066-0.178-0.146-0.341-0.208-0.521c-0.932-3.257-1.28-6.934-2.027-10.486
			c-3.173-14.146-4.654-28.826-4.654-28.826s7.875,12.674,14.11,25.86c1.605,3.283,3.61,6.44,4.882,9.59
			c0.058,0.172,0.094,0.341,0.148,0.511c9.895-8.222,24.954-29.125-26.763-57.881C35.355-59.496,60.521-51.258,73.571-50.271z
			 M188.079-20.269c-53.975-28.264-65.252-4.49-67.582,8.155c0.196-0.046,0.381-0.108,0.579-0.154
			c3.58-0.592,7.553-0.574,11.433-0.955c15.468-1.72,31.339-1.739,31.339-1.739S149.502-8.503,134.765-3.7
			c-3.674,1.246-7.252,2.898-10.752,3.833c-0.19,0.039-0.373,0.058-0.563,0.094C131.297,10.69,152.229,27.431,188.079-20.269z
			 M13.478-7.24c0.19,0.113,0.381,0.206,0.569,0.324c3.239,2.267,6.268,5.302,9.556,7.958C36.889,11.485,49.06,23.54,49.06,23.54
			s-16.374-5.963-31.672-13.489C13.532,8.214,9.415,6.759,5.953,4.814C5.775,4.701,5.618,4.573,5.444,4.457
			c-2.719,13.981-0.653,42.719,66.607,33.44C54.287-24.791,25.814-15.156,13.478-7.24z M76.697,40.666
			c-9.72,54.564,15.919,56.822,28.426,54.903c-0.104-0.152-0.218-0.288-0.321-0.443c-1.655-2.86-2.861-6.241-4.413-9.418
			c-6.369-12.611-11.277-26.091-11.277-26.091s10.44,10.2,19.459,21.241c2.294,2.736,4.936,5.267,6.886,7.953
			c0.094,0.147,0.17,0.298,0.261,0.448C123.056,79.368,132.213,56.427,76.697,40.666z M136.675,73.988
			c0.134-0.086,0.256-0.179,0.393-0.264c2.536-1.36,5.541-2.361,8.36-3.639c11.195-5.244,23.169-9.309,23.169-9.309
			s-9.019,8.534-18.798,15.922c-2.424,1.879-4.662,4.036-7.04,5.635c-0.132,0.078-0.268,0.14-0.399,0.216
			c8.853,5.894,29.338,13.187,43.039-31.962C136.747,43.028,134.892,63.85,136.675,73.988z M211.939-38.806
			C181.668-5.54,198.126,6.127,207.465,9.767c-0.006-0.146-0.024-0.284-0.026-0.429c0.112-2.6,0.759-5.376,1.08-8.15
			c1.138-11.093,3.646-22.199,3.646-22.199s2.678,11.06,4.023,22.133c0.373,2.767,1.072,5.533,1.234,8.13
			c0,0.137-0.014,0.271-0.016,0.409C226.684,5.833,242.859-6.149,211.939-38.806z M99.795-12.548
			c0.006,0.144,0.024,0.281,0.026,0.427c-0.112,2.6-0.759,5.377-1.082,8.15c-1.136,11.094-3.644,22.2-3.644,22.2
			S92.417,7.167,91.072-3.905c-0.373-2.768-1.072-5.534-1.234-8.13c0-0.138,0.014-0.271,0.016-0.409
			c-9.278,3.827-25.453,15.809,5.467,48.466C125.591,2.755,109.133-8.91,99.795-12.548z M158.75-85.703
			c0.102-0.106,0.211-0.195,0.315-0.297c-9.827-3.342-30.876-5.158-31.597,40.27c47.38-4.787,43.55-24.654,39.182-33.671
			c-0.104,0.112-0.192,0.227-0.298,0.341c-2.001,1.886-4.534,3.548-6.822,5.426c-9.037,7.614-19.116,14.316-19.116,14.316
			s6.13-10.15,13.276-19.416C155.448-81.077,156.959-83.634,158.75-85.703z M105.958-61.514
			c-26.473,26.769-13.16,37.051-5.497,40.398c0.002-0.122-0.01-0.238-0.006-0.359c0.19-2.166,0.828-4.463,1.198-6.767
			c1.352-9.225,3.847-18.412,3.847-18.412s1.835,9.323,2.556,18.61c0.214,2.323,0.695,4.655,0.737,6.828
			c-0.004,0.116-0.022,0.226-0.028,0.341C116.648-23.764,130.584-33.232,105.958-61.514z M81.643-34.877
			c0.118-0.028,0.234-0.043,0.351-0.068c-5.093-6.429-18.491-16.585-40.12,13.848c34.286,16.852,40.941,1.789,42.181-6.166
			c-0.122,0.031-0.236,0.073-0.357,0.104c-2.232,0.428-4.722,0.479-7.144,0.777c-9.658,1.32-19.597,1.58-19.597,1.58
			s8.873-4.267,18.019-7.506C77.257-33.148,79.469-34.237,81.643-34.877z M28.113,51.891c14.659,34.052,29.955,26.7,36.305,21.411
			c-0.116-0.05-0.232-0.09-0.345-0.142c-1.991-1.057-3.919-2.558-5.968-3.829c-8.248-4.973-15.993-10.925-15.993-10.925
			s9.656,2.241,18.82,5.436c2.304,0.772,4.728,1.312,6.82,2.17c0.108,0.051,0.206,0.114,0.311,0.165
			C68.553,58.131,65.25,42.107,28.113,51.891z M124.217,44.69c0.473-8.747,2.021-17.552,2.021-17.552s2.52,8.591,3.995,17.238
			c0.399,2.159,1.052,4.305,1.278,6.339c0.004,0.11-0.002,0.213,0.002,0.322c7.138-3.325,19.383-13.289-6.126-37.858
			c-22.504,27.159-9.143,35.748-1.675,38.283c-0.01-0.113-0.03-0.222-0.036-0.336C123.666,49.081,124.067,46.88,124.217,44.69z
			 M192.794,41.549c7.142-4.345,18.852-16.314-11.283-39.397c-20.399,31.368-5.157,38.926,3.075,40.749
			c-0.024-0.12-0.06-0.231-0.082-0.351c-0.268-2.164-0.122-4.543-0.242-6.88c-0.607-9.321-0.082-18.827-0.082-18.827
			s3.758,8.809,6.415,17.798c0.697,2.244,1.661,4.441,2.156,6.569C192.772,41.324,192.778,41.436,192.794,41.549z M204.146-43.175
			c-0.118,0.009-0.23,0.027-0.347,0.032c-2.122-0.02-4.404-0.433-6.675-0.604c-9.077-0.573-18.197-2.163-18.197-2.163
			s8.957-2.263,17.954-3.535c2.25-0.347,4.487-0.933,6.601-1.119c0.114-0.004,0.222,0.004,0.333,0.002
			c-3.35-6.802-13.521-18.529-39.395,5.258C192.3-23.624,201.409-36.143,204.146-43.175z M178.179-86.968
			c0.106,0.032,0.212,0.057,0.317,0.092c1.851,0.738,3.694,1.874,5.617,2.796c7.733,3.586,15.124,8.078,15.124,8.078
			s-8.685-1.065-17.037-3.007c-2.096-0.461-4.275-0.708-6.196-1.264c-0.1-0.037-0.192-0.081-0.292-0.116
			c0.397,7.094,4.93,20.817,36.45,8.787C195.841-100.057,183.199-92.193,178.179-86.968z M127.141-107.659
			c9.721-1.288,19.721-1.508,19.721-1.508s-8.945,4.256-18.161,7.476c-2.296,0.836-4.526,1.923-6.717,2.559
			c-0.118,0.026-0.236,0.041-0.353,0.066c5.095,6.489,18.525,16.759,40.42-13.766c-34.414-17.093-41.174-1.968-42.458,6.031
			c0.122-0.032,0.237-0.073,0.361-0.103C122.199-107.325,124.703-107.368,127.141-107.659z M111.622-100.991
			c-0.104-0.034-0.208-0.06-0.311-0.098c-1.817-0.772-3.618-1.938-5.503-2.893c-7.579-3.723-14.799-8.338-14.799-8.338
			s8.584,1.245,16.818,3.353c2.067,0.502,4.221,0.794,6.11,1.388c0.1,0.037,0.19,0.082,0.288,0.121
			c-0.224-7.041-4.389-20.744-35.923-9.504C93.8-88.4,106.522-95.92,111.622-100.991z M113.236-93.694
			c0.022,0.085,0.052,0.166,0.072,0.252c0.27,1.557,0.246,3.284,0.415,4.971c0.765,6.726,0.717,13.624,0.717,13.624
			s-3.027-6.258-5.265-12.679c-0.583-1.599-1.356-3.159-1.789-4.684c-0.018-0.082-0.028-0.164-0.044-0.246
			c-5.018,3.372-13.072,12.408,9.542,28.155C130.553-87.652,119.258-92.637,113.236-93.694z M40.834-61.545
			c0.002,1.679-0.335,3.487-0.463,5.284c-0.413,7.185-1.709,14.416-1.709,14.416s-2.046-7.065-3.235-14.171
			c-0.321-1.777-0.852-3.541-1.032-5.213c-0.004-0.087,0.002-0.175,0-0.263c-5.874,2.712-15.961,10.869,4.928,31.117
			c18.563-22.255,7.609-29.346,1.481-31.448C40.812-61.729,40.828-61.64,40.834-61.545z M22.907-38.178
			c-0.058,0.081-0.104,0.163-0.162,0.245c-1.124,1.386-2.614,2.672-3.923,4.078C13.666-28.179,7.75-23.008,7.75-23.008
			s3.047-7.077,6.83-13.666c0.924-1.658,1.669-3.44,2.64-4.927c0.058-0.076,0.12-0.144,0.178-0.217
			c-6.665-1.35-20.451-0.784-16.79,28.678C30.837-20.163,26.553-32.702,22.907-38.178z M149.699,18.874
			c-0.026-0.069-0.044-0.138-0.068-0.205c-3.899,3.48-9.708,12.188,11.758,23.17c8.847-21.687-1.514-24.692-6.834-24.913
			c0.03,0.07,0.064,0.138,0.092,0.21c0.429,1.31,0.625,2.802,0.982,4.235c1.503,5.71,2.328,11.658,2.328,11.658
			s-3.394-5.045-6.128-10.321C151.127,21.395,150.264,20.138,149.699,18.874z M25.331-71.504c0.787-1.15,1.867-2.245,2.797-3.419
			c3.656-4.742,7.937-9.137,7.937-9.137s-1.915,5.711-4.438,11.083c-0.613,1.355-1.078,2.788-1.739,4.008
			c-0.038,0.064-0.084,0.12-0.122,0.182c5.293,0.656,16.025-0.612,11.231-23.407c-23.153,7.294-18.984,16.833-15.775,20.893
			C25.261-71.37,25.291-71.438,25.331-71.504z M22.814-64.267c-0.04,0.039-0.076,0.08-0.116,0.118
			c-0.779,0.634-1.745,1.175-2.627,1.799c-3.49,2.536-7.336,4.716-7.336,4.716s2.506-3.532,5.357-6.717
			c0.703-0.805,1.322-1.697,2.029-2.403c0.04-0.033,0.082-0.065,0.122-0.1c-3.476-1.459-11.067-2.648-12.583,13.828
			C24.994-53.572,24.151-60.881,22.814-64.267z M174.182-108.833c-0.006,0.064-0.006,0.128-0.014,0.193
			c-0.208,1.161-0.665,2.374-0.978,3.599c-1.18,4.922-2.979,9.771-2.979,9.771s-0.533-5.114-0.469-10.161
			c0-1.265-0.148-2.545-0.062-3.72c0.008-0.064,0.022-0.122,0.032-0.184c-4.399,1.209-12.389,5.7-0.473,22.07
			C184.845-100.539,178.158-106.685,174.182-108.833z M214.178-44.949c-0.004-0.05-0.012-0.1-0.014-0.152
			c0.002-0.924,0.194-1.922,0.269-2.911c0.248-3.961,0.984-7.943,0.984-7.943s1.106,3.901,1.741,7.821
			c0.172,0.979,0.459,1.955,0.553,2.875c0.002,0.048,0,0.096,0,0.146c3.246-1.482,8.831-5.951-2.626-17.168
			C204.79-50.06,210.806-46.121,214.178-44.949z M217.097,17.734c0.002,0.052,0.008,0.1,0.01,0.152
			c-0.03,0.925-0.248,1.916-0.351,2.904c-0.359,3.954-1.208,7.914-1.208,7.914s-0.996-3.926-1.521-7.863
			c-0.144-0.983-0.403-1.964-0.471-2.888c-0.002-0.05,0.004-0.098,0.004-0.145c-3.286,1.396-8.995,5.721,2.142,17.227
			C226.339,23.085,220.433,18.994,217.097,17.734z M191.999,53.274c0.05-0.018,0.098-0.038,0.148-0.056
			c0.934-0.249,1.991-0.344,3.011-0.542c4.059-0.85,8.272-1.257,8.272-1.257s-3.63,2.078-7.41,3.727
			c-0.94,0.424-1.845,0.953-2.747,1.29c-0.05,0.014-0.098,0.025-0.148,0.038c2.376,2.58,8.4,6.495,16.592-7.08
			C194.599,43.258,192.267,49.856,191.999,53.274z M136.552,86.229c-0.637,0.552-1.434,1.029-2.16,1.575
			c-2.867,2.218-6.042,4.142-6.042,4.142s2.015-3.029,4.327-5.776c0.569-0.693,1.066-1.458,1.641-2.068
			c0.032-0.031,0.068-0.058,0.1-0.087c-2.961-1.144-9.374-1.96-10.211,11.927c14.557-0.879,13.655-7.001,12.441-9.815
			C136.616,86.162,136.588,86.196,136.552,86.229z"/>
	</g>
</g>
</svg>
