<?xml version="1.0" encoding="utf-8"?>
<!-- Generator: Adobe Illustrator 17.0.0, SVG Export Plug-In . SVG Version: 6.00 Build 0)  -->
<!DOCTYPE svg PUBLIC "-//W3C//DTD SVG 1.1//EN" "http://www.w3.org/Graphics/SVG/1.1/DTD/svg11.dtd">
<svg version="1.1" id="Layer_1" xmlns="http://www.w3.org/2000/svg" xmlns:xlink="http://www.w3.org/1999/xlink" x="0px" y="0px"
	 width="435px" height="630px" viewBox="0 0 435 630" enable-background="new 0 0 435 630" xml:space="preserve">
<path opacity="0.8" fill="#64BB41" enable-background="new    " d="M86.765-65.297l-226.03,80.804
	c-104.027,37.189-158.209,151.671-121.019,255.701l80.808,226.037c37.191,104.031,151.67,158.216,255.698,121.027l226.03-80.804
	c104.027-37.189,158.209-151.671,121.018-255.701L342.463,55.729C305.272-48.301,190.792-102.486,86.765-65.297z"/>
<linearGradient id="SVGID_1_" gradientUnits="userSpaceOnUse" x1="-14.3374" y1="481.8562" x2="226.6626" y2="-198.1438" gradientTransform="matrix(1 0 0 -1 -4.84 483.4)">
	<stop  offset="0" style="stop-color:#60A445"/>
	<stop  offset="1" style="stop-color:#488B2D"/>
</linearGradient>
<path fill="url(#SVGID_1_)" d="M81.765-70.297l-226.03,80.804c-104.027,37.19-158.209,151.671-121.019,255.701l80.808,226.037
	c37.191,104.03,151.67,158.216,255.698,121.026l226.03-80.805c104.027-37.19,158.209-151.671,121.019-255.701L337.463,50.729
	C300.272-53.301,185.792-107.487,81.765-70.297z"/>
<g opacity="0.1">
	<g>
		<path fill="#F7F7F7" d="M41.719-23.578c-0.08-0.218-0.178-0.418-0.254-0.638c-1.139-3.988-1.564-8.491-2.476-12.839
			c-3.876-17.322-5.687-35.296-5.687-35.296s9.622,15.517,17.241,31.666c1.961,4.019,4.411,7.884,5.965,11.743
			c0.071,0.209,0.115,0.417,0.18,0.624c12.091-10.067,30.49-35.663-32.7-70.874C-4.975-34.875,25.774-24.787,41.719-23.578z
			 M181.631,13.158c-65.949-34.608-79.728-5.496-82.575,9.987c0.239-0.056,0.466-0.132,0.708-0.188
			c4.374-0.726,9.229-0.704,13.969-1.17c18.899-2.107,38.292-2.13,38.292-2.13s-17.529,7.907-35.535,13.79
			c-4.489,1.526-8.861,3.548-13.137,4.693c-0.232,0.048-0.456,0.07-0.688,0.115C112.252,51.068,137.828,71.567,181.631,13.158z
			 M-31.705,29.112c0.232,0.139,0.466,0.252,0.695,0.396c3.957,2.776,7.658,6.492,11.676,9.745
			c16.233,12.788,31.105,27.549,31.105,27.549s-20.007-7.301-38.699-16.516c-4.711-2.25-9.741-4.032-13.971-6.413
			c-0.217-0.139-0.41-0.295-0.622-0.437c-3.323,17.119-0.798,52.309,81.384,40.947C18.157,7.621-16.633,19.42-31.705,29.112z
			 M45.538,87.773c-11.876,66.814,19.451,69.578,34.732,67.229c-0.127-0.186-0.266-0.352-0.393-0.542
			c-2.022-3.503-3.496-7.644-5.392-11.533c-7.782-15.443-13.779-31.95-13.779-31.95s12.757,12.49,23.776,26.011
			c2.803,3.35,6.031,6.449,8.414,9.738c0.115,0.181,0.207,0.366,0.32,0.55C102.183,135.164,113.371,107.073,45.538,87.773z
			 M118.823,128.576c0.163-0.105,0.312-0.22,0.481-0.322c3.098-1.666,6.77-2.891,10.214-4.456
			c13.679-6.422,28.309-11.398,28.309-11.398s-11.019,10.448-22.969,19.495c-2.962,2.301-5.696,4.943-8.602,6.901
			c-0.161,0.095-0.327,0.171-0.488,0.264c10.817,7.218,35.847,16.148,52.588-39.138C118.911,90.667,116.645,116.161,118.823,128.576
			z M210.784-9.539c-36.986,40.735-16.877,55.02-5.467,59.476c-0.008-0.179-0.029-0.347-0.032-0.525
			c0.137-3.185,0.927-6.584,1.32-9.98c1.391-13.584,4.455-27.183,4.455-27.183s3.271,13.542,4.916,27.102
			c0.456,3.39,1.31,6.776,1.508,9.955c0,0.169-0.017,0.332-0.019,0.501C228.801,45.122,248.564,30.448,210.784-9.539z
			 M73.761,22.613c0.007,0.176,0.029,0.345,0.032,0.523c-0.137,3.184-0.927,6.583-1.322,9.98
			c-1.388,13.584-4.452,27.182-4.452,27.182s-3.271-13.545-4.916-27.102c-0.456-3.389-1.31-6.776-1.508-9.955
			c0-0.168,0.017-0.332,0.02-0.5c-11.337,4.686-31.1,19.359,6.679,59.347C105.28,41.353,85.171,27.068,73.761,22.613z
			 M145.795-66.966c0.124-0.129,0.259-0.239,0.385-0.364c-12.008-4.092-37.726-6.317-38.606,49.311
			c57.891-5.863,53.212-30.188,47.874-41.231c-0.127,0.137-0.234,0.278-0.364,0.418c-2.444,2.311-5.54,4.344-8.336,6.644
			c-11.042,9.324-23.356,17.53-23.356,17.53s7.489-12.428,16.221-23.776C141.76-61.301,143.607-64.431,145.795-66.966z
			 M81.291-37.346C48.945-4.567,65.212,8.024,74.575,12.121c0.002-0.149-0.012-0.29-0.007-0.44c0.232-2.652,1.012-5.465,1.464-8.285
			C77.684-7.9,80.733-19.15,80.733-19.15s2.242,11.415,3.123,22.788c0.261,2.845,0.849,5.699,0.9,8.361
			c-0.005,0.141-0.027,0.275-0.034,0.417C94.353,8.878,111.381-2.715,81.291-37.346z M51.583-4.729
			c0.144-0.035,0.285-0.054,0.429-0.083c-6.223-7.873-22.593-20.309-49.021,16.956c41.893,20.636,50.024,2.19,51.539-7.55
			c-0.149,0.039-0.288,0.09-0.437,0.126c-2.727,0.525-5.77,0.586-8.729,0.953C33.564,7.29,21.42,7.608,21.42,7.608
			s10.841-5.225,22.017-9.191C46.223-2.611,48.926-3.945,51.583-4.729z M-13.824,101.519c17.911,41.697,36.601,32.694,44.359,26.219
			c-0.142-0.061-0.283-0.11-0.422-0.174c-2.432-1.294-4.789-3.132-7.292-4.688C12.743,116.785,3.28,109.497,3.28,109.497
			s11.798,2.745,22.995,6.656c2.815,0.945,5.777,1.607,8.334,2.657c0.132,0.064,0.251,0.14,0.38,0.203
			C35.587,109.16,31.552,89.539-13.824,101.519z M103.601,92.7c0.578-10.709,2.469-21.493,2.469-21.493s3.079,10.519,4.882,21.108
			c0.488,2.645,1.286,5.271,1.562,7.762c0.005,0.135-0.003,0.262,0.002,0.393c8.721-4.071,23.683-16.272-7.485-46.356
			c-27.497,33.255-11.171,43.773-2.047,46.876c-0.012-0.136-0.037-0.271-0.044-0.41C102.928,98.078,103.418,95.382,103.601,92.7z
			 M187.392,88.855c8.726-5.321,23.035-19.977-13.786-48.241c-24.925,38.41-6.301,47.665,3.757,49.897
			c-0.029-0.146-0.073-0.284-0.1-0.43c-0.327-2.65-0.149-5.563-0.295-8.425c-0.742-11.413-0.1-23.053-0.1-23.053
			s4.591,10.788,7.838,21.793c0.852,2.747,2.03,5.438,2.635,8.044C187.365,88.579,187.372,88.716,187.392,88.855z M201.263-14.889
			c-0.144,0.009-0.281,0.031-0.424,0.039c-2.593-0.025-5.382-0.53-8.156-0.74c-11.09-0.701-22.234-2.647-22.234-2.647
			s10.944-2.771,21.937-4.329c2.749-0.426,5.482-1.144,8.065-1.37c0.139-0.005,0.271,0.005,0.408,0.003
			c-4.094-8.329-16.521-22.69-48.135,6.439C186.789,9.051,197.918-6.28,201.263-14.889z M169.535-68.514
			c0.129,0.039,0.259,0.068,0.388,0.113c2.261,0.903,4.513,2.295,6.862,3.424c9.449,4.391,18.48,9.891,18.48,9.891
			s-10.612-1.303-20.817-3.682c-2.562-0.564-5.223-0.867-7.57-1.548c-0.122-0.043-0.234-0.097-0.356-0.141
			c0.485,8.686,6.023,25.491,44.537,10.759C191.116-84.543,175.668-74.912,169.535-68.514z M107.173-93.851
			c11.878-1.577,24.096-1.846,24.096-1.846s-10.929,5.211-22.191,9.155c-2.805,1.023-5.53,2.354-8.207,3.133
			c-0.144,0.032-0.288,0.048-0.432,0.081c6.226,7.945,22.634,20.521,49.387-16.856c-42.049-20.931-50.309-2.41-51.878,7.384
			c0.149-0.039,0.29-0.09,0.442-0.127C101.135-93.443,104.194-93.494,107.173-93.851z M88.212-85.686
			c-0.127-0.042-0.254-0.073-0.381-0.12c-2.22-0.945-4.421-2.373-6.724-3.543c-9.26-4.56-18.082-10.21-18.082-10.21
			s10.488,1.523,20.548,4.105c2.525,0.615,5.157,0.972,7.465,1.699c0.122,0.047,0.232,0.101,0.351,0.149
			c-0.273-8.622-5.362-25.4-43.893-11.637C66.436-70.267,81.981-79.476,88.212-85.686z M90.184-76.75
			c0.027,0.106,0.063,0.202,0.088,0.307c0.329,1.908,0.3,4.023,0.508,6.088c0.934,8.236,0.876,16.683,0.876,16.683
			s-3.698-7.662-6.433-15.526c-0.712-1.958-1.656-3.867-2.186-5.736c-0.022-0.1-0.034-0.2-0.054-0.3
			c-6.131,4.129-15.972,15.193,11.659,34.477C111.342-69.351,97.542-75.456,90.184-76.75z M1.719-37.385
			c0.002,2.055-0.41,4.27-0.566,6.471c-0.505,8.798-2.088,17.651-2.088,17.651s-2.501-8.651-3.952-17.351
			c-0.393-2.176-1.042-4.337-1.261-6.383c-0.005-0.108,0.002-0.216,0-0.322c-7.177,3.32-19.502,13.307,6.021,38.102
			c22.681-27.251,9.297-35.934,1.81-38.508C1.692-37.61,1.712-37.5,1.719-37.385z M-20.185-8.771c-0.071,0.1-0.127,0.2-0.198,0.3
			c-1.373,1.698-3.193,3.272-4.794,4.994C-31.475,3.472-38.704,9.804-38.704,9.804s3.723-8.666,8.346-16.734
			c1.13-2.031,2.039-4.212,3.225-6.034c0.071-0.092,0.146-0.176,0.217-0.266c-8.143-1.653-24.989-0.96-20.514,35.115
			C-10.495,13.289-15.73-2.066-20.185-8.771z M134.736,61.089c-0.032-0.084-0.054-0.169-0.083-0.252
			c-4.764,4.261-11.861,14.924,14.367,28.371c10.81-26.554-1.849-30.234-8.351-30.506c0.037,0.085,0.078,0.169,0.112,0.257
			c0.524,1.604,0.764,3.431,1.2,5.186c1.837,6.991,2.844,14.276,2.844,14.276s-4.147-6.178-7.487-12.64
			C136.481,64.175,135.427,62.637,134.736,61.089z M-17.223-49.579c0.961-1.408,2.281-2.749,3.418-4.187
			c4.467-5.807,9.697-11.189,9.697-11.189s-2.34,6.994-5.423,13.572c-0.749,1.658-1.317,3.414-2.125,4.908
			c-0.046,0.078-0.102,0.147-0.149,0.222c6.467,0.804,19.58-0.749,13.722-28.661c-28.289,8.931-23.195,20.611-19.275,25.583
			C-17.308-49.414-17.271-49.498-17.223-49.579z M-20.299-40.717c-0.049,0.046-0.093,0.098-0.142,0.144
			c-0.951,0.777-2.132,1.439-3.21,2.203c-4.264,3.106-8.963,5.774-8.963,5.774s3.062-4.324,6.545-8.224
			c0.859-0.987,1.615-2.078,2.479-2.942c0.049-0.042,0.1-0.08,0.149-0.122c-4.247-1.788-13.523-3.243-15.374,16.932
			C-17.635-27.621-18.664-36.57-20.299-40.717z M164.651-95.288c-0.007,0.078-0.007,0.156-0.017,0.236
			c-0.254,1.421-0.812,2.906-1.195,4.408c-1.442,6.026-3.64,11.965-3.64,11.965s-0.651-6.263-0.573-12.443
			c0-1.549-0.18-3.116-0.076-4.555c0.01-0.077,0.027-0.148,0.039-0.224c-5.374,1.48-15.138,6.979-0.578,27.024
			C177.679-85.132,169.509-92.659,164.651-95.288z M213.52-17.062c-0.005-0.061-0.015-0.122-0.017-0.185
			c0.002-1.133,0.237-2.355,0.329-3.565c0.302-4.849,1.203-9.726,1.203-9.726s1.352,4.776,2.127,9.577
			c0.21,1.199,0.561,2.393,0.676,3.521c0.002,0.059,0,0.118,0,0.179c3.967-1.815,10.79-7.286-3.208-21.022
			C202.049-23.321,209.4-18.498,213.52-17.062z M217.086,59.694c0.002,0.063,0.01,0.122,0.012,0.185
			c-0.037,1.133-0.302,2.346-0.429,3.556c-0.439,4.842-1.476,9.691-1.476,9.691s-1.217-4.808-1.859-9.629
			c-0.175-1.203-0.493-2.405-0.576-3.536c-0.003-0.061,0.005-0.119,0.005-0.178c-4.016,1.709-10.99,7.006,2.618,21.095
			C228.379,66.244,221.163,61.237,217.086,59.694z M186.421,103.213c0.061-0.022,0.12-0.047,0.18-0.069
			c1.142-0.305,2.432-0.421,3.679-0.664c4.96-1.04,10.107-1.537,10.107-1.537s-4.435,2.544-9.053,4.564
			c-1.149,0.52-2.254,1.167-3.357,1.58c-0.061,0.017-0.12,0.03-0.18,0.046c2.903,3.16,10.263,7.953,20.273-8.668
			C189.597,90.946,186.748,99.027,186.421,103.213z M118.672,143.566c-0.778,0.677-1.752,1.261-2.64,1.93
			c-3.503,2.715-7.382,5.071-7.382,5.071s2.462-3.709,5.287-7.072c0.695-0.85,1.303-1.786,2.005-2.532
			c0.039-0.039,0.083-0.071,0.122-0.108c-3.618-1.402-11.454-2.401-12.476,14.604c17.787-1.077,16.684-8.573,15.201-12.018
			C118.75,143.483,118.716,143.525,118.672,143.566z"/>
	</g>
</g>
</svg>
