<?xml version="1.0" encoding="utf-8"?>
<!-- Generator: Adobe Illustrator 17.0.0, SVG Export Plug-In . SVG Version: 6.00 Build 0)  -->
<!DOCTYPE svg PUBLIC "-//W3C//DTD SVG 1.1//EN" "http://www.w3.org/Graphics/SVG/1.1/DTD/svg11.dtd">
<svg version="1.1" id="Layer_1" xmlns="http://www.w3.org/2000/svg" xmlns:xlink="http://www.w3.org/1999/xlink" x="0px" y="0px"
	 width="16px" height="13px" viewBox="10 11.5 16 13" enable-background="new 10 11.5 16 13" xml:space="preserve">
<g>
	<g>
		<path fill="#5C9A43" d="M25.963,18.187C25.987,18.128,26,18.065,26,18.001c0-0.065-0.013-0.129-0.037-0.188
			c-0.025-0.059-0.06-0.113-0.104-0.157L19.9,11.643c-0.188-0.19-0.493-0.19-0.681,0c-0.188,0.189-0.188,0.497,0,0.687l5.136,5.184
			H10.481c-0.266,0-0.481,0.218-0.481,0.487c0,0.267,0.216,0.485,0.481,0.485h13.875l-5.138,5.184c-0.188,0.19-0.188,0.498,0,0.688
			c0.094,0.095,0.217,0.142,0.34,0.142c0.123,0,0.246-0.047,0.34-0.142l5.959-6.014c0.008-0.008,0.012-0.02,0.019-0.029
			C25.911,18.276,25.943,18.235,25.963,18.187z"/>
	</g>
</g>
</svg>
