<?xml version="1.0" encoding="utf-8"?>
<!-- Generator: Adobe Illustrator 17.0.0, SVG Export Plug-In . SVG Version: 6.00 Build 0)  -->
<!DOCTYPE svg PUBLIC "-//W3C//DTD SVG 1.1//EN" "http://www.w3.org/Graphics/SVG/1.1/DTD/svg11.dtd">
<svg version="1.1" id="Layer_1" xmlns="http://www.w3.org/2000/svg" xmlns:xlink="http://www.w3.org/1999/xlink" x="0px" y="0px"
	 width="455px" height="300px" viewBox="0 0 455 300" enable-background="new 0 0 455 300" xml:space="preserve">
<path opacity="0.3" fill="#5C9A43" enable-background="new    " d="M454.999,300l-20.184-184.774
	C422.151,40.029,347.723-10.697,272.278,1.927L0.001,47.487V300H454.999z"/>
<linearGradient id="SVGID_1_" gradientUnits="userSpaceOnUse" x1="317.8638" y1="139.2143" x2="162.5305" y2="-155.4523" gradientTransform="matrix(1 0 0 -1 -4.84 153.4)">
	<stop  offset="0" style="stop-color:#60A445"/>
	<stop  offset="1" style="stop-color:#488B2D"/>
</linearGradient>
<path fill="url(#SVGID_1_)" d="M453,300l-19.842-183.14C421.135,45.283,353.334-3.001,281.72,9.016L9.413,54.707
	C6.227,55.241,3.09,55.891,0,56.642V300H453z"/>
<path fill="#7DC360" enable-background="new    " d="M278.712,2.999c36.037,0,71.378,13.38,99.512,37.677
	c28.15,24.309,47.142,57.868,53.478,94.495L448.968,300h2.031l-17.325-165.167c-6.414-37.083-25.642-71.059-54.14-95.669
	C351.035,14.553,315.229,1,278.712,1c-7.807,0-15.703,0.62-23.469,1.843L0,43.048v2.024L255.555,4.818
	C263.219,3.611,271.01,2.999,278.712,2.999z"/>
<g>
	<g>
		<path fill="#FFFFFF" d="M87.944,209.176c-1.986,0-3.68-0.7-5.08-2.101s-2.101-3.094-2.101-5.08c0-1.975,0.7-3.668,2.101-5.08
			c1.395-1.406,3.088-2.109,5.08-2.109c1.863,0,3.624,0.759,5.282,2.276l-1.362,1.239c-1.254-1.113-2.561-1.67-3.92-1.67
			c-1.477,0-2.736,0.521-3.779,1.564s-1.564,2.303-1.564,3.779c0,1.482,0.521,2.745,1.564,3.788s2.303,1.564,3.779,1.564
			c1.26,0,2.309-0.334,3.146-1.002v-4.245h1.819v5.001C91.456,208.484,89.801,209.176,87.944,209.176z"/>
		<path fill="#FFFFFF" d="M97.638,209.026h-1.819v-14.063h1.819V209.026z"/>
		<path fill="#FFFFFF" d="M110.795,209.026h-1.934l-1.811-4.975h-3.727l-1.802,4.975H99.58l5.115-14.063h0.984L110.795,209.026z
			 M107.939,191.642l-2.391,2.452h-1.731l1.907-2.452H107.939z M105.188,198.928l-1.195,3.296h2.399L105.188,198.928z"/>
		<path fill="#FFFFFF" d="M122.775,209.026h-1.819v-12.234h-3.278v-1.828h8.376v1.828h-3.278L122.775,209.026L122.775,209.026z"/>
		<path fill="#FFFFFF" d="M129.639,209.026h-1.819v-14.063h1.819v6.416h4.342v-6.416h1.819v14.063h-1.819v-5.818h-4.342V209.026z"/>
		<path fill="#FFFFFF" d="M148.773,209.026h-1.934l-1.811-4.975h-3.727l-1.802,4.975h-1.942l5.115-14.063h0.984L148.773,209.026z
			 M143.165,198.928l-1.195,3.296h2.399L143.165,198.928z"/>
		<path fill="#FFFFFF" d="M157.184,202.848l4.544-7.884h1.661v14.063h-1.819v-10.16l-4.386,7.594l-4.403-7.594v10.16h-1.819v-14.063
			h1.661L157.184,202.848z"/>
		<path fill="#FFFFFF" d="M174.498,209.026h-1.819v-14.063h1.819v4.43l3.322-4.43h2.303l-4.315,5.783l5.37,8.279h-2.206
			l-4.351-6.785l-0.123,0.149V209.026z"/>
		<path fill="#FFFFFF" d="M185.098,209.026h-1.819v-14.063h1.819v6.416h4.342v-6.416h1.819v14.063h-1.819v-5.818h-4.342V209.026z"/>
		<path fill="#FFFFFF" d="M204.232,209.026h-1.934l-1.811-4.975h-3.727l-1.802,4.975h-1.942l5.115-14.063h0.984L204.232,209.026z
			 M198.027,188.293c0.281-0.094,0.574-0.141,0.879-0.141c0.363,0,0.732,0.079,1.107,0.237c0.656,0.275,1.099,0.712,1.327,1.31
			c0.1,0.27,0.149,0.53,0.149,0.782c0,0.334-0.088,0.674-0.264,1.02c-0.293,0.527-0.762,1.02-1.406,1.477
			c-0.234,0.223-0.393,0.475-0.475,0.756h-1.503c0.006-0.58,0.448-1.216,1.327-1.907c0.34-0.299,0.595-0.598,0.765-0.896
			c0.076-0.158,0.114-0.311,0.114-0.457c0-0.111-0.023-0.229-0.07-0.352c-0.105-0.258-0.305-0.454-0.598-0.589
			c-0.164-0.07-0.331-0.105-0.501-0.105c-0.129,0-0.255,0.021-0.378,0.062c-0.439,0.135-0.683,0.571-0.729,1.31h-1.494
			C196.371,189.456,196.954,188.621,198.027,188.293z M198.624,198.928l-1.195,3.296h2.399L198.624,198.928z"/>
		<path fill="#FFFFFF" d="M220.166,201.978c0,1.986-0.703,3.683-2.109,5.089s-3.103,2.109-5.089,2.109s-3.683-0.703-5.089-2.109
			s-2.109-3.103-2.109-5.089s0.703-3.683,2.109-5.089s3.103-2.109,5.089-2.109s3.683,0.703,5.089,2.109
			S220.166,199.991,220.166,201.978z M212.968,196.607c-1.482,0-2.748,0.524-3.797,1.574c-1.043,1.044-1.564,2.308-1.564,3.791
			c0,1.484,0.524,2.751,1.573,3.8c1.049,1.05,2.312,1.575,3.788,1.575s2.739-0.525,3.788-1.575c1.049-1.049,1.573-2.315,1.573-3.8
			c0-1.478-0.524-2.741-1.573-3.791S214.445,196.607,212.968,196.607z"/>
	</g>
	<g>
		<path fill="#FFFFFF" d="M238.645,208.999h-3.639V185.62h-2.689l3.691-4.746h2.637V208.999z"/>
		<path fill="#FFFFFF" d="M254.887,206.661c0,0.727-0.252,1.336-0.756,1.828c-0.492,0.492-1.09,0.738-1.793,0.738
			c-0.691,0-1.289-0.246-1.793-0.738s-0.756-1.102-0.756-1.828c0-0.703,0.252-1.301,0.756-1.793s1.102-0.738,1.793-0.738
			c0.703,0,1.301,0.246,1.793,0.738C254.636,205.36,254.887,205.958,254.887,206.661z"/>
		<path fill="#FFFFFF" d="M263.887,191.649c1.031-1.125,2.76-1.688,5.186-1.688s4.441,0.803,6.047,2.408
			c1.945,1.945,2.918,4.307,2.918,7.084c0,2.766-0.973,5.121-2.918,7.066s-4.301,2.918-7.066,2.918s-5.121-0.973-7.066-2.918
			c-1.863-1.863-2.807-4.482-2.83-7.857v-0.053c0-3.316,0.896-6.234,2.689-8.754c0.914-1.277,1.975-2.657,3.182-4.14
			s2.584-3.097,4.131-4.843h4.781c-2.145,2.215-3.967,4.216-5.467,6.003S264.778,190.255,263.887,191.649z M261.796,199.454
			c0,1.734,0.608,3.211,1.825,4.43c1.241,1.219,2.721,1.828,4.441,1.828s3.188-0.609,4.406-1.828
			c1.229-1.207,1.843-2.684,1.843-4.43c0-1.734-0.614-3.211-1.843-4.43c-1.218-1.219-2.687-1.828-4.406-1.828
			c-1.721,0-3.2,0.609-4.441,1.828C262.404,196.243,261.796,197.72,261.796,199.454z"/>
		<path fill="#FFFFFF" d="M294.725,208.999H292.3v-16.313h-4.371v-2.438h11.168v2.438h-4.371L294.725,208.999L294.725,208.999z"/>
		<path fill="#FFFFFF" d="M301.85,213.054l3.211-6.738l-4.488-9.375h2.73l3.059,6.598l3.059-6.598h2.719l-7.723,16.113H301.85z
			 M305.624,187.647c0.375-0.125,0.766-0.188,1.172-0.188c0.484,0,0.977,0.105,1.477,0.316c0.875,0.367,1.465,0.949,1.77,1.746
			c0.133,0.359,0.199,0.707,0.199,1.043c0,0.445-0.117,0.898-0.352,1.359c-0.391,0.703-1.016,1.359-1.875,1.969
			c-0.313,0.297-0.523,0.633-0.633,1.008h-2.004c0.008-0.773,0.598-1.621,1.77-2.543c0.453-0.398,0.793-0.797,1.02-1.195
			c0.102-0.211,0.152-0.414,0.152-0.609c0-0.148-0.031-0.305-0.094-0.469c-0.141-0.344-0.406-0.605-0.797-0.785
			c-0.219-0.094-0.441-0.141-0.668-0.141c-0.172,0-0.34,0.027-0.504,0.082c-0.586,0.18-0.91,0.762-0.973,1.746h-1.992
			C303.417,189.198,304.194,188.085,305.624,187.647z"/>
		<path fill="#FFFFFF" d="M323.647,190.249l-8.496,18.75h-2.695l8.484-18.75H323.647z"/>
		<path fill="#FFFFFF" d="M342.444,195.909c0-0.938-0.336-1.742-1.008-2.414c-0.664-0.664-1.469-0.996-2.414-0.996
			c-0.938,0-1.738,0.332-2.402,0.996c-0.57,0.57-0.926,1.555-1.066,2.953l-2.426-0.879c0.242-1.617,0.824-2.891,1.746-3.82
			c1.148-1.156,2.531-1.734,4.148-1.734c1.633,0,3.02,0.574,4.16,1.723c1.148,1.148,1.723,2.539,1.723,4.172
			c0,1.617-0.555,3.02-1.664,4.207c-0.695,0.75-1.516,1.48-2.461,2.191c-0.469,0.352-0.961,0.721-1.477,1.107
			s-1.059,0.795-1.629,1.225c-1,0.742-1.559,1.383-1.676,1.922h8.906V209H333.15c0.43-2.984,1.285-4.953,2.566-5.906
			c0.641-0.477,1.23-0.918,1.77-1.324s1.035-0.777,1.488-1.113s0.879-0.684,1.277-1.043s0.773-0.734,1.125-1.125
			C342.089,197.722,342.444,196.862,342.444,195.909z"/>
		<path fill="#FFFFFF" d="M350.87,208.999h-2.426v-18.75h5.314c1.498,0.195,2.771,0.816,3.816,1.863
			c1.241,1.258,1.861,2.758,1.861,4.5c0,1.766-0.62,3.273-1.86,4.523c-1.241,1.242-2.739,1.863-4.494,1.863h-2.212L350.87,208.999
			L350.87,208.999z M350.87,200.562h2.215c1.078,0,2-0.383,2.766-1.148c0.773-0.773,1.16-1.707,1.16-2.801
			c0-1.086-0.387-2.012-1.16-2.777c-0.766-0.766-1.688-1.148-2.766-1.148h-2.215V200.562z"/>
		<path fill="#FFFFFF" d="M364.077,190.249l7.734,13.383v-13.383h2.426v18.75h-2.118l-7.831-13.547v13.547h-2.426v-18.75H364.077z"
			/>
	</g>
</g>
<g>
	<g>
		<path fill="#FFFFFF" d="M127.964,75.745l0.807,0.722c-1.354,1.235-2.883,1.852-4.588,1.852c-1.818,0-3.37-0.641-4.655-1.924
			c-1.286-1.283-1.928-2.836-1.928-4.66c0-1.818,0.643-3.37,1.928-4.655c1.286-1.286,2.837-1.928,4.655-1.928
			c1.705,0,3.234,0.615,4.588,1.843l-0.807,0.739c-1.121-0.997-2.382-1.495-3.78-1.495c-1.512,0-2.805,0.537-3.879,1.61
			s-1.609,2.369-1.609,3.887c0,1.524,0.536,2.822,1.609,3.895s2.366,1.61,3.879,1.61C125.582,77.24,126.843,76.742,127.964,75.745z"
			/>
		<path fill="#FFFFFF" d="M137.003,73.383h-4.069l-1.742,4.791h-1.147l4.927-13.525l4.919,13.525h-1.147L137.003,73.383z
			 M133.86,62.093c0.051,0.34,0.161,0.595,0.331,0.765c0.215,0.215,0.473,0.323,0.773,0.323s0.558-0.108,0.773-0.323
			c0.17-0.17,0.278-0.425,0.323-0.765h0.943c-0.062,0.612-0.263,1.09-0.603,1.436c-0.391,0.396-0.869,0.595-1.436,0.595
			s-1.045-0.198-1.436-0.595c-0.374-0.379-0.575-0.858-0.603-1.436H133.86z M136.612,72.304l-1.64-4.511l-1.64,4.511H136.612z"/>
		<path fill="#FFFFFF" d="M141.591,65.296h1.07l6.125,10.611V65.296h1.079v12.879h-0.994l-6.202-10.721v10.721h-1.079
			L141.591,65.296L141.591,65.296z"/>
		<path fill="#FFFFFF" d="M159.507,72.568v5.607h-1.079V65.296h1.079v6.202h4.859v-6.202h1.079v12.879h-1.079v-5.607
			C164.366,72.568,159.507,72.568,159.507,72.568z"/>
		<path fill="#FFFFFF" d="M179.055,67.05c1.291,1.288,1.937,2.845,1.937,4.668s-0.646,3.38-1.937,4.668s-2.849,1.933-4.672,1.933
			c-1.824,0-3.38-0.644-4.669-1.933s-1.932-2.845-1.932-4.668s0.644-3.38,1.932-4.668s2.845-1.933,4.669-1.933
			C176.206,65.117,177.764,65.762,179.055,67.05z M174.383,66.205c-1.518,0-2.815,0.538-3.891,1.614s-1.614,2.376-1.614,3.899
			s0.538,2.825,1.614,3.904s2.373,1.618,3.891,1.618c1.524,0,2.823-0.539,3.899-1.618c1.076-1.079,1.614-2.38,1.614-3.904
			s-0.538-2.823-1.614-3.899C177.206,66.743,175.906,66.205,174.383,66.205z M174.842,62.161l2.243,2.209h-1.334l-1.385-1.07
			l-1.317,1.07h-1.325l2.149-2.209C173.873,62.161,174.842,62.161,174.842,62.161z M175.02,79.224
			c0.176,0.172,0.263,0.38,0.263,0.624c0,0.249-0.088,0.46-0.263,0.633c-0.176,0.172-0.385,0.259-0.629,0.259
			s-0.453-0.087-0.629-0.259c-0.176-0.174-0.263-0.384-0.263-0.633c0-0.244,0.088-0.452,0.263-0.624
			c0.176-0.174,0.385-0.26,0.629-0.26S174.844,79.051,175.02,79.224z"/>
		<path fill="#FFFFFF" d="M199.494,75.745l0.808,0.722c-1.354,1.235-2.883,1.852-4.588,1.852c-1.818,0-3.37-0.641-4.655-1.924
			c-1.286-1.283-1.928-2.836-1.928-4.66c0-1.818,0.643-3.37,1.928-4.655c1.286-1.286,2.837-1.928,4.655-1.928
			c1.705,0,3.234,0.615,4.588,1.843l-0.808,0.739c-1.121-0.997-2.381-1.495-3.78-1.495c-1.512,0-2.805,0.537-3.878,1.61
			c-1.074,1.073-1.61,2.369-1.61,3.887c0,1.524,0.536,2.822,1.61,3.895c1.072,1.073,2.365,1.61,3.878,1.61
			C197.114,77.24,198.373,76.742,199.494,75.745z"/>
		<path fill="#FFFFFF" d="M208.228,73.383h-4.069l-1.742,4.791h-1.147l4.927-13.525l4.919,13.525h-1.147L208.228,73.383z
			 M207.838,72.304l-1.64-4.511l-1.64,4.511H207.838z"/>
		<path fill="#FFFFFF" d="M223.57,67.05c1.291,1.288,1.937,2.845,1.937,4.668s-0.646,3.38-1.937,4.668s-2.849,1.933-4.672,1.933
			c-1.824,0-3.38-0.644-4.669-1.933s-1.932-2.845-1.932-4.668s0.644-3.38,1.932-4.668s2.845-1.933,4.669-1.933
			C220.721,65.117,222.279,65.762,223.57,67.05z M218.898,66.205c-1.518,0-2.815,0.538-3.891,1.614s-1.614,2.376-1.614,3.899
			s0.538,2.825,1.614,3.904s2.373,1.618,3.891,1.618c1.523,0,2.823-0.539,3.899-1.618c1.076-1.079,1.614-2.38,1.614-3.904
			s-0.538-2.823-1.614-3.899C221.721,66.743,220.421,66.205,218.898,66.205z"/>
		<path fill="#FFFFFF" d="M244.011,75.745l0.807,0.722c-1.354,1.235-2.883,1.852-4.588,1.852c-1.818,0-3.37-0.641-4.655-1.924
			c-1.286-1.283-1.928-2.836-1.928-4.66c0-1.818,0.643-3.37,1.928-4.655c1.286-1.286,2.837-1.928,4.655-1.928
			c1.705,0,3.234,0.615,4.588,1.843l-0.807,0.739c-1.121-0.997-2.382-1.495-3.78-1.495c-1.512,0-2.805,0.537-3.878,1.61
			c-1.074,1.073-1.61,2.369-1.61,3.887c0,1.524,0.536,2.822,1.61,3.895c1.072,1.073,2.365,1.61,3.878,1.61
			C241.629,77.24,242.89,76.742,244.011,75.745z"/>
		<path fill="#FFFFFF" d="M253.05,73.383h-4.069l-1.742,4.791h-1.147l4.927-13.525l4.919,13.525h-1.147L253.05,73.383z
			 M251.47,62.552l2.243,2.209h-1.334l-1.393-1.07l-1.308,1.07h-1.334l2.158-2.209C250.502,62.552,251.47,62.552,251.47,62.552z
			 M252.659,72.304l-1.64-4.511l-1.64,4.511H252.659z M255.709,61.108l-2.404,1.835h-1.13l1.597-1.835H255.709z"/>
		<path fill="#FFFFFF" d="M258.715,73.834v4.341h-1.079V65.296h3.483c1.002,0.136,1.852,0.552,2.549,1.249
			c0.833,0.833,1.249,1.838,1.249,3.016c0,1.184-0.416,2.192-1.249,3.024s-1.838,1.249-3.016,1.249H258.715z M258.715,66.383v6.372
			h1.937c0.878,0,1.628-0.311,2.251-0.934c0.623-0.623,0.934-1.376,0.934-2.26c0-0.878-0.311-1.627-0.934-2.247
			s-1.373-0.93-2.251-0.93L258.715,66.383L258.715,66.383z"/>
	</g>
	<path opacity="0.2" fill="#FFFFFF" enable-background="new    " d="M30.797,74.309h69.594v0.966H30.797V74.309z"/>
	<path opacity="0.2" fill="#FFFFFF" enable-background="new    " d="M282.374,74.792h69.594v0.966h-69.594V74.792z"/>
	<g>
		<path fill="#FFFFFF" d="M27.369,152.505c-0.278,0-0.542-0.1-0.793-0.302c-0.202-0.201-0.302-0.465-0.302-0.793
			c0-0.402,0.515-1.069,1.548-2.001l4.267-3.7c1.737-1.51,3.196-2.832,4.38-3.965c1.661-1.485,3.134-2.87,4.418-4.153
			c1.485-1.61,2.856-3.134,4.116-4.569c2.819-3.398,4.984-6.745,6.494-10.043c1.686-3.826,2.53-7.639,2.53-11.44
			c0-2.894-0.353-5.374-1.057-7.438c-0.68-1.862-1.611-3.36-2.794-4.493c-0.982-0.982-2.114-1.724-3.398-2.228
			c-1.083-0.378-2.19-0.566-3.323-0.566c-3.474,0-6.205,0.932-8.193,2.794c-2.165,2.064-3.247,4.544-3.247,7.438
			c0,0.982-0.34,1.473-1.019,1.473c-0.353,0-0.592-0.491-0.717-1.473c-0.051-0.478-0.126-1.85-0.227-4.116
			c-0.101-1.082-0.151-2.063-0.151-2.945l-0.076-2.303c0-0.629,0.314-1.145,0.944-1.548c1.737-0.881,3.587-1.573,5.55-2.077
			c2.492-0.579,5.298-0.868,8.42-0.868c6.443,0,11.403,1.624,14.876,4.871c3.045,2.895,4.569,6.759,4.569,11.591
			c0,3.525-0.932,7.136-2.794,10.836c-1.561,3.197-3.827,6.47-6.796,9.817c-1.259,1.46-2.656,2.933-4.191,4.418
			c-1.385,1.335-2.883,2.706-4.493,4.116c-1.284,1.133-2.719,2.341-4.304,3.625l-3.587,2.87c-0.202,0.202-0.353,0.328-0.453,0.378
			c-0.202,0.151-0.278,0.278-0.227,0.378c0.05,0.101,0.176,0.151,0.378,0.151l11.365-0.076c3.549-0.1,5.952-0.227,7.212-0.378
			c4.833-0.579,7.765-2.87,8.797-6.872c0.201-0.831,0.515-1.246,0.944-1.246c0.251,0,0.428,0.151,0.529,0.453
			c0.05,0.202,0.076,0.542,0.076,1.019c0,0.604-0.278,2.279-0.831,5.022c-0.529,2.668-0.995,4.682-1.397,6.041
			c-0.479,1.536-2.732,2.303-6.759,2.303H27.369V152.505z"/>
	</g>
	<g>
		<path fill="#FFFFFF" d="M95.19,112.153l9.022-15.653h3.298v27.92h-3.612v-20.172l-8.707,15.077l-8.742-15.077v20.172h-3.612V96.5
			h3.298L95.19,112.153z"/>
		<path fill="#FFFFFF" d="M134.121,124.421h-3.839l-3.595-9.877h-7.399l-3.577,9.877h-3.856l10.156-27.92h1.954L134.121,124.421z
			 M121.889,91.144c0.302,0.302,0.669,0.454,1.099,0.454c0.419,0,0.779-0.157,1.082-0.471c0.163-0.151,0.308-0.593,0.436-1.326
			h3.315c-0.268,1.454-0.733,2.513-1.396,3.176c-0.942,0.954-2.088,1.431-3.438,1.431c-1.361,0-2.513-0.477-3.455-1.431
			c-0.745-0.733-1.21-1.792-1.396-3.176h3.298C121.551,90.521,121.703,90.969,121.889,91.144z M122.988,104.371l-2.373,6.544h4.764
			L122.988,104.371z M125.292,128.242c0,0.663-0.227,1.21-0.681,1.64c-0.465,0.442-1.006,0.663-1.623,0.663
			c-0.628,0-1.175-0.221-1.64-0.663c-0.454-0.43-0.681-0.977-0.681-1.64c0-0.651,0.227-1.198,0.681-1.64
			c0.465-0.442,1.012-0.663,1.64-0.663c0.617,0,1.158,0.221,1.623,0.663C125.065,127.044,125.292,127.591,125.292,128.242z"/>
		<path fill="#FFFFFF" d="M145.987,124.421h-3.612v-24.29h-6.509v-3.63h16.63v3.63h-6.509V124.421z"/>
		<path fill="#FFFFFF" d="M176.298,124.421h-3.612v-24.29h-6.509v-3.63h16.63v3.63h-6.509V124.421z"/>
		<path fill="#FFFFFF" d="M190.275,124.421h-3.612v-27.92h3.612V124.421z"/>
		<path fill="#FFFFFF" d="M210.918,100.13h-11.43v8.498h11.43v3.63h-11.43v8.533h11.43v3.63h-15.042v-27.92h15.042V100.13z
			 M203.362,92.47l-1.553,1.431h-3.822l4.066-4.153h2.565l4.205,4.153h-3.856L203.362,92.47z M207.655,90.498l-4.746-4.869h4.397
			l3.787,4.869H207.655z"/>
		<path fill="#FFFFFF" d="M219.015,96.501l11.517,19.928V96.501h3.612v27.92h-3.155l-11.66-20.172v20.172h-3.612v-27.92
			C215.717,96.501,219.015,96.501,219.015,96.501z"/>
		<path fill="#FFFFFF" d="M258.853,110.094c-1.978-0.663-3.583-1.605-4.816-2.827c-1.221-1.233-1.832-2.757-1.832-4.572
			c0-1.792,0.634-3.321,1.902-4.589c1.28-1.28,2.827-1.919,4.642-1.919c1.803,0,3.339,0.634,4.607,1.902
			c0.721,0.698,1.326,1.809,1.815,3.333l-3.281,1.291c-0.407-1.082-0.768-1.78-1.082-2.094c-0.582-0.558-1.268-0.838-2.059-0.838
			c-0.814,0-1.507,0.285-2.077,0.855c-0.57,0.558-0.855,1.245-0.855,2.059c0,0.814,0.285,1.507,0.856,2.077
			c0.652,0.64,1.539,1.216,2.656,1.728c2.203,0.721,4.06,1.838,5.575,3.35c1.713,1.698,2.569,3.746,2.569,6.142
			c0,2.408-0.859,4.467-2.578,6.177c-1.701,1.698-3.751,2.548-6.147,2.548c-2.42,0-4.473-0.855-6.16-2.565
			c-1.349-1.349-2.21-3.228-2.583-5.636l3.507-1.274c0.233,2.071,0.774,3.531,1.623,4.38c1,1,2.205,1.501,3.612,1.501
			s2.612-0.5,3.612-1.501c1-1,1.501-2.21,1.501-3.63c0-1.408-0.5-2.612-1.501-3.612
			C261.418,111.438,260.249,110.676,258.853,110.094z"/>
		<path fill="#FFFFFF" d="M299.11,110.426c0,3.944-1.396,7.312-4.188,10.103c-2.792,2.792-6.16,4.188-10.103,4.188
			s-7.311-1.396-10.103-4.188s-4.188-6.16-4.188-10.103s1.396-7.312,4.188-10.103c2.792-2.792,6.16-4.188,10.103-4.188
			s7.311,1.396,10.103,4.188C297.714,103.114,299.11,106.482,299.11,110.426z M284.818,99.764c-2.943,0-5.456,1.042-7.538,3.126
			c-2.071,2.073-3.106,4.582-3.106,7.527c0,2.946,1.041,5.46,3.124,7.545c2.082,2.084,4.589,3.126,7.521,3.126
			s5.439-1.042,7.521-3.126s3.124-4.599,3.124-7.545c0-2.934-1.041-5.443-3.124-7.527S287.75,99.764,284.818,99.764z M284.783,92.47
			l-1.553,1.431h-3.822l4.066-4.153h2.565l4.205,4.153h-3.856L284.783,92.47z"/>
		<path fill="#FFFFFF" d="M307.224,96.501l11.517,19.928V96.501h3.612v27.92h-3.155l-11.66-20.172v20.172h-3.612v-27.92
			C303.926,96.501,307.224,96.501,307.224,96.501z"/>
		<path fill="#FFFFFF" d="M341.426,124.717c-3.944,0-7.306-1.39-10.086-4.171c-2.78-2.78-4.171-6.142-4.171-10.086
			c0-3.92,1.39-7.282,4.171-10.086c2.769-2.792,6.131-4.188,10.086-4.188c3.699,0,7.195,1.507,10.487,4.52l-2.705,2.46
			c-2.49-2.21-5.084-3.315-7.783-3.315c-2.932,0-5.433,1.035-7.503,3.106c-2.071,2.071-3.106,4.572-3.106,7.503
			c0,2.943,1.035,5.45,3.106,7.521c2.071,2.071,4.572,3.106,7.503,3.106c2.501,0,4.583-0.663,6.247-1.989v-8.428h3.612v9.929
			C348.4,123.344,345.113,124.717,341.426,124.717z"/>
	</g>
	<g>
		<path fill="#FFFFFF" d="M83.717,141.773h0.892l5.104,8.843v-8.843h0.899v10.733h-0.828l-5.168-8.934v8.934h-0.899
			C83.717,152.506,83.717,141.773,83.717,141.773z"/>
		<path fill="#FFFFFF" d="M101.756,151.118c-1.052,1.005-2.289,1.508-3.71,1.508c-1.515,0-2.808-0.535-3.88-1.604
			c-1.071-1.069-1.607-2.364-1.607-3.883c0-1.515,0.536-2.808,1.607-3.88c1.071-1.071,2.365-1.608,3.88-1.608
			c1.421,0,2.695,0.513,3.823,1.537l-0.673,0.615c-0.934-0.831-1.985-1.246-3.15-1.246c-1.26,0-2.338,0.447-3.232,1.342
			c-0.894,0.895-1.341,1.974-1.341,3.239c0,1.27,0.447,2.351,1.341,3.246c0.894,0.895,1.972,1.341,3.232,1.341
			c1.086,0,2.022-0.318,2.811-0.956v-3.257h0.899V151.118z"/>
		<path fill="#FFFFFF" d="M108.651,148.512h-3.391l-1.451,3.993h-0.956l4.106-11.271l4.099,11.271h-0.956L108.651,148.512z
			 M108.325,147.614l-1.366-3.76l-1.366,3.76H108.325z"/>
		<path fill="#FFFFFF" d="M114.407,148.18l-3.695-6.407h1.034l3.115,5.401l3.115-5.401h1.034l-3.703,6.407v4.325h-0.899
			L114.407,148.18L114.407,148.18z"/>
		<path fill="#FFFFFF" d="M128.261,142.671v9.834h-0.892v-9.834h-2.641v-0.899h6.173v0.899H128.261z"/>
		<path fill="#FFFFFF" d="M134.831,148.888h-1.614v3.617h-0.899v-10.733h2.903c0.835,0.113,1.543,0.461,2.124,1.04
			c0.694,0.695,1.041,1.532,1.041,2.514c0,0.986-0.347,1.827-1.041,2.52c-0.481,0.481-0.963,0.781-1.444,0.9l2.442,3.759h-1.097
			L134.831,148.888z M133.217,142.679v5.31h1.614c0.732,0,1.357-0.26,1.876-0.779c0.519-0.519,0.779-1.147,0.779-1.883
			c0-0.732-0.26-1.355-0.779-1.873c-0.519-0.516-1.145-0.775-1.876-0.775H133.217z"/>
		<path fill="#FFFFFF" d="M146.052,141.773h0.899v7.653c-0.113,0.84-0.46,1.55-1.041,2.13c-0.694,0.694-1.532,1.041-2.513,1.041
			c-0.986,0-1.827-0.348-2.52-1.045c-0.694-0.696-1.041-1.532-1.041-2.51v-7.27h0.906v7.27c0,0.727,0.26,1.35,0.779,1.869
			s1.145,0.78,1.876,0.78c0.736,0,1.363-0.261,1.88-0.78c0.516-0.519,0.775-1.142,0.775-1.869L146.052,141.773L146.052,141.773z"/>
		<path fill="#FFFFFF" d="M149.075,141.773h0.892l5.104,8.843v-8.843h0.899v10.733h-0.828l-5.168-8.934v8.934h-0.899V141.773z"/>
		<path fill="#FFFFFF" d="M167.114,151.118c-1.052,1.005-2.289,1.508-3.71,1.508c-1.515,0-2.808-0.535-3.88-1.604
			c-1.071-1.069-1.607-2.364-1.607-3.883c0-1.515,0.536-2.808,1.607-3.88c1.071-1.071,2.365-1.608,3.88-1.608
			c1.421,0,2.695,0.513,3.823,1.537l-0.673,0.615c-0.934-0.831-1.985-1.246-3.15-1.246c-1.26,0-2.338,0.447-3.232,1.342
			c-0.894,0.895-1.341,1.974-1.341,3.239c0,1.27,0.447,2.351,1.341,3.246s1.972,1.341,3.232,1.341c1.086,0,2.022-0.318,2.811-0.956
			v-3.257h0.899V151.118z"/>
		<path fill="#FFFFFF" d="M177.011,142.671v9.834h-0.892v-9.834h-2.641v-0.899h6.173v0.899H177.011z"/>
		<path fill="#FFFFFF" d="M186.157,148.512h-3.391l-1.451,3.993h-0.956l4.106-11.271l4.099,11.271h-0.956L186.157,148.512z
			 M184.841,139.486l1.869,1.841h-1.111l-1.161-0.893l-1.09,0.893h-1.111l1.798-1.841H184.841z M185.832,147.614l-1.366-3.76
			l-1.366,3.76H185.832z"/>
		<path fill="#FFFFFF" d="M191.007,141.773l3.83,6.619l3.816-6.619h1.027l-0.135,0.241v10.492h-0.899v-8.934l-3.809,6.598
			l-3.823-6.598v8.934h-0.892v-10.492l-0.142-0.241H191.007z"/>
		<path fill="#FFFFFF" d="M211.431,152.626c-1.057-0.01-2.117-0.547-3.179-1.614c-1.076-1.072-1.614-2.367-1.614-3.887
			s0.537-2.817,1.611-3.89c1.073-1.073,2.37-1.611,3.89-1.611s2.818,0.538,3.894,1.611s1.614,2.37,1.614,3.89
			s-0.538,2.815-1.614,3.887c-0.774,0.778-1.498,1.238-2.173,1.38l0.892,0.481c0.354,0.189,0.599,0.302,0.736,0.34
			c0.076,0.024,0.149,0.036,0.219,0.036c0.132,0,0.26-0.036,0.382-0.107c0.193-0.109,0.319-0.269,0.375-0.481
			c0.019-0.057,0.033-0.163,0.042-0.318h0.906c-0.014,0.24-0.04,0.427-0.078,0.559c-0.132,0.448-0.401,0.788-0.807,1.019
			c-0.255,0.146-0.524,0.219-0.807,0.219c-0.156,0-0.314-0.024-0.474-0.07c-0.274-0.076-0.656-0.267-1.147-0.574
			c-0.429-0.231-0.732-0.371-0.906-0.417c-0.113-0.028-0.224-0.043-0.333-0.043c-0.189,0-0.37,0.05-0.545,0.149
			c-0.283,0.16-0.467,0.396-0.552,0.708c-0.014,0.042-0.028,0.132-0.042,0.269h-0.899c0.019-0.227,0.045-0.399,0.078-0.516
			c0.151-0.548,0.477-0.963,0.977-1.246L211.431,152.626z M212.139,142.53c-1.265,0-2.346,0.449-3.242,1.346
			c-0.897,0.897-1.345,1.979-1.345,3.249s0.448,2.354,1.345,3.253c0.897,0.9,1.978,1.349,3.242,1.349
			c1.27,0,2.353-0.449,3.249-1.349c0.897-0.899,1.345-1.983,1.345-3.253s-0.448-2.352-1.345-3.249
			C214.492,142.979,213.409,142.53,212.139,142.53z"/>
		<path fill="#FFFFFF" d="M225.81,141.773h0.899v7.653c-0.113,0.84-0.46,1.55-1.041,2.13c-0.694,0.694-1.532,1.041-2.513,1.041
			c-0.986,0-1.827-0.348-2.52-1.045c-0.694-0.696-1.041-1.532-1.041-2.51v-7.27h0.906v7.27c0,0.727,0.26,1.35,0.779,1.869
			c0.519,0.519,1.145,0.78,1.876,0.78c0.736,0,1.363-0.261,1.88-0.78c0.516-0.519,0.775-1.142,0.775-1.869L225.81,141.773
			L225.81,141.773z"/>
		<path fill="#FFFFFF" d="M233.922,148.512h-3.391l-1.452,3.993h-0.955l4.106-11.271l4.099,11.271h-0.955L233.922,148.512z
			 M232.606,139.486l1.869,1.841h-1.112l-1.161-0.893l-1.09,0.893h-1.111l1.797-1.841H232.606z M233.597,147.614l-1.367-3.76
			l-1.367,3.76H233.597z M232.755,153.379c0.146,0.144,0.22,0.317,0.22,0.521c0,0.207-0.074,0.383-0.22,0.527
			s-0.321,0.216-0.524,0.216s-0.378-0.072-0.524-0.216c-0.146-0.143-0.22-0.32-0.22-0.527c0-0.204,0.074-0.377,0.22-0.521
			c0.146-0.143,0.321-0.215,0.524-0.215S232.608,153.236,232.755,153.379z"/>
		<path fill="#FFFFFF" d="M237.745,141.773h0.893l5.104,8.843v-8.843h0.9v10.733h-0.829l-5.168-8.934v8.934h-0.9L237.745,141.773
			L237.745,141.773z"/>
		<path fill="#FFFFFF" d="M256.488,145.616c-1.149,1.289-2.053,2.4-2.711,3.335c-0.659,0.934-1.012,2.119-1.059,3.554h-0.919
			c0.046-1.671,0.423-3,1.129-3.989c0.705-0.989,1.567-2.052,2.584-3.19c1.018-1.137,1.594-2.023,1.731-2.655h-5.437v-0.899h6.457
			C258.228,143.047,257.638,144.329,256.488,145.616z"/>
		<path fill="#FFFFFF" d="M261.625,151.11l-1.353,2.819h-0.85l0.758-2.819H261.625z"/>
		<path fill="#FFFFFF" d="M268.407,152.505v-10.733h0.9v9.834h4.034v0.899H268.407z"/>
		<path fill="#FFFFFF" d="M276.082,141.773v10.733h-0.9v-10.733H276.082z"/>
		<path fill="#FFFFFF" d="M283.868,141.773v0.899h-4.622v4.021h4.622v0.893h-4.622v4.021h4.622v0.899h-5.522v-10.733H283.868z
			 M281.49,139.515l1.869,1.841h-1.111l-1.154-0.893l-1.098,0.893h-1.111l1.798-1.841H281.49z M281.971,138.339l1.338,1.529h-0.948
			l-2.004-1.529H281.971z"/>
		<path fill="#FFFFFF" d="M285.815,141.773h0.892l5.105,8.843v-8.843h0.899v10.733h-0.829l-5.167-8.934v8.934h-0.9V141.773z"/>
		<path fill="#FFFFFF" d="M300.747,147.359v5.146h-0.9v-10.733h0.9v4.127l3.093-4.127h1.139l-3.241,4.353l4.134,6.379h-1.098
			l-3.625-5.649L300.747,147.359z"/>
		<path fill="#FFFFFF" d="M313.085,141.773v0.899h-4.622v4.021h4.622v0.893h-4.622v4.021h4.622v0.899h-5.522v-10.733H313.085z
			 M310.706,139.515l1.869,1.841h-1.111l-1.154-0.893l-1.098,0.893h-1.111l1.798-1.841H310.706z M311.188,138.339l1.338,1.529
			h-0.948l-2.004-1.529H311.188z"/>
		<path fill="#FFFFFF" d="M320.944,148.888v3.617h-0.9v-10.733h2.903c0.835,0.113,1.543,0.461,2.124,1.04
			c0.694,0.695,1.04,1.532,1.04,2.514c0,0.986-0.346,1.827-1.04,2.52s-1.532,1.041-2.513,1.041h-1.614V148.888z M320.944,142.679
			v5.31h1.614c0.731,0,1.356-0.26,1.876-0.779c0.519-0.519,0.779-1.147,0.779-1.883c0-0.732-0.26-1.355-0.779-1.873
			c-0.519-0.516-1.145-0.775-1.876-0.775H320.944z"/>
		<path fill="#FFFFFF" d="M328.463,147.833v4.672h-0.9v-10.733h0.9v5.168h4.049v-5.168h0.899v10.733h-0.899v-4.672H328.463z"/>
		<path fill="#FFFFFF" d="M341.75,141.773h0.899v7.653c-0.113,0.84-0.46,1.55-1.04,2.13c-0.694,0.694-1.532,1.041-2.513,1.041
			c-0.987,0-1.827-0.348-2.52-1.045c-0.695-0.696-1.041-1.532-1.041-2.51v-7.27h0.906v7.27c0,0.727,0.26,1.35,0.779,1.869
			s1.144,0.78,1.877,0.78c0.736,0,1.362-0.261,1.879-0.78c0.516-0.519,0.775-1.142,0.775-1.869v-7.269H341.75z M340.986,139.401
			l-2.003,1.529h-0.942l1.331-1.529H340.986z"/>
		<path fill="#FFFFFF" d="M350.811,141.773l3.83,6.619l3.815-6.619h1.027l-0.134,0.241v10.492h-0.9v-8.934l-3.809,6.598
			l-3.823-6.598v8.934h-0.892v-10.492l-0.142-0.241H350.811z"/>
		<path fill="#FFFFFF" d="M364.596,148.18l-3.695-6.407h1.034l3.115,5.401l3.115-5.401h1.034l-3.703,6.407v4.325h-0.899
			L364.596,148.18L364.596,148.18z M365.29,139.839c0.297,0.242,0.535,0.362,0.715,0.362h0.028c0.137-0.009,0.25-0.194,0.34-0.552
			h0.751c-0.124,0.746-0.385,1.178-0.786,1.295c-0.104,0.034-0.208,0.05-0.311,0.05c-0.288,0-0.571-0.11-0.85-0.333
			c-0.297-0.236-0.533-0.353-0.708-0.353h-0.028c-0.137,0.009-0.25,0.191-0.34,0.545h-0.765c0.127-0.746,0.392-1.177,0.793-1.296
			c0.109-0.028,0.214-0.042,0.318-0.042C364.73,139.515,365.012,139.622,365.29,139.839z"/>
		<path fill="#FFFFFF" d="M376.526,147.833v4.672h-0.9v-10.733h0.9v5.168h4.049v-5.168h0.899v10.733h-0.899v-4.672H376.526z"/>
		<path fill="#FFFFFF" d="M390.711,143.585v5.841c-0.113,0.84-0.46,1.55-1.04,2.13c-0.694,0.694-1.532,1.041-2.513,1.041
			c-0.987,0-1.827-0.348-2.52-1.045c-0.695-0.696-1.041-1.532-1.041-2.51v-7.27h0.906v7.27c0,0.727,0.26,1.35,0.779,1.869
			s1.144,0.78,1.877,0.78c0.736,0,1.362-0.261,1.879-0.78c0.516-0.519,0.775-1.142,0.775-1.869v-7.27h0.899v1.125l0.305-1.133h0.935
			l-0.878,1.82L390.711,143.585L390.711,143.585z"/>
		<path fill="#FFFFFF" d="M392.836,141.773h0.892l5.105,8.843v-8.843h0.899v10.733h-0.829l-5.167-8.934v8.934h-0.9V141.773z"/>
		<path fill="#FFFFFF" d="M410.874,151.118c-1.052,1.005-2.289,1.508-3.71,1.508c-1.515,0-2.808-0.535-3.88-1.604
			c-1.071-1.069-1.607-2.364-1.607-3.883c0-1.515,0.535-2.808,1.607-3.88c1.071-1.071,2.365-1.608,3.88-1.608
			c1.421,0,2.695,0.513,3.823,1.537l-0.672,0.615c-0.934-0.831-1.985-1.246-3.151-1.246c-1.26,0-2.337,0.447-3.232,1.342
			c-0.894,0.895-1.341,1.974-1.341,3.239c0,1.27,0.447,2.351,1.341,3.246c0.895,0.895,1.972,1.341,3.232,1.341
			c1.086,0,2.022-0.318,2.811-0.956v-3.257h0.899V151.118z"/>
	</g>
	<path opacity="0.2" fill="#FFFFFF" enable-background="new    " d="M30.797,172.562h381.801v0.966H30.797V172.562z"/>
</g>
</svg>
