<?xml version="1.0" encoding="utf-8"?>
<!-- Generator: Adobe Illustrator 16.0.0, SVG Export Plug-In . SVG Version: 6.00 Build 0)  -->
<!DOCTYPE svg PUBLIC "-//W3C//DTD SVG 1.1//EN" "http://www.w3.org/Graphics/SVG/1.1/DTD/svg11.dtd">
<svg version="1.1" id="Layer_1" xmlns="http://www.w3.org/2000/svg" xmlns:xlink="http://www.w3.org/1999/xlink" x="0px" y="0px"
	 width="26px" height="16px" viewBox="-3.5 -2 26 16" enable-background="new -3.5 -2 26 16" xml:space="preserve">
<path fill="#00AEEF" d="M19.61,4.315V1.369h-2.474v2.946h-2.892v2.528h2.892v2.95h2.474v-2.95h2.89V4.315H19.61z M12.007,4.315H4.34
	v2.528h4.878c-0.394,2.39-2.425,4.214-4.878,4.214C1.604,11.057-0.61,8.792-0.61,6c0-2.789,2.215-5.054,4.952-5.054
	c1.171,0,2.242,0.418,3.089,1.11L9.79,0.251C8.377-1.139,6.458-2,4.34-2C0.009-2-3.5,1.583-3.5,6c0,4.42,3.509,8,7.84,8
	c4.052,0,7.385-3.137,7.796-7.157h0.046l-0.04-0.077C12.167,6.514,12.184,6.258,12.184,6C12.184,5.421,12.118,4.86,12.007,4.315z"/>
</svg>
