<?xml version="1.0" encoding="utf-8"?>
<!-- Generator: Adobe Illustrator 17.0.0, SVG Export Plug-In . SVG Version: 6.00 Build 0)  -->
<!DOCTYPE svg PUBLIC "-//W3C//DTD SVG 1.1//EN" "http://www.w3.org/Graphics/SVG/1.1/DTD/svg11.dtd">
<svg version="1.1" id="Layer_1" xmlns="http://www.w3.org/2000/svg" xmlns:xlink="http://www.w3.org/1999/xlink" x="0px" y="0px"
	 width="19.994px" height="30px" viewBox="0 0 19.994 30" enable-background="new 0 0 19.994 30" xml:space="preserve">
<linearGradient id="SVGID_1_" gradientUnits="userSpaceOnUse" x1="15.0667" y1="0.3202" x2="0.0667" y2="28.8202">
	<stop  offset="0" style="stop-color:#95BC41"/>
	<stop  offset="1" style="stop-color:#5C9A42"/>
</linearGradient>
<path fill="url(#SVGID_1_)" d="M5.327,8.514v5.509c0,0.096,0.081,0.176,0.177,0.176h3.082v-4.054h2.822v4.054h3.082
	c0.096,0,0.176-0.079,0.176-0.176V8.514l-4.545-4.41c-0.037-0.037-0.078-0.051-0.118-0.051c-0.053,0-0.095,0.014-0.131,0.051
	L5.327,8.514L5.327,8.514z M9.997,30c-2.571-4.426-5.359-9.279-8.557-14.836C-2.561,8.21,2.256,0,9.997,0
	c7.742,0,12.559,8.21,8.557,15.164C15.355,20.721,12.713,25.284,9.997,30L9.997,30z"/>
</svg>
