<?xml version="1.0" encoding="utf-8"?>
<!-- Generator: Adobe Illustrator 17.0.0, SVG Export Plug-In . SVG Version: 6.00 Build 0)  -->
<!DOCTYPE svg PUBLIC "-//W3C//DTD SVG 1.1//EN" "http://www.w3.org/Graphics/SVG/1.1/DTD/svg11.dtd">
<svg version="1.1" id="Layer_1" xmlns="http://www.w3.org/2000/svg" xmlns:xlink="http://www.w3.org/1999/xlink" x="0px" y="0px"
	 width="24px" height="24px" viewBox="0 0 24 24" enable-background="new 0 0 24 24" xml:space="preserve">
<g>
	<g>
		<linearGradient id="SVGID_1_" gradientUnits="userSpaceOnUse" x1="18.3641" y1="0.5242" x2="6.4891" y2="24.2742">
			<stop  offset="0" style="stop-color:#95BC41"/>
			<stop  offset="1" style="stop-color:#5C9A42"/>
		</linearGradient>
		<path fill="url(#SVGID_1_)" d="M9.28,2.499h-9.298v20.009h7.892v-1.787H9.28V2.499z M3.667,19.599H1.205v-2.397h2.461V19.599z
			 M3.667,15.433H1.205v-2.398h2.461V15.433z M3.667,11.283H1.205V8.886h2.461V11.283z M3.667,7.133H1.205V4.736h2.461V7.133z
			 M8.277,19.599H5.815v-2.397h2.461V19.599z M8.277,15.433H5.815v-2.398h2.461V15.433z M8.277,11.283H5.815V8.886h2.461V11.283z
			 M8.277,7.133H5.815V4.736h2.461V7.133z M22.536,21.986V-0.001H10.139v21.987H8.628v2.015h15.393v-2.015H22.536z M18.018,22.715
			h-3.386v-2.751h3.386V22.715z M21.208,18.675H11.207v-1.168h10.001V18.675z M21.208,16.601H11.207v-1.168h10.001V16.601z
			 M21.208,14.526H11.207v-1.169h10.001V14.526z M21.208,12.451H11.207v-1.168h10.001V12.451z M21.208,10.377H11.207V9.208h10.001
			V10.377z M21.208,8.302H11.207V7.133h10.001V8.302z M21.208,6.227H11.207V5.058h10.001V6.227z M21.208,4.152H11.207V2.984h10.001
			V4.152z"/>
	</g>
</g>
</svg>
