<?xml version="1.0" encoding="utf-8"?>
<!-- Generator: Adobe Illustrator 17.0.0, SVG Export Plug-In . SVG Version: 6.00 Build 0)  -->
<!DOCTYPE svg PUBLIC "-//W3C//DTD SVG 1.1//EN" "http://www.w3.org/Graphics/SVG/1.1/DTD/svg11.dtd">
<svg version="1.1" id="Layer_1" xmlns="http://www.w3.org/2000/svg" xmlns:xlink="http://www.w3.org/1999/xlink" x="0px" y="0px"
	 width="48px" height="48px" viewBox="0 0 48 48" enable-background="new 0 0 48 48" xml:space="preserve">
<g>
	<g>
		<path fill="#E35720" d="M32.109,32.435H15.897c-0.495,0-0.898,0.416-0.898,0.919v1.227c0,0.507,0.406,0.919,0.898,0.919h16.205
			c0.495,0,0.898-0.416,0.898-0.919v-1.227C33.01,32.844,32.604,32.435,32.109,32.435z M23.375,30.789
			c0.176,0.18,0.406,0.272,0.633,0.272c0.23,0,0.46-0.091,0.632-0.272l6.14-6.288c0.348-0.357,0.348-0.939,0-1.302l-0.85-0.87
			c-0.348-0.357-0.917-0.357-1.271,0l-3.156,3.236V13.419c0-0.507-0.406-0.919-0.898-0.919h-1.198c-0.495,0-0.898,0.409-0.898,0.919
			v12.148l-3.159-3.236c-0.348-0.357-0.92-0.357-1.271,0l-0.85,0.87c-0.348,0.357-0.348,0.942,0,1.302L23.375,30.789z"/>
	</g>
</g>
</svg>
