<?xml version="1.0" encoding="utf-8"?>
<!-- Generator: Adobe Illustrator 17.0.0, SVG Export Plug-In . SVG Version: 6.00 Build 0)  -->
<!DOCTYPE svg PUBLIC "-//W3C//DTD SVG 1.1//EN" "http://www.w3.org/Graphics/SVG/1.1/DTD/svg11.dtd">
<svg version="1.1" id="Layer_1" xmlns="http://www.w3.org/2000/svg" xmlns:xlink="http://www.w3.org/1999/xlink" x="0px" y="0px"
	 width="24px" height="24px" viewBox="0 0 24 24" enable-background="new 0 0 24 24" xml:space="preserve">
<g>
	<g>
		<linearGradient id="SVGID_1_" gradientUnits="userSpaceOnUse" x1="19.4062" y1="1.6131" x2="6.5312" y2="24.4881">
			<stop  offset="0" style="stop-color:#95BC41"/>
			<stop  offset="1" style="stop-color:#5C9A42"/>
		</linearGradient>
		<path fill="url(#SVGID_1_)" d="M0.994,7.036L4.23,6.724c0.344-0.033,0.6-0.351,0.568-0.706L4.766,5.661l0.269-0.027l0.037,0.408
			c0.032,0.356,0.34,0.619,0.685,0.586l3.236-0.311c0.345-0.033,0.6-0.35,0.568-0.706L9.524,5.203l0.269-0.026l0.041,0.457
			c0.032,0.356,0.34,0.619,0.685,0.587l1.122-0.108l0.839,9.317c0.027,0.314,0.297,0.546,0.601,0.518
			c0.304-0.029,0.529-0.306,0.501-0.621l-0.839-9.321l1.012-0.097c0.344-0.034,0.6-0.351,0.568-0.707l-0.041-0.458l0.269-0.025
			l0.046,0.507c0.032,0.356,0.34,0.619,0.685,0.587l3.236-0.311c0.344-0.034,0.6-0.351,0.568-0.707L19.04,4.287l0.269-0.026
			l0.05,0.558c0.032,0.355,0.34,0.619,0.684,0.587l3.236-0.311c0.344-0.034,0.628-0.356,0.568-0.707
			c-0.464-2.721-9.125-3.546-11.608-3.348l-0.047-0.526c-0.027-0.314-0.297-0.546-0.601-0.518c-0.304,0.029-0.529,0.307-0.501,0.62
			l0.047,0.527C8.056,1.476,0.099,4.106,0.309,6.449C0.341,6.804,0.649,7.069,0.994,7.036z M6.785,17.025l4.225,2.773
			c0.344,0.227,0.763,0.299,1.12,0.168l4.573-2.392l4.81,2.975c0.678,0.181,1.37-0.24,1.546-0.94c0.175-0.7-0.232-1.414-0.91-1.596
			l-5.027-3.033c-0.239-0.089-0.506-0.106-0.77-0.031l0.001,0.003l-4.45,2.315l-3.752-2.462c-0.594-0.39-1.381-0.208-1.758,0.404
			C6.017,15.822,6.192,16.634,6.785,17.025z M22.767,21.313l-6.55-2.303c-0.131-0.012-0.267-0.005-0.402,0.026l-4.341,2.129
			l-9.503-6.203c-0.593-0.39-1.381-0.208-1.758,0.405c-0.377,0.613-0.202,1.425,0.392,1.815L3.083,18.8l-2.564,4.413
			c-0.144,0.249-0.066,0.571,0.175,0.72c0.24,0.149,0.553,0.068,0.696-0.181l2.807-4.285l6.354,4.21v0.001
			c0.297,0.194,0.642,0.246,0.96,0.173l4.699-2.211l6.448,2.297c0.702,0.03,1.295-0.533,1.324-1.258
			C24.014,21.955,23.469,21.343,22.767,21.313z M6.474,13.201c-0.215-0.995-1.17-1.623-2.134-1.401
			c-0.963,0.223-1.571,1.209-1.356,2.204c0.215,0.995,1.17,1.622,2.134,1.401C6.081,15.182,6.688,14.196,6.474,13.201z"/>
	</g>
</g>
</svg>
