<?xml version="1.0" encoding="utf-8"?>
<!-- Generator: Adobe Illustrator 17.0.0, SVG Export Plug-In . SVG Version: 6.00 Build 0)  -->
<!DOCTYPE svg PUBLIC "-//W3C//DTD SVG 1.1//EN" "http://www.w3.org/Graphics/SVG/1.1/DTD/svg11.dtd">
<svg version="1.1" id="Layer_1" xmlns="http://www.w3.org/2000/svg" xmlns:xlink="http://www.w3.org/1999/xlink" x="0px" y="0px"
	 width="48px" height="48px" viewBox="0 0 48 48" enable-background="new 0 0 48 48" xml:space="preserve">
<linearGradient id="SVGID_1_" gradientUnits="userSpaceOnUse" x1="11.3758" y1="0.1824" x2="36.3758" y2="47.3491">
	<stop  offset="0" style="stop-color:#93BB41"/>
	<stop  offset="1" style="stop-color:#5B9943"/>
</linearGradient>
<path fill="url(#SVGID_1_)" d="M24,0c13.3,0,24,10.7,24,24S37.3,48,24,48S0,37.3,0,24S10.7,0,24,0z"/>
<path fill="#FFFFFF" d="M24,4c11,0,20,9,20,20s-9,20-20,20S4,35,4,24S13,4,24,4z"/>
<g>
	<g>
		<polygon fill="#434343" points="31.7,17.9 30.1,16.3 24,22.5 17.9,16.3 16.3,17.9 22.5,24 16.3,30.1 17.9,31.7 24,25.5 30.1,31.7 
			31.7,30.1 25.5,24 		"/>
	</g>
</g>
</svg>
