<?xml version="1.0" encoding="utf-8"?>
<!-- Generator: Adobe Illustrator 16.0.0, SVG Export Plug-In . SVG Version: 6.00 Build 0)  -->
<!DOCTYPE svg PUBLIC "-//W3C//DTD SVG 1.1//EN" "http://www.w3.org/Graphics/SVG/1.1/DTD/svg11.dtd">
<svg version="1.1" id="Layer_1" xmlns="http://www.w3.org/2000/svg" xmlns:xlink="http://www.w3.org/1999/xlink" x="0px" y="0px"
	 width="48px" height="48px" viewBox="0 0 48 48" enable-background="new 0 0 48 48" xml:space="preserve">
<path opacity="0.15" fill-rule="evenodd" clip-rule="evenodd" fill="#FFFFFF" d="M24,0c13.3,0,24,10.7,24,24c0,13.3-10.7,24-24,24
	S0,37.3,0,24C0,10.7,10.7,0,24,0z"/>
<path fill-rule="evenodd" clip-rule="evenodd" fill="#F1592B" d="M24,4c11,0,20,9,20,20c0,11-9,20-20,20S4,35,4,24C4,13,13,4,24,4z"
	/>
<path fill="#FFFFFF" d="M31.1,23l-10.8-7.3c-0.4-0.3-0.9-0.3-1.3-0.1c-0.4,0.2-0.7,0.6-0.7,1.1v14.7c0,0.5,0.3,0.9,0.7,1.1
	c0.2,0.1,0.4,0.1,0.6,0.1c0.3,0,0.5-0.1,0.8-0.2L31.1,25c0.3-0.2,0.5-0.6,0.5-1C31.7,23.6,31.5,23.3,31.1,23L31.1,23z M31.1,23"/>
</svg>
