<?xml version="1.0" encoding="utf-8"?>
<!-- Generator: Adobe Illustrator 17.0.0, SVG Export Plug-In . SVG Version: 6.00 Build 0)  -->
<!DOCTYPE svg PUBLIC "-//W3C//DTD SVG 1.1//EN" "http://www.w3.org/Graphics/SVG/1.1/DTD/svg11.dtd">
<svg version="1.1" id="Layer_1" xmlns="http://www.w3.org/2000/svg" xmlns:xlink="http://www.w3.org/1999/xlink" x="0px" y="0px"
	 width="22px" height="24px" viewBox="0 0 22 24" enable-background="new 0 0 22 24" xml:space="preserve">
<linearGradient id="SVGID_1_" gradientUnits="userSpaceOnUse" x1="16.7103" y1="0.018" x2="5.2103" y2="24.143">
	<stop  offset="0" style="stop-color:#95BC41"/>
	<stop  offset="1" style="stop-color:#5C9A42"/>
</linearGradient>
<path fill="url(#SVGID_1_)" d="M2,13.862h2.485v-1.307H2V1.901h8.262v4.041h1.376V1.901h8.359v10.653h-8.359v-3.73h-1.376v3.73
	H7.664v1.307h5.324v2.897h1.376v-2.897h5.633v8.237h-5.633V19.64h-1.376v2.459H7.971V24h13.027c0.553,0,1.001-0.426,1.001-0.952
	V0.951C21.999,0.425,21.551,0,20.998,0H1C0.447,0-0.001,0.425-0.001,0.951v22.098C-0.001,23.574,0.447,24,1,24h3.179v-1.902H2
	V13.862L2,13.862z M13.729,0.53h4.077v0.842h-4.077V0.53L13.729,0.53z M0.556,8.446V4.573h0.886v3.873H0.556L0.556,8.446z
	 M3.844,0.53H7.92v0.842H3.844V0.53L3.844,0.53z"/>
</svg>
