<?xml version="1.0" encoding="utf-8"?>
<!-- Generator: Adobe Illustrator 16.0.0, SVG Export Plug-In . SVG Version: 6.00 Build 0)  -->
<!DOCTYPE svg PUBLIC "-//W3C//DTD SVG 1.1//EN" "http://www.w3.org/Graphics/SVG/1.1/DTD/svg11.dtd">
<svg version="1.1" id="Layer_1" xmlns="http://www.w3.org/2000/svg" xmlns:xlink="http://www.w3.org/1999/xlink" x="0px" y="0px"
	 width="20px" height="20px" viewBox="0 0 20 20" enable-background="new 0 0 20 20" xml:space="preserve">
<path fill="#00aeef" d="M18.206,0H1.792C1.183,0,0,1.183,0,1.793v16.414C0,18.816,1.183,20,1.792,20h8.548v-7.594H7.584V9.661h2.756
	V7.549c0-2.583,1.955-4.116,4.26-4.116c1.104,0,1.686,0.118,1.962,0.154v2.616l-1.955-0.001c-1.253,0-1.487,0.621-1.487,1.496v1.963
	h3.48l-0.455,2.745H13.12V20h5.086C18.817,20,20,18.816,20,18.207V1.793C20,1.183,18.817,0,18.206,0z"/>
</svg>
