<?xml version="1.0" encoding="utf-8"?>
<!-- Generator: Adobe Illustrator 17.0.0, SVG Export Plug-In . SVG Version: 6.00 Build 0)  -->
<!DOCTYPE svg PUBLIC "-//W3C//DTD SVG 1.1//EN" "http://www.w3.org/Graphics/SVG/1.1/DTD/svg11.dtd">
<svg version="1.1" id="Layer_1" xmlns="http://www.w3.org/2000/svg" xmlns:xlink="http://www.w3.org/1999/xlink" x="0px" y="0px"
	 width="80px" height="80px" viewBox="0 0 80 80" enable-background="new 0 0 80 80" xml:space="preserve">
<g opacity="0.4">
	<path fill="#FFFFFF" d="M40,0.11c2.796,0,5.522,0.53,8.101,1.576c2.671,1.083,5.067,2.674,7.122,4.729l18.361,18.361
		c2.055,2.055,3.646,4.451,4.729,7.122c1.046,2.58,1.576,5.305,1.576,8.101s-0.53,5.522-1.576,8.102
		c-1.083,2.671-2.674,5.067-4.729,7.122L55.223,73.585c-2.055,2.055-4.451,3.646-7.122,4.729C45.522,79.36,42.796,79.89,40,79.89
		s-5.522-0.53-8.102-1.576c-2.671-1.083-5.067-2.674-7.122-4.729L6.415,55.224c-2.055-2.055-3.646-4.451-4.729-7.122
		C0.64,45.522,0.11,42.796,0.11,40s0.53-5.522,1.576-8.101c1.083-2.671,2.674-5.067,4.729-7.122L24.777,6.415
		c2.055-2.055,4.451-3.646,7.122-4.729C34.478,0.64,37.204,0.11,40,0.11 M40,0c-5.538,0-11.076,2.113-15.301,6.338L6.338,24.699
		c-8.451,8.45-8.451,22.151,0,30.602l18.361,18.361C28.924,77.887,34.462,80,40,80s11.076-2.113,15.301-6.338l18.361-18.361
		c8.451-8.451,8.451-22.152,0-30.602L55.301,6.338C51.076,2.113,45.538,0,40,0L40,0z"/>
</g>
<linearGradient id="SVGID_1_" gradientUnits="userSpaceOnUse" x1="30.3714" y1="-72.7022" x2="59.1371" y2="-140.0961" gradientTransform="matrix(1 0 0 -1 -4.84 -66.6)">
	<stop  offset="0" style="stop-color:#60A445"/>
	<stop  offset="1" style="stop-color:#488B2D"/>
</linearGradient>
<path fill="url(#SVGID_1_)" d="M53.205,10.949l15.846,15.846c7.293,7.293,7.293,19.117,0,26.41L53.205,69.051
	c-7.293,7.293-19.117,7.293-26.41,0L10.949,53.205c-7.293-7.293-7.293-19.117,0-26.41l15.846-15.846
	C34.088,3.656,45.912,3.656,53.205,10.949z"/>
<path fill="#FFFFFF" d="M51.444,14.822l13.733,13.733c6.32,6.32,6.32,16.568,0,22.889L51.444,65.177
	c-6.32,6.321-16.568,6.321-22.888,0L14.823,51.444c-6.32-6.321-6.32-16.568,0-22.889l13.733-13.733
	C34.876,8.502,45.124,8.502,51.444,14.822z"/>
<linearGradient id="SVGID_2_" gradientUnits="userSpaceOnUse" x1="34.3029" y1="-80.7431" x2="55.6716" y2="-133.1788" gradientTransform="matrix(1 0 0 -1 -4.84 -66.6)">
	<stop  offset="0" style="stop-color:#60A445"/>
	<stop  offset="1" style="stop-color:#488B2D"/>
</linearGradient>
<path fill="url(#SVGID_2_)" d="M50.396,17.128l12.475,12.475c5.742,5.742,5.742,15.051,0,20.793L50.396,62.872
	c-5.742,5.742-15.051,5.742-20.792,0L17.129,50.396c-5.742-5.742-5.742-15.051,0-20.793l12.475-12.475
	C35.346,11.386,44.654,11.386,50.396,17.128z"/>
<path fill="#FFFFFF" d="M28.659,48.159C28.252,48.566,28,49.129,28,49.75c0,1.243,1.007,2.25,2.25,2.25
	c0.621,0,1.184-0.252,1.591-0.659l0,0l6.594-6.594C39.775,45.538,41.332,46,43,46c4.971,0,9-4.029,9-9s-4.029-9-9-9s-9,4.029-9,9
	c0,1.668,0.462,3.225,1.253,4.565L28.659,48.159L28.659,48.159z M43,30.25c3.728,0,6.75,3.022,6.75,6.75s-3.022,6.75-6.75,6.75
	s-6.75-3.022-6.75-6.75S39.272,30.25,43,30.25z"/>
</svg>
