<?xml version="1.0" encoding="utf-8"?>
<!-- Generator: Adobe Illustrator 17.0.0, SVG Export Plug-In . SVG Version: 6.00 Build 0)  -->
<!DOCTYPE svg PUBLIC "-//W3C//DTD SVG 1.1//EN" "http://www.w3.org/Graphics/SVG/1.1/DTD/svg11.dtd">
<svg version="1.1" id="Layer_1" xmlns="http://www.w3.org/2000/svg" xmlns:xlink="http://www.w3.org/1999/xlink" x="0px" y="0px"
	 width="350px" height="66px" viewBox="0 0 350 66" enable-background="new 0 0 350 66" xml:space="preserve">
<path fill-rule="evenodd" clip-rule="evenodd" fill="#EDEDED" d="M0,65h350v1H0V65z"/>
<g>
	<path fill="#5C9A42" d="M0,26.742h2.606l4.939,13.585l4.951-13.585h2.617l-6.905,18.95H6.881L0,26.742z"/>
	<path fill="#5C9A42" d="M20.17,45.692h-2.452v-18.95h2.452V45.692z"/>
	<path fill="#5C9A42" d="M34.18,29.206h-7.758v5.768h7.758v2.463h-7.758v5.791h7.758v2.463H23.971v-18.95H34.18V29.206z"/>
	<path fill="#5C9A42" d="M44.413,26.742h2.452v15.408c0.095,0.142,0.229,0.308,0.403,0.497c0.513,0.49,1.121,0.734,1.824,0.734
		c0.703,0,1.311-0.249,1.824-0.746c0.513-0.513,0.77-1.117,0.77-1.812V26.742h2.452v14.177c-0.039,1.342-0.533,2.487-1.479,3.435
		c-0.986,0.995-2.178,1.492-3.574,1.492c-1.389,0-2.537-0.49-3.444-1.469c-0.908,0.979-2.06,1.469-3.456,1.469
		s-2.584-0.497-3.562-1.492c-0.962-0.947-1.456-2.092-1.479-3.435V26.742h2.452v14.082c0,0.695,0.257,1.299,0.77,1.812
		c0.505,0.497,1.113,0.746,1.824,0.746c0.703,0,1.311-0.245,1.824-0.734c0.189-0.189,0.324-0.355,0.403-0.497V26.742z"/>
	<path fill="#FFFFFF" d="M92.024,12.619c0-2.369-0.849-4.401-2.546-6.099c-1.678-1.677-3.711-2.517-6.099-2.517
		c-2.369,0-4.392,0.839-6.07,2.517c-1.441,1.441-2.339,3.928-2.694,7.461l-6.129-2.221c0.612-4.086,2.082-7.303,4.412-9.652
		c2.902-2.921,6.396-4.382,10.482-4.382c4.125,0,7.629,1.451,10.511,4.352c2.902,2.902,4.352,6.415,4.352,10.541
		c0,4.086-1.401,7.629-4.204,10.63c-1.757,1.895-3.829,3.741-6.218,5.537c-1.184,0.888-2.428,1.821-3.731,2.798
		s-2.675,2.008-4.116,3.094c-2.527,1.875-3.938,3.494-4.234,4.856h22.503v6.159H68.544c1.086-7.54,3.247-12.515,6.484-14.923
		c1.619-1.204,3.109-2.319,4.471-3.346c1.362-1.026,2.615-1.964,3.76-2.813c1.145-0.848,2.221-1.727,3.227-2.635
		c1.007-0.908,1.954-1.855,2.842-2.842C91.126,17.198,92.024,15.027,92.024,12.619z"/>
	<path fill="#5C9A42" d="M121.87,37.366l6.123-10.624h2.238v18.95h-2.452V32.001l-5.91,10.233l-5.934-10.233v13.691h-2.452v-18.95
		h2.238L121.87,37.366z"/>
	<path fill="#5C9A42" d="M148.293,45.692h-2.606l-2.44-6.703h-5.022l-2.428,6.703h-2.617l6.893-18.95h1.326L148.293,45.692z
		 M139.991,23.106c0.205,0.205,0.454,0.308,0.746,0.308c0.284,0,0.529-0.107,0.734-0.32c0.111-0.103,0.209-0.403,0.296-0.9h2.25
		c-0.182,0.987-0.497,1.705-0.947,2.156c-0.64,0.647-1.417,0.971-2.333,0.971c-0.924,0-1.705-0.324-2.345-0.971
		c-0.505-0.497-0.821-1.216-0.947-2.156h2.238C139.762,22.684,139.864,22.988,139.991,23.106z M140.737,32.084l-1.611,4.441h3.233
		L140.737,32.084z M142.3,48.285c0,0.45-0.154,0.821-0.462,1.113c-0.316,0.3-0.683,0.45-1.101,0.45c-0.426,0-0.797-0.15-1.113-0.45
		c-0.308-0.292-0.462-0.663-0.462-1.113c0-0.442,0.154-0.813,0.462-1.113c0.316-0.3,0.687-0.45,1.113-0.45
		c0.418,0,0.786,0.15,1.101,0.45C142.146,47.472,142.3,47.843,142.3,48.285z"/>
	<path fill="#5C9A42" d="M156.346,45.692h-2.452V29.206h-4.418v-2.463h11.287v2.463h-4.418V45.692z"/>
	<path fill="#5C9A42" d="M176.35,35.968c-1.342-0.45-2.432-1.09-3.269-1.919c-0.829-0.837-1.244-1.871-1.244-3.103
		c0-1.216,0.43-2.254,1.291-3.115c0.869-0.869,1.919-1.303,3.15-1.303c1.224,0,2.266,0.43,3.127,1.291
		c0.49,0.474,0.9,1.228,1.232,2.262l-2.227,0.876c-0.276-0.734-0.521-1.208-0.734-1.421c-0.395-0.379-0.861-0.568-1.398-0.568
		c-0.553,0-1.022,0.193-1.409,0.58c-0.387,0.379-0.58,0.845-0.58,1.398s0.193,1.022,0.581,1.409
		c0.442,0.434,1.043,0.825,1.803,1.173c1.494,0.49,2.756,1.248,3.783,2.274c1.163,1.153,1.744,2.542,1.744,4.169
		c0,1.634-0.583,3.032-1.75,4.193c-1.155,1.153-2.545,1.729-4.172,1.729c-1.642,0-3.036-0.58-4.181-1.741
		c-0.916-0.916-1.5-2.191-1.753-3.825l2.381-0.865c0.158,1.405,0.525,2.396,1.101,2.973c0.679,0.679,1.496,1.019,2.452,1.019
		c0.955,0,1.773-0.34,2.452-1.019c0.679-0.679,1.019-1.5,1.019-2.463c0-0.955-0.34-1.773-1.019-2.452
		C178.091,36.88,177.298,36.363,176.35,35.968z"/>
	<path fill="#5C9A42" d="M203.673,36.193c0,2.677-0.947,4.962-2.842,6.857c-1.895,1.895-4.181,2.842-6.857,2.842
		c-2.677,0-4.962-0.947-6.857-2.842c-1.895-1.895-2.842-4.181-2.842-6.857c0-2.677,0.947-4.962,2.842-6.857
		c1.895-1.895,4.181-2.842,6.857-2.842c2.677,0,4.962,0.947,6.857,2.842C202.726,31.231,203.673,33.517,203.673,36.193z
		 M193.973,28.957c-1.998,0-3.703,0.707-5.116,2.122c-1.405,1.406-2.108,3.109-2.108,5.109c0,2,0.707,3.706,2.12,5.12
		c1.413,1.415,3.115,2.122,5.105,2.122c1.99,0,3.691-0.707,5.105-2.122c1.413-1.414,2.12-3.121,2.12-5.12
		c0-1.992-0.707-3.694-2.12-5.109C197.665,29.663,195.963,28.957,193.973,28.957z M193.95,24.006l-1.054,0.971h-2.594l2.76-2.819
		h1.741l2.854,2.819h-2.617L193.95,24.006z"/>
	<path fill="#5C9A42" d="M209.18,26.742l7.817,13.525V26.742h2.452v18.95h-2.141l-7.914-13.691v13.691h-2.452v-18.95H209.18z"/>
	<path fill="#5C9A42" d="M232.394,45.893c-2.677,0-4.958-0.944-6.846-2.831s-2.831-4.169-2.831-6.846
		c0-2.661,0.944-4.943,2.831-6.846c1.879-1.895,4.161-2.842,6.846-2.842c2.511,0,4.883,1.022,7.118,3.067l-1.836,1.67
		c-1.69-1.5-3.45-2.25-5.282-2.25c-1.99,0-3.687,0.703-5.093,2.108c-1.405,1.405-2.108,3.103-2.108,5.093
		c0,1.998,0.703,3.699,2.108,5.105c1.405,1.405,3.103,2.108,5.093,2.108c1.698,0,3.111-0.45,4.24-1.35v-5.72h2.452v6.739
		C237.127,44.961,234.897,45.893,232.394,45.893z"/>
	<path fill="#5C9A42" d="M255.974,35.968c-1.342-0.45-2.432-1.09-3.269-1.919c-0.829-0.837-1.244-1.871-1.244-3.103
		c0-1.216,0.43-2.254,1.291-3.115c0.869-0.869,1.919-1.303,3.15-1.303c1.224,0,2.266,0.43,3.127,1.291
		c0.49,0.474,0.9,1.228,1.232,2.262l-2.227,0.876c-0.276-0.734-0.521-1.208-0.734-1.421c-0.395-0.379-0.861-0.568-1.398-0.568
		c-0.553,0-1.022,0.193-1.409,0.58c-0.387,0.379-0.58,0.845-0.58,1.398s0.193,1.022,0.581,1.409
		c0.442,0.434,1.043,0.825,1.803,1.173c1.494,0.49,2.756,1.248,3.783,2.274c1.163,1.153,1.744,2.542,1.744,4.169
		c0,1.634-0.583,3.032-1.75,4.193c-1.155,1.153-2.545,1.729-4.172,1.729c-1.642,0-3.036-0.58-4.181-1.741
		c-0.916-0.916-1.5-2.191-1.753-3.825l2.381-0.865c0.158,1.405,0.525,2.396,1.101,2.973c0.679,0.679,1.496,1.019,2.452,1.019
		c0.955,0,1.773-0.34,2.452-1.019c0.679-0.679,1.019-1.5,1.019-2.463c0-0.955-0.34-1.773-1.019-2.452
		C257.715,36.88,256.922,36.363,255.974,35.968z"/>
	<path fill="#5C9A42" d="M278.122,45.692h-2.606l-2.44-6.703h-5.022l-2.428,6.703h-2.617l6.893-18.95h1.326L278.122,45.692z
		 M270.08,25.57l-3.221-3.304h2.985l2.57,3.304H270.08z M270.565,32.084l-1.611,4.441h3.233L270.565,32.084z"/>
	<path fill="#5C9A42" d="M283.179,45.692h-2.452v-18.95h2.452V45.692z"/>
	<path fill="#5C9A42" d="M304.746,45.893c-2.677,0-4.958-0.944-6.846-2.831c-1.887-1.887-2.831-4.169-2.831-6.846
		c0-2.661,0.944-4.943,2.831-6.846c1.879-1.895,4.161-2.842,6.846-2.842c2.511,0,4.883,1.022,7.118,3.067l-1.836,1.67
		c-1.69-1.5-3.45-2.25-5.282-2.25c-1.99,0-3.687,0.703-5.093,2.108c-1.405,1.405-2.108,3.103-2.108,5.093
		c0,1.998,0.703,3.699,2.108,5.105c1.405,1.405,3.103,2.108,5.093,2.108c1.698,0,3.111-0.45,4.24-1.35v-5.72h2.452v6.739
		C309.479,44.961,307.249,45.893,304.746,45.893z"/>
	<path fill="#5C9A42" d="M334.224,36.193c0,2.677-0.947,4.962-2.842,6.857c-1.895,1.895-4.181,2.842-6.857,2.842
		s-4.962-0.947-6.857-2.842c-1.895-1.895-2.842-4.181-2.842-6.857c0-2.677,0.947-4.962,2.842-6.857
		c1.895-1.895,4.181-2.842,6.857-2.842s4.962,0.947,6.857,2.842C333.277,31.231,334.224,33.517,334.224,36.193z M324.525,28.957
		c-1.998,0-3.703,0.707-5.116,2.122c-1.405,1.406-2.108,3.109-2.108,5.109c0,2,0.707,3.706,2.12,5.12
		c1.413,1.415,3.115,2.122,5.105,2.122s3.691-0.707,5.105-2.122c1.413-1.414,2.12-3.121,2.12-5.12c0-1.992-0.707-3.694-2.12-5.109
		C328.216,29.663,326.514,28.957,324.525,28.957z M323.767,25.57l-3.221-3.304h2.985l2.57,3.304H323.767z"/>
	<path fill="#5C9A42" d="M339.732,26.742l7.817,13.525V26.742H350v18.95h-2.141l-7.914-13.691v13.691h-2.452v-18.95H339.732z"/>
</g>
<g>
	<path fill="#8CB73F" d="M61.754,65c-0.299,0-0.584-0.108-0.856-0.326c-0.218-0.217-0.326-0.502-0.326-0.856
		c0-0.433,0.556-1.154,1.67-2.159l4.603-3.992c1.874-1.63,3.449-3.055,4.726-4.278c1.792-1.602,3.381-3.096,4.766-4.481
		c1.602-1.737,3.082-3.381,4.44-4.929c3.041-3.666,5.377-7.278,7.006-10.836c1.82-4.128,2.731-8.243,2.731-12.344
		c0-3.123-0.38-5.798-1.141-8.025c-0.733-2.01-1.738-3.626-3.015-4.848c-1.059-1.059-2.281-1.86-3.666-2.404
		c-1.168-0.407-2.363-0.611-3.585-0.611c-3.748,0-6.695,1.005-8.84,3.015c-2.336,2.227-3.504,4.903-3.504,8.025
		c0,1.059-0.367,1.589-1.1,1.589c-0.381,0-0.638-0.53-0.774-1.589c-0.055-0.515-0.136-1.996-0.244-4.44
		c-0.109-1.167-0.163-2.227-0.163-3.178l-0.081-2.485c0-0.678,0.339-1.236,1.018-1.67c1.874-0.951,3.87-1.697,5.989-2.241
		C74.098,1.312,77.126,1,80.494,1c6.953,0,12.304,1.752,16.051,5.255c3.286,3.123,4.928,7.292,4.928,12.507
		c0,3.803-1.005,7.7-3.015,11.692c-1.684,3.449-4.128,6.981-7.333,10.592c-1.358,1.575-2.864,3.164-4.521,4.766
		c-1.494,1.44-3.111,2.92-4.848,4.44c-1.385,1.222-2.933,2.526-4.644,3.911l-3.87,3.096c-0.218,0.218-0.381,0.353-0.489,0.407
		c-0.218,0.163-0.299,0.3-0.244,0.407c0.054,0.109,0.19,0.163,0.407,0.163l12.262-0.081c3.829-0.108,6.424-0.244,7.782-0.407
		c5.215-0.625,8.377-3.096,9.491-7.414c0.217-0.896,0.558-1.344,1.02-1.344c0.272,0,0.462,0.163,0.57,0.489
		c0.054,0.218,0.081,0.585,0.081,1.1c0,0.652-0.299,2.459-0.896,5.418c-0.57,2.879-1.074,5.052-1.508,6.518
		C101.202,64.172,98.772,65,94.427,65H61.754z"/>
</g>
<path fill-rule="evenodd" clip-rule="evenodd" fill="#EDEDED" d="M0,0h350v1H0V0z"/>
</svg>
