<?xml version="1.0" encoding="utf-8"?>
<!-- Generator: Adobe Illustrator 17.0.0, SVG Export Plug-In . SVG Version: 6.00 Build 0)  -->
<!DOCTYPE svg PUBLIC "-//W3C//DTD SVG 1.1//EN" "http://www.w3.org/Graphics/SVG/1.1/DTD/svg11.dtd">
<svg version="1.1" id="Layer_1" xmlns="http://www.w3.org/2000/svg" xmlns:xlink="http://www.w3.org/1999/xlink" x="0px" y="0px"
	 width="832px" height="300px" viewBox="0 0 832 300" enable-background="new 0 0 832 300" xml:space="preserve">
<path opacity="0.4" fill="none" stroke="#FFFFFF" stroke-miterlimit="10" enable-background="new    " d="M575.62-200.578
	L766.576-9.619c87.885,87.886,87.885,230.377,0,318.262L575.62,499.601c-87.885,87.885-230.375,87.885-318.26,0L66.403,308.643
	c-87.885-87.886-87.885-230.377,0-318.262L257.36-200.578C345.245-288.463,487.735-288.463,575.62-200.578z"/>
<path fill="#428228" d="M561.097-169.215L735.213,4.902c80.134,80.135,80.134,210.06,0,290.196L561.097,469.215
	c-80.135,80.135-210.059,80.135-290.193,0L96.788,295.098c-80.135-80.135-80.135-210.061,0-290.196l174.116-174.117
	C351.038-249.35,480.962-249.35,561.097-169.215z"/>
<linearGradient id="SVGID_1_" gradientUnits="userSpaceOnUse" x1="301.3163" y1="276.2881" x2="550.3039" y2="-292.1834" gradientTransform="matrix(1 0 0 -1 -4.84 153.4)">
	<stop  offset="0" style="stop-color:#60A445"/>
	<stop  offset="1" style="stop-color:#488B2D"/>
</linearGradient>
<path fill="url(#SVGID_1_)" d="M547.887-140.171L706.152,18.104c72.839,72.845,72.839,190.948,0,263.792L547.887,440.171
	c-72.839,72.844-190.935,72.844-263.775,0L125.848,281.896c-72.839-72.844-72.839-190.948,0-263.792l158.265-158.275
	C356.952-213.015,475.048-213.015,547.887-140.171z"/>
<path fill="#FFFFFF" d="M535.81-113.598l143.771,143.78c66.169,66.174,66.169,173.462,0,239.635L535.81,413.598
	c-66.169,66.173-173.45,66.173-239.619,0L152.419,269.817c-66.169-66.174-66.169-173.462,0-239.635l143.771-143.78
	C362.359-179.772,469.641-179.772,535.81-113.598z"/>
<g>
	<g>
		<path fill="#F8FAF7" d="M343.045-74.38c-0.116-0.312-0.256-0.601-0.366-0.918c-1.642-5.741-2.254-12.224-3.569-18.485
			c-5.587-24.941-8.196-50.82-8.196-50.82s13.867,22.342,24.847,45.592c2.827,5.787,6.357,11.353,8.596,16.907
			c0.102,0.302,0.165,0.601,0.26,0.9c17.425-14.495,43.942-51.347-47.128-102.043C275.749-90.643,320.065-76.12,343.045-74.38z
			 M544.689-21.487C449.642-71.316,429.783-29.4,425.68-7.108c0.345-0.08,0.672-0.19,1.02-0.27
			c6.304-1.044,13.301-1.013,20.132-1.685c27.238-3.033,55.187-3.066,55.187-3.066S476.757-0.745,450.805,7.725
			c-6.469,2.198-12.77,5.109-18.933,6.757c-0.334,0.07-0.657,0.102-0.992,0.165C444.698,33.095,481.56,62.609,544.689-21.487z
			 M237.225,1.483c0.334,0.201,0.672,0.362,1.002,0.57c5.703,3.998,11.037,9.348,16.827,14.031
			c23.395,18.411,44.829,39.664,44.829,39.664s-28.834-10.511-55.774-23.78c-6.79-3.238-14.039-5.804-20.136-9.231
			c-0.313-0.201-0.591-0.426-0.897-0.63c-4.789,24.649-1.15,75.314,117.293,58.956C309.088-29.458,258.947-12.471,237.225,1.483z
			 M348.549,85.942c-17.116,96.198,28.033,100.178,50.057,96.796c-0.183-0.267-0.383-0.506-0.566-0.781
			c-2.915-5.041-5.038-11.004-7.77-16.605c-11.216-22.233-19.858-46-19.858-46s18.385,17.984,34.267,37.45
			c4.04,4.823,8.691,9.285,12.127,14.021c0.165,0.26,0.299,0.528,0.461,0.791C430.187,154.176,446.311,113.731,348.549,85.942z
			 M454.17,144.69c0.235-0.151,0.45-0.316,0.693-0.464c4.465-2.398,9.757-4.162,14.721-6.416
			c19.714-9.247,40.799-16.412,40.799-16.412s-15.882,15.044-33.103,28.07c-4.268,3.312-8.21,7.116-12.397,9.935
			c-0.232,0.138-0.471,0.246-0.703,0.38c15.59,10.393,51.664,23.25,75.79-56.35C454.296,90.108,451.03,126.817,454.17,144.69z
			 M586.705-54.167C533.4,4.482,562.382,25.05,578.826,31.466c-0.011-0.256-0.042-0.499-0.046-0.756
			c0.197-4.585,1.336-9.479,1.902-14.368c2.004-19.558,6.42-39.137,6.42-39.137s4.715,19.498,7.085,39.021
			c0.658,4.88,1.888,9.756,2.173,14.333c0,0.243-0.025,0.478-0.028,0.721C612.671,24.533,641.154,3.407,586.705-54.167z
			 M389.225-7.873c0.01,0.253,0.042,0.496,0.046,0.753c-0.197,4.584-1.336,9.478-1.906,14.368
			c-2.001,19.558-6.417,39.137-6.417,39.137s-4.715-19.502-7.085-39.022c-0.657-4.879-1.888-9.756-2.173-14.333
			c0-0.244,0.025-0.479,0.028-0.721c-16.339,6.747-44.822,27.873,9.627,85.446C434.651,19.107,405.669-1.46,389.225-7.873z
			 M493.042-136.848c0.179-0.186,0.373-0.344,0.556-0.524c-17.306-5.892-54.371-9.095-55.64,70.997
			c83.434-8.441,76.69-43.464,68.997-59.363c-0.183,0.197-0.338,0.401-0.524,0.602c-3.523,3.325-7.985,6.254-12.014,9.566
			c-15.913,13.423-33.662,25.24-33.662,25.24s10.794-17.895,23.378-34.234C487.226-128.692,489.888-133.199,493.042-136.848z
			 M400.077-94.202c-46.618,47.195-23.174,65.322-9.679,71.222c0.003-0.215-0.018-0.419-0.011-0.633
			c0.334-3.819,1.459-7.868,2.11-11.93c2.38-16.264,6.775-32.461,6.775-32.461s3.231,16.436,4.5,32.809
			c0.376,4.095,1.224,8.206,1.297,12.038c-0.007,0.204-0.039,0.397-0.049,0.601C418.902-27.649,443.443-44.341,400.077-94.202z
			 M357.261-47.24c0.207-0.049,0.411-0.078,0.619-0.12c-8.969-11.335-32.561-29.239-70.65,24.413
			c60.376,29.712,72.095,3.154,74.278-10.87c-0.214,0.056-0.415,0.13-0.629,0.182c-3.931,0.757-8.315,0.844-12.58,1.372
			c-17.007,2.327-34.509,2.784-34.509,2.784s15.625-7.523,31.732-13.233C349.536-44.192,353.432-46.112,357.261-47.24z
			 M262.996,105.734c25.814,60.036,52.75,47.073,63.931,37.749c-0.204-0.087-0.408-0.159-0.608-0.25
			c-3.505-1.863-6.902-4.51-10.509-6.75c-14.524-8.768-28.163-19.263-28.163-19.263s17.003,3.952,33.142,9.584
			c4.057,1.361,8.326,2.314,12.011,3.825c0.19,0.091,0.362,0.2,0.548,0.292C334.208,116.735,328.393,88.486,262.996,105.734z
			 M432.231,93.038c0.833-15.42,3.558-30.945,3.558-30.945s4.437,15.145,7.036,30.389c0.703,3.808,1.853,7.59,2.25,11.176
			c0.007,0.194-0.003,0.376,0.003,0.567c12.57-5.862,34.133-23.43-10.787-66.744c-39.628,47.881-16.1,63.024-2.95,67.491
			c-0.018-0.196-0.053-0.389-0.063-0.589C431.26,100.78,431.967,96.898,432.231,93.038z M552.992,87.501
			c12.577-7.661,33.198-28.762-19.869-69.457c-35.923,55.303-9.082,68.627,5.414,71.841c-0.042-0.211-0.105-0.408-0.144-0.618
			c-0.471-3.814-0.215-8.009-0.425-12.13c-1.069-16.432-0.144-33.192-0.144-33.192s6.617,15.533,11.297,31.378
			c1.227,3.955,2.925,7.829,3.797,11.581C552.953,87.104,552.964,87.301,552.992,87.501z M572.982-61.869
			c-0.207,0.013-0.404,0.046-0.612,0.056c-3.737-0.035-7.756-0.763-11.754-1.065c-15.984-1.009-32.044-3.811-32.044-3.811
			s15.773-3.99,31.616-6.234c3.962-0.611,7.9-1.645,11.624-1.972c0.2-0.006,0.39,0.007,0.587,0.005
			c-5.9-11.993-23.81-32.669-69.373,9.27C552.122-27.401,568.162-49.472,572.982-61.869z M527.256-139.078
			c0.186,0.057,0.373,0.098,0.559,0.162c3.259,1.301,6.505,3.305,9.891,4.929c13.617,6.321,26.634,14.242,26.634,14.242
			s-15.294-1.877-30.002-5.302c-3.692-0.812-7.528-1.248-10.91-2.229c-0.176-0.064-0.338-0.141-0.513-0.204
			c0.7,12.505,8.681,36.701,64.188,15.491C558.358-162.155,536.095-148.289,527.256-139.078z M437.379-175.556
			c17.119-2.271,34.727-2.658,34.727-2.658s-15.752,7.503-31.981,13.18c-4.043,1.474-7.971,3.39-11.828,4.511
			c-0.207,0.045-0.415,0.071-0.622,0.116c8.973,11.44,32.621,29.546,71.177-24.27c-60.601-30.137-72.506-3.47-74.767,10.632
			c0.214-0.056,0.418-0.13,0.636-0.183C428.677-174.969,433.086-175.043,437.379-175.556z M410.051-163.801
			c-0.183-0.059-0.366-0.105-0.549-0.172c-3.2-1.361-6.371-3.417-9.69-5.102c-13.347-6.564-26.06-14.699-26.06-14.699
			s15.115,2.193,29.615,5.91c3.639,0.885,7.433,1.398,10.759,2.446c0.176,0.067,0.334,0.144,0.506,0.214
			c-0.394-12.414-7.728-36.571-63.259-16.756C378.668-141.602,401.071-154.86,410.051-163.801z M412.893-150.936
			c0.039,0.151,0.091,0.292,0.127,0.443c0.475,2.745,0.432,5.791,0.731,8.764c1.347,11.859,1.262,24.021,1.262,24.021
			s-5.33-11.033-9.272-22.354c-1.027-2.819-2.387-5.568-3.15-8.259c-0.032-0.144-0.049-0.288-0.077-0.433
			c-8.836,5.945-23.019,21.876,16.803,49.639C443.387-140.282,423.498-149.071,412.893-150.936z M285.397-94.258
			c0.004,2.96-0.591,6.149-0.816,9.317c-0.728,12.667-3.01,25.415-3.01,25.415s-3.604-12.457-5.696-24.983
			c-0.566-3.132-1.501-6.244-1.818-9.19c-0.007-0.155,0.004-0.31,0-0.465c-10.344,4.782-28.107,19.161,8.677,54.86
			c32.688-39.236,13.399-51.738,2.609-55.443C285.358-94.582,285.386-94.424,285.397-94.258z M253.828-53.06
			c-0.102,0.145-0.183,0.289-0.285,0.433c-1.98,2.443-4.602,4.711-6.909,7.19c-9.078,10.006-19.496,19.122-19.496,19.122
			s5.365-12.477,12.028-24.094c1.628-2.925,2.939-6.065,4.648-8.688c0.102-0.133,0.211-0.253,0.313-0.383
			c-11.736-2.38-36.014-1.381-29.566,50.56C267.793-21.299,260.248-43.406,253.828-53.06z M477.103,47.523
			c-0.046-0.119-0.077-0.243-0.12-0.362c-6.867,6.135-17.095,21.488,20.706,40.85c15.579-38.234-2.665-43.532-12.035-43.922
			c0.053,0.123,0.112,0.242,0.162,0.37c0.756,2.309,1.101,4.94,1.73,7.467c2.648,10.066,4.1,20.553,4.1,20.553
			s-5.977-8.895-10.791-18.198C479.617,51.967,478.098,49.752,477.103,47.523z M258.097-111.814
			c1.385-2.028,3.287-3.959,4.926-6.029c6.438-8.36,13.976-16.109,13.976-16.109s-3.372,10.069-7.816,19.54
			c-1.079,2.388-1.899,4.915-3.062,7.066c-0.067,0.113-0.148,0.211-0.214,0.32c9.321,1.157,28.219-1.079,19.777-41.268
			c-40.771,12.861-33.43,29.676-27.78,36.835C257.974-111.578,258.027-111.698,258.097-111.814z M253.664-99.056
			c-0.07,0.067-0.134,0.141-0.204,0.208c-1.371,1.118-3.073,2.071-4.627,3.171c-6.146,4.471-12.918,8.314-12.918,8.314
			s4.412-6.226,9.433-11.841c1.238-1.42,2.328-2.992,3.572-4.237c0.07-0.059,0.144-0.116,0.215-0.176
			c-6.121-2.573-19.489-4.668-22.158,24.379C257.503-80.2,256.02-93.085,253.664-99.056z M520.218-177.627
			c-0.011,0.113-0.011,0.225-0.025,0.341c-0.366,2.046-1.171,4.184-1.723,6.346c-2.078,8.677-5.246,17.227-5.246,17.227
			s-0.939-9.017-0.826-17.916c0-2.229-0.26-4.486-0.109-6.557c0.014-0.113,0.039-0.215,0.056-0.324
			c-7.746,2.131-21.817,10.048-0.833,38.909C538.993-163.005,527.218-173.84,520.218-177.627z M590.648-64.997
			c-0.007-0.088-0.021-0.176-0.025-0.267c0.004-1.631,0.341-3.389,0.475-5.132c0.436-6.982,1.733-14.003,1.733-14.003
			s1.948,6.876,3.066,13.788c0.302,1.727,0.809,3.446,0.974,5.069c0.004,0.085,0,0.169,0,0.258
			c5.717-2.613,15.551-10.492-4.624-30.268C574.116-74.009,584.71-67.065,590.648-64.997z M595.787,45.514
			c0.003,0.092,0.014,0.176,0.018,0.268c-0.053,1.632-0.436,3.378-0.619,5.118c-0.633,6.972-2.127,13.954-2.127,13.954
			s-1.755-6.922-2.679-13.863c-0.253-1.733-0.71-3.463-0.83-5.09c-0.003-0.088,0.007-0.173,0.007-0.257
			c-5.787,2.461-15.839,10.087,3.773,30.372C612.063,54.947,601.662,47.736,595.787,45.514z M551.592,108.172
			c0.088-0.032,0.172-0.067,0.26-0.099c1.645-0.439,3.505-0.607,5.302-0.956c7.148-1.497,14.567-2.214,14.567-2.214
			s-6.392,3.662-13.048,6.57c-1.656,0.749-3.249,1.682-4.838,2.275c-0.088,0.025-0.172,0.043-0.26,0.067
			c4.184,4.549,14.792,11.451,29.218-12.481C556.17,90.513,552.063,102.146,551.592,108.172z M453.952,166.274
			c-1.122,0.973-2.525,1.814-3.804,2.777c-5.049,3.909-10.639,7.302-10.639,7.302s3.547-5.34,7.619-10.181
			c1.002-1.224,1.878-2.57,2.89-3.646c0.056-0.056,0.12-0.102,0.176-0.154c-5.214-2.019-16.507-3.457-17.981,21.027
			c25.635-1.551,24.046-12.344,21.908-17.305C454.064,166.154,454.015,166.213,453.952,166.274z"/>
	</g>
</g>
<g>
	<path fill="#5C9A42" d="M343.783,83.688h2.628v17.672h7.262V104h-9.89L343.783,83.688L343.783,83.688z"/>
	<path fill="#5C9A42" d="M370.063,83.688v14.308c-0.229,1.625-0.9,3.004-2.017,4.139c-1.354,1.354-2.981,2.031-4.884,2.031
		s-3.53-0.673-4.883-2.019c-1.345-1.354-2.017-2.983-2.017-4.888V83.688h2.628v13.581c0,1.16,0.415,2.164,1.246,3.011
		c0.848,0.83,1.855,1.245,3.025,1.245c1.187,0,2.195-0.415,3.026-1.245c0.83-0.83,1.246-1.833,1.246-3.011V83.688H370.063z"/>
	<path fill="#5C9A42" d="M379,92.917l-5.319-9.229h3.021l3.809,6.614l3.834-6.614h3.021l-5.345,9.229L388.433,104h-3.021l-4.9-8.468
		L375.636,104h-3.021L379,92.917z"/>
	<path fill="#5C9A42" d="M401.039,104.216c-2.869,0-5.315-1.011-7.338-3.034c-2.023-2.023-3.034-4.469-3.034-7.338
		c0-2.852,1.011-5.298,3.034-7.338c2.014-2.031,4.46-3.047,7.338-3.047c2.691,0,5.234,1.096,7.63,3.288l-1.968,1.79
		c-1.812-1.608-3.699-2.412-5.662-2.412c-2.133,0-3.953,0.753-5.459,2.26c-1.507,1.506-2.26,3.326-2.26,5.459
		c0,2.141,0.753,3.965,2.26,5.472c1.506,1.506,3.326,2.26,5.459,2.26c1.819,0,3.334-0.482,4.545-1.447v-6.132h2.628v7.224
		C406.112,103.217,403.722,104.216,401.039,104.216z"/>
	<path fill="#5C9A42" d="M427.09,104h-2.793l-2.615-7.186h-5.383L413.696,104h-2.806l7.389-20.313h1.422L427.09,104z M418.99,89.413
		l-1.727,4.761h3.465L418.99,89.413z"/>
	<path fill="#5C9A42" d="M432.257,97.5v6.5h-2.628V83.688h5.758c1.623,0.211,3.001,0.884,4.134,2.019
		c1.345,1.363,2.017,2.988,2.017,4.875c0,1.913-0.672,3.546-2.017,4.9c-0.938,0.939-1.648,1.464-2.131,1.574l4.507,6.944h-3.187
		l-4.058-6.5H432.257z M432.257,94.859h2.399c1.168,0,2.167-0.415,2.996-1.244c0.838-0.838,1.257-1.849,1.257-3.034
		c0-1.176-0.419-2.179-1.257-3.009c-0.829-0.83-1.828-1.244-2.996-1.244h-2.399V94.859z"/>
	<path fill="#5C9A42" d="M446.424,83.688c3.301,0.017,5.874,0.952,7.719,2.806c2.022,2.048,3.034,4.499,3.034,7.351
		c0,2.861-1.012,5.311-3.034,7.351c-1.845,1.854-4.418,2.789-7.719,2.806h-1.93V83.688H446.424z M447.122,101.334
		c2.091,0,3.805-0.673,5.142-2.019c1.507-1.506,2.26-3.331,2.26-5.472s-0.753-3.965-2.26-5.472
		c-1.337-1.337-3.051-2.006-5.142-2.006V101.334z"/>
	<path fill="#5C9A42" d="M471.307,86.328h-8.315v6.183h8.315v2.641h-8.315v6.208h8.315V104h-10.943V83.688h10.943V86.328z"/>
	<path fill="#5C9A42" d="M477.198,83.688l8.379,14.498V83.688h2.628V104h-2.295l-8.483-14.676V104h-2.628V83.688H477.198z"/>
</g>
<g>
	<path fill="#5C9A42" d="M137.648,136.512h3.438l6.516,17.922l6.531-17.922h3.453l-9.109,25h-1.75L137.648,136.512z"/>
	<path fill="#5C9A42" d="M177.695,136.512l0.016,3.781c0.281-0.073,0.487-0.203,0.617-0.391s0.216-0.38,0.258-0.578v-2.813h2.688
		v2.313v0.234c0,0.469-0.12,0.87-0.361,1.203c-0.24,0.333-0.539,0.615-0.895,0.844c-0.355,0.229-0.742,0.414-1.161,0.555
		c-0.418,0.141-0.806,0.253-1.161,0.336v12.125c-0.281,2-1.108,3.698-2.482,5.094c-1.665,1.667-3.668,2.5-6.01,2.5
		s-4.345-0.828-6.01-2.484c-1.655-1.667-2.482-3.672-2.482-6.016v-16.703h3.234v16.715c0,1.429,0.511,2.663,1.533,3.706
		c1.043,1.021,2.285,1.532,3.725,1.532c1.46,0,2.702-0.511,3.725-1.532c1.022-1.021,1.533-2.257,1.533-3.706v-16.715
		L177.695,136.512L177.695,136.512z"/>
	<path fill="#5C9A42" d="M207.602,148.98c0,3.531-1.25,6.547-3.75,9.047s-5.516,3.75-9.047,3.75s-6.547-1.25-9.047-3.75
		s-3.75-5.516-3.75-9.047s1.25-6.547,3.75-9.047s5.516-3.75,9.047-3.75s6.547,1.25,9.047,3.75c0.052,0.052,0.106,0.107,0.164,0.164
		c0.057,0.058,0.112,0.117,0.164,0.18c0.26-0.083,0.45-0.216,0.57-0.398c0.12-0.182,0.2-0.367,0.242-0.555v-2.813h2.75v2.313v0.25
		c0,0.354-0.063,0.683-0.188,0.984c-0.125,0.302-0.292,0.576-0.5,0.82c-0.208,0.245-0.451,0.461-0.727,0.648
		c-0.276,0.188-0.56,0.333-0.852,0.438c0.385,0.531,0.711,1.068,0.977,1.609c0.266,0.542,0.484,1.097,0.656,1.664
		c0.172,0.568,0.297,1.162,0.375,1.781C207.563,147.64,207.602,148.293,207.602,148.98z M194.805,139.434
		c-2.636,0-4.886,0.933-6.75,2.799c-1.854,1.856-2.781,4.103-2.781,6.74s0.932,4.89,2.797,6.756
		c1.864,1.866,4.109,2.799,6.734,2.799s4.87-0.933,6.734-2.799s2.797-4.118,2.797-6.756c0-2.627-0.933-4.874-2.797-6.74
		C199.674,140.367,197.43,139.434,194.805,139.434z M193.805,134.965l-4.25-4.359h3.938l3.391,4.359H193.805z"/>
	<path fill="#5C9A42" d="M214.867,136.512l10.313,17.844v-17.844h3.234v25h-2.825l-10.441-18.063v18.063h-3.234v-25H214.867z"/>
	<path fill="#5C9A42" d="M247.414,161.512h-3.234v-25h7.086c1.998,0.261,3.694,1.089,5.089,2.484c1.654,1.677,2.481,3.677,2.481,6
		c0,2.354-0.827,4.365-2.481,6.031c-1.654,1.656-3.651,2.484-5.992,2.484h-2.949V161.512z M247.414,150.262h2.953
		c1.438,0,2.667-0.51,3.688-1.531c1.031-1.031,1.547-2.276,1.547-3.734c0-1.448-0.516-2.682-1.547-3.703
		c-1.021-1.021-2.25-1.531-3.688-1.531h-2.953V150.262z"/>
	<path fill="#5C9A42" d="M265.305,161.512h-3.234v-25h3.234v11.406h7.719v-11.406h3.234v25h-3.234v-10.344h-7.719V161.512z"/>
	<path fill="#5C9A42" d="M297.93,136.512v17.609c-0.281,2-1.108,3.698-2.482,5.094c-1.665,1.667-3.668,2.5-6.01,2.5
		s-4.345-0.828-6.01-2.484c-1.655-1.667-2.482-3.672-2.482-6.016v-16.703h3.234v16.715c0,1.429,0.511,2.663,1.533,3.706
		c1.043,1.021,2.285,1.532,3.725,1.532c1.46,0,2.702-0.511,3.725-1.532c1.022-1.021,1.533-2.257,1.533-3.706v-16.715L297.93,136.512
		L297.93,136.512z M295.32,130.605l-4.25,4.359h-3.078l3.391-4.359H295.32z"/>
	<path fill="#5C9A42" d="M331.445,160.652c0.114,0.073,0.234,0.151,0.359,0.234s0.255,0.172,0.391,0.266
		c0.75,0.396,1.245,0.63,1.484,0.703c0.104,0.031,0.213,0.047,0.328,0.047c0.188,0,0.364-0.053,0.531-0.156
		c0.281-0.167,0.458-0.396,0.531-0.688c0.021-0.073,0.057-0.458,0.109-1.156h3.266c-0.042,0.511-0.081,0.935-0.117,1.273
		c-0.037,0.338-0.081,0.591-0.133,0.758c-0.323,1.156-1.016,2.025-2.078,2.609c-0.667,0.385-1.365,0.578-2.094,0.578
		c-0.386,0-0.792-0.058-1.219-0.172c-0.656-0.167-1.547-0.615-2.672-1.344c-0.448-0.24-0.826-0.43-1.133-0.57
		c-0.308-0.141-0.55-0.237-0.727-0.289c-0.229-0.053-0.417-0.078-0.563-0.078c-0.313,0-0.615,0.083-0.906,0.25
		c-0.49,0.271-0.802,0.677-0.938,1.219c-0.011,0.021-0.026,0.117-0.047,0.289s-0.042,0.419-0.063,0.742h-3.266
		c0.042-0.5,0.083-0.912,0.125-1.234c0.042-0.323,0.083-0.558,0.125-0.703c0.083-0.323,0.195-0.625,0.336-0.906
		s0.299-0.542,0.477-0.781c-2.458-0.469-4.625-1.641-6.5-3.516c-2.5-2.5-3.75-5.516-3.75-9.047s1.25-6.547,3.75-9.047
		s5.516-3.75,9.047-3.75s6.547,1.25,9.047,3.75s3.75,5.516,3.75,9.047s-1.25,6.547-3.75,9.047
		C334.023,159.152,332.789,160.027,331.445,160.652z M326.102,139.434c-2.636,0-4.886,0.933-6.75,2.799
		c-1.854,1.856-2.781,4.103-2.781,6.74s0.932,4.89,2.797,6.756c1.864,1.866,4.109,2.799,6.734,2.799s4.87-0.933,6.734-2.799
		s2.797-4.118,2.797-6.756c0-2.627-0.933-4.874-2.797-6.74C330.971,140.367,328.727,139.434,326.102,139.434z"/>
	<path fill="#5C9A42" d="M360.195,136.512v17.609c-0.281,2-1.108,3.698-2.482,5.094c-1.665,1.667-3.668,2.5-6.01,2.5
		s-4.345-0.828-6.01-2.484c-1.655-1.667-2.482-3.672-2.482-6.016v-16.703h3.234v16.715c0,1.429,0.511,2.663,1.533,3.706
		c1.043,1.021,2.285,1.532,3.725,1.532c1.46,0,2.702-0.511,3.725-1.532c1.022-1.021,1.533-2.257,1.533-3.706v-16.715
		L360.195,136.512L360.195,136.512z"/>
	<path fill="#5C9A42" d="M363.336,136.512h3.719l6.531,11.313l6.547-11.313h3.734l-8.656,14.969v10.031h-3.234V151.48
		L363.336,136.512z M378.492,130.605l-4.25,4.359h-3.078l3.391-4.359H378.492z"/>
	<path fill="#5C9A42" d="M409.539,150.371v3.25h-13.047v-3.25H409.539z"/>
	<path fill="#5C9A42" d="M445.492,157.73c-2.948,2.698-6.078,4.047-9.391,4.047c-3.531,0-6.542-1.245-9.031-3.734
		c-2.49-2.489-3.734-5.5-3.734-9.031c0-3.51,1.244-6.521,3.734-9.031c2.479-2.5,5.489-3.75,9.031-3.75
		c3.313,0,6.442,1.349,9.391,4.047l-2.422,2.203c-2.229-1.979-4.553-2.969-6.969-2.969c-2.625,0-4.865,0.927-6.719,2.781
		s-2.781,4.094-2.781,6.719c0,2.636,0.927,4.88,2.781,6.734c1.854,1.854,4.094,2.781,6.719,2.781c2.416,0,4.739-0.989,6.969-2.969
		L445.492,157.73z"/>
	<path fill="#5C9A42" d="M452.617,161.512h-3.234v-25h3.234v11.406h7.719v-11.406h3.234v25h-3.234v-10.344h-7.719V161.512z"/>
	<path fill="#5C9A42" d="M493.461,148.98c0,3.531-1.25,6.547-3.75,9.047s-5.516,3.75-9.047,3.75s-6.547-1.25-9.047-3.75
		s-3.75-5.516-3.75-9.047s1.25-6.547,3.75-9.047s5.516-3.75,9.047-3.75s6.547,1.25,9.047,3.75S493.461,145.449,493.461,148.98z
		 M480.664,139.434c-2.636,0-4.886,0.933-6.75,2.799c-1.854,1.856-2.781,4.103-2.781,6.74s0.932,4.89,2.797,6.756
		c1.864,1.866,4.109,2.799,6.734,2.799s4.869-0.933,6.734-2.799c1.864-1.866,2.797-4.118,2.797-6.756
		c0-2.627-0.933-4.874-2.797-6.74C485.533,140.367,483.289,139.434,480.664,139.434z M480.633,132.902l-1.391,1.281h-3.422
		l3.641-3.719h2.297l3.766,3.719h-3.453L480.633,132.902z M490.633,126.762l-4.25,4.359h-3.078l3.391-4.359H490.633z"/>
	<path fill="#5C9A42" d="M500.727,136.512l10.313,17.844v-17.844h3.234v25h-2.824l-10.441-18.063v18.063h-3.234v-25H500.727z"/>
	<path fill="#5C9A42" d="M533.273,161.512h-3.234v-25h7.086c1.998,0.261,3.694,1.089,5.089,2.484c1.654,1.677,2.481,3.677,2.481,6
		c0,2.354-0.827,4.365-2.48,6.031c-1.654,1.656-3.652,2.484-5.992,2.484h-2.949v8.001H533.273z M533.273,150.262h2.953
		c1.438,0,2.666-0.51,3.688-1.531c1.031-1.031,1.547-2.276,1.547-3.734c0-1.448-0.516-2.682-1.547-3.703
		c-1.021-1.021-2.25-1.531-3.688-1.531h-2.953V150.262z"/>
	<path fill="#5C9A42" d="M551.164,161.512h-3.234v-25h3.234v11.406h7.719v-11.406h3.234v25h-3.234v-10.344h-7.719V161.512z"/>
	<path fill="#5C9A42" d="M592.008,148.98c0,3.531-1.25,6.547-3.75,9.047s-5.516,3.75-9.047,3.75s-6.547-1.25-9.047-3.75
		s-3.75-5.516-3.75-9.047s1.25-6.547,3.75-9.047s5.516-3.75,9.047-3.75s6.547,1.25,9.047,3.75S592.008,145.449,592.008,148.98z
		 M579.211,139.434c-2.636,0-4.886,0.933-6.75,2.799c-1.854,1.856-2.781,4.103-2.781,6.74s0.932,4.89,2.797,6.756
		c1.864,1.866,4.109,2.799,6.734,2.799s4.869-0.933,6.734-2.799c1.864-1.866,2.797-4.118,2.797-6.756
		c0-2.627-0.933-4.874-2.797-6.74C584.08,140.367,581.836,139.434,579.211,139.434z M579.18,132.902l-1.391,1.281h-3.422
		l3.641-3.719h2.297l3.766,3.719h-3.453L579.18,132.902z M583.195,131.137l-4.25-4.359h3.938l3.391,4.359H583.195z"/>
	<path fill="#5C9A42" d="M599.273,136.512l10.313,17.844v-17.844h3.234v25h-2.824l-10.441-18.063v18.063h-3.234v-25H599.273z"/>
	<path fill="#5C9A42" d="M625.773,136.512h3.438l6.516,17.922l6.531-17.922h3.453l-9.109,25h-1.75L625.773,136.512z"/>
	<path fill="#5C9A42" d="M652.383,161.512h-3.234v-25h3.234V161.512z"/>
	<path fill="#5C9A42" d="M660.352,136.512l10.313,17.844v-17.844h3.234v25h-2.824l-10.441-18.063v18.063H657.4v-25H660.352z"/>
	<path fill="#5C9A42" d="M681.836,161.512h-3.234v-25h3.234v11.406h7.719v-11.406h3.234v25h-3.234v-10.344h-7.719V161.512z"/>
</g>
<g>
	<path fill="#444444" d="M190.148,197.272h-6.12v5.22h-1.476V190.9h1.476v5.22h6.12v-5.22h1.476v11.592h-1.476V197.272z"/>
	<path fill="#444444" d="M200.102,201.521c-0.372,0.396-0.825,0.688-1.359,0.873c-0.534,0.186-1.185,0.278-1.953,0.278
		c-0.864,0-1.581-0.222-2.151-0.665c-0.57-0.444-0.855-1.08-0.855-1.908s0.27-1.479,0.81-1.953s1.368-0.711,2.484-0.711h2.97v-0.522
		c0-0.479-0.066-0.854-0.198-1.125c-0.132-0.27-0.372-0.465-0.72-0.585c-0.348-0.119-0.852-0.18-1.512-0.18
		c-0.996,0-1.944,0.156-2.844,0.468v-1.224c0.852-0.324,1.866-0.486,3.042-0.486c1.224,0,2.136,0.249,2.736,0.747
		s0.9,1.293,0.9,2.385v5.58h-1.242L200.102,201.521z M197.852,192.376c-0.204-0.083-0.411-0.158-0.621-0.225
		c-0.21-0.065-0.394-0.099-0.549-0.099c-0.636,0-1.134,0.21-1.494,0.63v-1.134c0.144-0.156,0.357-0.285,0.639-0.388
		c0.282-0.102,0.567-0.152,0.855-0.152c0.228,0,0.447,0.029,0.657,0.09c0.21,0.06,0.447,0.15,0.711,0.27
		c0.3,0.12,0.531,0.204,0.693,0.252c0.162,0.049,0.339,0.072,0.531,0.072c0.612,0,1.074-0.216,1.386-0.648v1.152
		c-0.12,0.168-0.306,0.3-0.558,0.396s-0.528,0.144-0.828,0.144C198.926,192.736,198.452,192.616,197.852,192.376z M197.114,198.568
		c-0.66,0-1.137,0.123-1.431,0.369s-0.441,0.633-0.441,1.161c0,0.492,0.162,0.843,0.486,1.053c0.324,0.21,0.804,0.315,1.44,0.315
		c1.212,0,2.172-0.414,2.88-1.242v-1.656L197.114,198.568L197.114,198.568z"/>
	<path fill="#444444" d="M204.242,193.96l2.97,6.877l3.06-6.877h1.512l-3.582,8.154c-0.348,0.804-0.672,1.452-0.972,1.944
		c-0.3,0.491-0.657,0.882-1.071,1.17s-0.909,0.432-1.485,0.432c-0.564,0-1.056-0.078-1.476-0.234v-1.188
		c0.335,0.12,0.702,0.18,1.098,0.18s0.711-0.069,0.945-0.207c0.234-0.138,0.435-0.336,0.603-0.594
		c0.167-0.258,0.378-0.663,0.63-1.215l-3.762-8.442L204.242,193.96L204.242,193.96z"/>
	<path fill="#444444" d="M221,193.96v-2.105l1.476-0.45v2.556h2.358l-0.09,1.171h-2.268v4.913c0,0.528,0.117,0.9,0.351,1.116
		s0.639,0.324,1.215,0.324c0.312,0,0.654-0.06,1.026-0.18v1.116c-0.444,0.167-0.954,0.251-1.53,0.251
		c-0.828,0-1.458-0.222-1.89-0.665c-0.432-0.444-0.648-1.074-0.648-1.891v-4.985h-1.296v-1.171L221,193.96L221,193.96z"/>
	<path fill="#444444" d="M232.196,201.521c-0.372,0.396-0.825,0.688-1.359,0.873c-0.534,0.186-1.185,0.278-1.953,0.278
		c-0.864,0-1.581-0.222-2.151-0.665c-0.57-0.444-0.855-1.08-0.855-1.908s0.27-1.479,0.81-1.953s1.368-0.711,2.484-0.711h2.97v-0.522
		c0-0.479-0.066-0.854-0.198-1.125c-0.132-0.27-0.372-0.465-0.72-0.585c-0.348-0.119-0.852-0.18-1.512-0.18
		c-0.996,0-1.944,0.156-2.844,0.468v-1.224c0.852-0.324,1.866-0.486,3.042-0.486c1.224,0,2.136,0.249,2.736,0.747
		s0.9,1.293,0.9,2.385v5.58h-1.242L232.196,201.521z M231.314,193.097l-1.386-1.836l-1.386,1.836h-1.278l2.07-2.664h1.188
		l2.07,2.664H231.314z M229.208,198.568c-0.66,0-1.137,0.123-1.431,0.369s-0.441,0.633-0.441,1.161c0,0.492,0.162,0.843,0.486,1.053
		c0.324,0.21,0.804,0.315,1.44,0.315c1.212,0,2.172-0.414,2.88-1.242v-1.656L229.208,198.568L229.208,198.568z M229.208,204.059
		h1.44v1.386h-1.44V204.059z"/>
	<path fill="#444444" d="M242.33,202.492v-5.525c0-0.517-0.066-0.915-0.198-1.197c-0.132-0.282-0.351-0.486-0.657-0.612
		s-0.747-0.188-1.323-0.188c-0.528,0-1.026,0.096-1.494,0.288c-0.468,0.191-0.87,0.456-1.206,0.792v6.443h-1.476v-8.532h1.332
		l0.09,0.973c0.936-0.768,2.04-1.152,3.312-1.152c1.08,0,1.866,0.252,2.358,0.756s0.738,1.296,0.738,2.376v5.58h-1.476V202.492z"/>
	<path fill="#444444" d="M259.429,202.492v-5.525c0-0.732-0.162-1.248-0.486-1.549c-0.324-0.3-0.87-0.449-1.638-0.449
		c-0.48,0-0.975,0.104-1.485,0.314s-0.933,0.483-1.269,0.819v6.39h-1.476V190.36h1.476v4.519c0.9-0.732,1.986-1.099,3.258-1.099
		c1.044,0,1.821,0.255,2.331,0.766c0.51,0.51,0.765,1.299,0.765,2.366v5.58H259.429z"/>
	<path fill="#444444" d="M264.721,193.96v5.454c0,0.709,0.177,1.23,0.531,1.566s0.903,0.504,1.647,0.504
		c0.528,0,1.026-0.096,1.494-0.288c0.468-0.191,0.87-0.456,1.206-0.792v-6.444h1.476v1.063c0.576-0.048,0.966-0.23,1.17-0.549
		s0.306-0.861,0.306-1.629h1.278c0,1.08-0.237,1.89-0.711,2.43s-1.155,0.816-2.043,0.828v6.39h-1.332l-0.09-0.972
		c-0.432,0.348-0.933,0.627-1.503,0.837c-0.57,0.21-1.173,0.314-1.809,0.314c-1.02,0-1.791-0.281-2.313-0.846
		c-0.522-0.563-0.783-1.386-0.783-2.466v-5.4H264.721z"/>
	<path fill="#444444" d="M282.847,195.022c0.468-0.012,0.825-0.087,1.071-0.225c0.246-0.139,0.417-0.36,0.513-0.666
		c0.096-0.307,0.144-0.735,0.144-1.287h1.278c0,1.056-0.198,1.836-0.594,2.34s-0.996,0.81-1.8,0.918
		c0.228,0.576,0.342,1.284,0.342,2.124c0,1.476-0.345,2.586-1.035,3.33s-1.767,1.115-3.231,1.115s-2.541-0.371-3.231-1.115
		s-1.035-1.854-1.035-3.33c0-2.964,1.422-4.446,4.266-4.446C281.023,193.78,282.127,194.194,282.847,195.022z M281.686,200.656
		c0.426-0.504,0.639-1.313,0.639-2.43s-0.216-1.926-0.648-2.43c-0.432-0.505-1.146-0.757-2.142-0.757s-1.71,0.252-2.142,0.757
		c-0.432,0.504-0.648,1.313-0.648,2.43s0.213,1.926,0.639,2.43s1.143,0.756,2.151,0.756S281.26,201.16,281.686,200.656z
		 M281.335,191.71c-0.24,0.265-0.654,0.438-1.242,0.522v0.864h-1.188v-1.494c0.468-0.024,0.822-0.069,1.062-0.135
		c0.24-0.066,0.402-0.159,0.486-0.279s0.126-0.294,0.126-0.522c0-0.287-0.111-0.494-0.333-0.62
		c-0.222-0.127-0.579-0.189-1.071-0.189c-0.192,0-0.399,0.021-0.621,0.063c-0.222,0.043-0.411,0.094-0.567,0.153v-0.918
		c0.18-0.072,0.414-0.129,0.702-0.171s0.564-0.063,0.828-0.063c0.708,0,1.248,0.144,1.62,0.432c0.372,0.288,0.558,0.69,0.558,1.206
		C281.695,191.063,281.575,191.446,281.335,191.71z"/>
	<path fill="#444444" d="M293.827,202.492v-5.525c0-0.517-0.066-0.915-0.198-1.197c-0.132-0.282-0.351-0.486-0.657-0.612
		s-0.747-0.188-1.323-0.188c-0.528,0-1.026,0.096-1.494,0.288c-0.468,0.191-0.87,0.456-1.206,0.792v6.443h-1.476v-8.532h1.332
		l0.09,0.973c0.936-0.768,2.04-1.152,3.312-1.152c1.08,0,1.866,0.252,2.358,0.756s0.738,1.296,0.738,2.376v5.58h-1.476V202.492z"/>
	<path fill="#444444" d="M303.25,202.816c-0.222-0.133-0.615-0.198-1.179-0.198h-2.268c-0.78,0-1.368-0.135-1.764-0.404
		c-0.396-0.271-0.594-0.663-0.594-1.18c0-0.371,0.114-0.711,0.342-1.017s0.558-0.525,0.99-0.657
		c-0.936-0.456-1.404-1.296-1.404-2.52c0-1.057,0.306-1.83,0.918-2.322s1.56-0.738,2.844-0.738c0.444,0,0.936,0.061,1.476,0.18
		h3.078l-0.054,1.009h-1.548c0.516,0.443,0.774,1.067,0.774,1.872c0,0.96-0.279,1.698-0.837,2.214s-1.401,0.773-2.529,0.773
		c-0.252,0-0.6-0.029-1.044-0.09c-0.396,0.024-0.75,0.135-1.062,0.333s-0.468,0.447-0.468,0.747c0,0.216,0.083,0.369,0.252,0.459
		c0.167,0.09,0.461,0.135,0.882,0.135h2.358c0.852,0,1.506,0.175,1.962,0.522s0.684,0.846,0.684,1.493
		c0,0.805-0.333,1.378-0.999,1.72s-1.671,0.513-3.015,0.513c-1.428,0-2.568-0.15-3.42-0.45v-1.224
		c0.468,0.155,0.999,0.275,1.593,0.359s1.179,0.127,1.755,0.127c0.66,0,1.17-0.024,1.53-0.072s0.63-0.142,0.81-0.279
		c0.18-0.138,0.27-0.351,0.27-0.639C303.583,203.17,303.472,202.948,303.25,202.816z M302.89,198.299
		c0.33-0.276,0.495-0.763,0.495-1.458c0-0.696-0.171-1.2-0.513-1.513c-0.342-0.312-0.921-0.468-1.737-0.468
		c-0.804,0-1.386,0.153-1.746,0.459s-0.54,0.813-0.54,1.521c0,0.672,0.174,1.151,0.522,1.439s0.936,0.433,1.764,0.433
		C301.975,198.713,302.56,198.574,302.89,198.299z"/>
	<path fill="#444444" d="M318.451,202.672c-1.464,0-2.562-0.38-3.294-1.143c-0.732-0.762-1.098-1.863-1.098-3.303
		c0-1.464,0.399-2.571,1.197-3.321s1.905-1.125,3.321-1.125c0.54,0,0.996,0.039,1.368,0.117s0.744,0.201,1.116,0.369v1.17
		c-0.648-0.312-1.386-0.468-2.214-0.468c-1.092,0-1.917,0.258-2.475,0.773c-0.558,0.517-0.837,1.345-0.837,2.484
		s0.252,1.968,0.756,2.483c0.504,0.517,1.338,0.774,2.502,0.774c0.828,0,1.59-0.155,2.286-0.468v1.188
		C320.323,202.516,319.447,202.672,318.451,202.672z"/>
	<path fill="#444444" d="M324.625,193.96v5.454c0,0.709,0.177,1.23,0.531,1.566s0.903,0.504,1.647,0.504
		c0.528,0,1.026-0.096,1.494-0.288c0.468-0.191,0.87-0.456,1.206-0.792v-6.444h1.476v8.532h-1.332l-0.09-0.972
		c-0.432,0.348-0.933,0.627-1.503,0.837c-0.57,0.21-1.173,0.314-1.809,0.314c-1.02,0-1.791-0.281-2.313-0.846
		c-0.522-0.563-0.783-1.386-0.783-2.466v-5.4h1.476V193.96z"/>
	<path fill="#444444" d="M341.67,198.227c0,1.476-0.345,2.586-1.035,3.33s-1.767,1.115-3.231,1.115s-2.541-0.371-3.231-1.115
		s-1.035-1.854-1.035-3.33c0-2.964,1.422-4.446,4.266-4.446C340.248,193.78,341.67,195.263,341.67,198.227z M339.555,200.656
		c0.426-0.504,0.639-1.313,0.639-2.43s-0.216-1.926-0.648-2.43c-0.432-0.505-1.146-0.757-2.142-0.757s-1.71,0.252-2.142,0.757
		c-0.432,0.504-0.648,1.313-0.648,2.43s0.213,1.926,0.639,2.43s1.143,0.756,2.151,0.756S339.129,201.16,339.555,200.656z
		 M338.79,193.097l-1.386-1.836l-1.386,1.836h-1.278l2.07-2.664h1.188l2.07,2.664H338.79z M336.684,204.059h1.44v1.386h-1.44
		V204.059z"/>
	<path fill="#444444" d="M347.232,202.672c-1.464,0-2.562-0.38-3.294-1.143c-0.732-0.762-1.098-1.863-1.098-3.303
		c0-1.464,0.399-2.571,1.197-3.321s1.905-1.125,3.321-1.125c0.54,0,0.996,0.039,1.368,0.117s0.744,0.201,1.116,0.369v1.17
		c-0.648-0.312-1.386-0.468-2.214-0.468c-1.092,0-1.917,0.258-2.475,0.773c-0.558,0.517-0.837,1.345-0.837,2.484
		s0.252,1.968,0.756,2.483c0.504,0.517,1.338,0.774,2.502,0.774c0.828,0,1.59-0.155,2.286-0.468v1.188
		C349.104,202.516,348.229,202.672,347.232,202.672z"/>
	<path fill="#444444" d="M363.252,199.604c-0.132-0.162-0.321-0.3-0.567-0.414s-0.633-0.255-1.161-0.423l-0.486-0.162
		c-0.6-0.204-1.071-0.393-1.413-0.567c-0.342-0.174-0.615-0.414-0.819-0.72s-0.306-0.705-0.306-1.197c0-0.768,0.27-1.35,0.81-1.746
		s1.386-0.594,2.538-0.594c0.888,0,1.692,0.114,2.412,0.342v1.296c-0.756-0.252-1.482-0.378-2.178-0.378
		c-0.768,0-1.311,0.078-1.629,0.234c-0.318,0.156-0.477,0.432-0.477,0.828c0,0.276,0.069,0.492,0.207,0.647
		c0.138,0.156,0.336,0.285,0.594,0.388c0.258,0.102,0.711,0.255,1.359,0.459c0.708,0.216,1.257,0.432,1.647,0.647
		c0.39,0.216,0.678,0.48,0.864,0.792c0.186,0.313,0.279,0.715,0.279,1.206c0,1.62-1.128,2.43-3.384,2.43
		c-0.54,0-1.062-0.036-1.566-0.107c-0.504-0.072-0.924-0.168-1.26-0.288v-1.296c0.816,0.288,1.692,0.432,2.628,0.432
		c0.78,0,1.326-0.081,1.638-0.243c0.312-0.161,0.468-0.465,0.468-0.908C363.45,199.984,363.384,199.766,363.252,199.604z"/>
	<path fill="#444444" d="M375.258,198.227c0,1.476-0.345,2.586-1.035,3.33s-1.767,1.115-3.231,1.115s-2.541-0.371-3.231-1.115
		s-1.035-1.854-1.035-3.33c0-2.964,1.422-4.446,4.266-4.446C373.835,193.78,375.258,195.263,375.258,198.227z M373.143,200.656
		c0.426-0.504,0.639-1.313,0.639-2.43s-0.216-1.926-0.648-2.43c-0.432-0.505-1.146-0.757-2.142-0.757s-1.71,0.252-2.142,0.757
		c-0.432,0.504-0.648,1.313-0.648,2.43s0.213,1.926,0.639,2.43s1.143,0.756,2.151,0.756S372.717,201.16,373.143,200.656z
		 M372.306,193.097l-1.35-1.494l-1.332,1.494h-1.26l1.998-2.124h1.188l1.998,2.124H372.306z M373.512,188.885h1.17l-1.224,2.25
		h-1.062L373.512,188.885z"/>
	<path fill="#444444" d="M383.771,202.492v-5.525c0-0.517-0.066-0.915-0.198-1.197c-0.132-0.282-0.351-0.486-0.657-0.612
		s-0.747-0.188-1.323-0.188c-0.528,0-1.026,0.096-1.494,0.288c-0.468,0.191-0.87,0.456-1.206,0.792v6.443h-1.476v-8.532h1.332
		l0.09,0.973c0.936-0.768,2.04-1.152,3.312-1.152c1.08,0,1.866,0.252,2.358,0.756s0.738,1.296,0.738,2.376v5.58h-1.476V202.492z"/>
	<path fill="#444444" d="M393.194,202.816c-0.222-0.133-0.615-0.198-1.179-0.198h-2.268c-0.78,0-1.368-0.135-1.764-0.404
		c-0.396-0.271-0.594-0.663-0.594-1.18c0-0.371,0.114-0.711,0.342-1.017s0.558-0.525,0.99-0.657
		c-0.936-0.456-1.404-1.296-1.404-2.52c0-1.057,0.306-1.83,0.918-2.322s1.56-0.738,2.844-0.738c0.444,0,0.936,0.061,1.476,0.18
		h3.078l-0.054,1.009h-1.548c0.516,0.443,0.774,1.067,0.774,1.872c0,0.96-0.279,1.698-0.837,2.214s-1.401,0.773-2.529,0.773
		c-0.252,0-0.6-0.029-1.044-0.09c-0.396,0.024-0.75,0.135-1.062,0.333s-0.468,0.447-0.468,0.747c0,0.216,0.083,0.369,0.252,0.459
		c0.167,0.09,0.461,0.135,0.882,0.135h2.358c0.852,0,1.506,0.175,1.962,0.522s0.684,0.846,0.684,1.493
		c0,0.805-0.333,1.378-0.999,1.72s-1.671,0.513-3.015,0.513c-1.428,0-2.568-0.15-3.42-0.45v-1.224
		c0.468,0.155,0.999,0.275,1.593,0.359s1.179,0.127,1.755,0.127c0.66,0,1.17-0.024,1.53-0.072s0.63-0.142,0.81-0.279
		c0.18-0.138,0.27-0.351,0.27-0.639C393.527,203.17,393.417,202.948,393.194,202.816z M392.834,198.299
		c0.33-0.276,0.495-0.763,0.495-1.458c0-0.696-0.171-1.2-0.513-1.513c-0.342-0.312-0.921-0.468-1.737-0.468
		c-0.804,0-1.386,0.153-1.746,0.459s-0.54,0.813-0.54,1.521c0,0.672,0.174,1.151,0.522,1.439s0.936,0.433,1.764,0.433
		C391.919,198.713,392.504,198.574,392.834,198.299z"/>
	<path fill="#444444" d="M410.717,202.492v-5.525c0-0.517-0.066-0.915-0.198-1.197c-0.132-0.282-0.351-0.486-0.657-0.612
		s-0.747-0.188-1.323-0.188c-0.528,0-1.026,0.096-1.494,0.288c-0.468,0.191-0.87,0.456-1.206,0.792v6.443h-1.476v-8.532h1.332
		l0.09,0.973c0.936-0.768,2.04-1.152,3.312-1.152c1.08,0,1.866,0.252,2.358,0.756s0.738,1.296,0.738,2.376v5.58h-1.476V202.492z"/>
	<path fill="#444444" d="M420.977,202.492v-5.525c0-0.732-0.162-1.248-0.486-1.549c-0.324-0.3-0.869-0.449-1.637-0.449
		c-0.48,0-0.977,0.104-1.486,0.314s-0.932,0.483-1.269,0.819v6.39h-1.476V190.36h1.476v4.519c0.899-0.732,1.985-1.099,3.259-1.099
		c1.043,0,1.82,0.255,2.33,0.766c0.51,0.51,0.766,1.299,0.766,2.366v5.58H420.977z"/>
	<path fill="#444444" d="M426.27,193.96v5.454c0,0.709,0.177,1.23,0.53,1.566c0.354,0.336,0.903,0.504,1.647,0.504
		c0.527,0,1.025-0.096,1.494-0.288c0.468-0.191,0.869-0.456,1.206-0.792v-6.444h1.476v1.063c0.576-0.048,0.966-0.23,1.17-0.549
		s0.306-0.861,0.306-1.629h1.278c0,1.08-0.237,1.89-0.711,2.43c-0.475,0.54-1.155,0.816-2.043,0.828v6.39h-1.332l-0.09-0.972
		c-0.432,0.348-0.934,0.627-1.503,0.837c-0.57,0.21-1.173,0.314-1.81,0.314c-1.02,0-1.791-0.281-2.313-0.846
		c-0.522-0.563-0.783-1.386-0.783-2.466v-5.4H426.27z"/>
	<path fill="#444444" d="M455.519,202.492v-5.525c0-0.744-0.156-1.263-0.468-1.558c-0.313-0.294-0.828-0.44-1.548-0.44
		c-0.48,0-0.934,0.081-1.359,0.243c-0.426,0.161-0.783,0.398-1.07,0.711c0.071,0.3,0.107,0.647,0.107,1.044v5.525h-1.386v-5.49
		c0-0.743-0.126-1.269-0.378-1.574c-0.252-0.307-0.72-0.459-1.404-0.459c-0.456,0-0.906,0.099-1.35,0.297s-0.841,0.465-1.188,0.801
		v6.426h-1.458v-8.532h1.332l0.09,0.973c0.96-0.768,1.992-1.152,3.097-1.152c0.611,0,1.098,0.1,1.458,0.297
		c0.359,0.198,0.63,0.489,0.81,0.873c0.444-0.371,0.93-0.659,1.458-0.863s1.14-0.307,1.836-0.307c0.972,0,1.695,0.249,2.169,0.747
		s0.711,1.263,0.711,2.295v5.67h-1.459V202.492z"/>
	<path fill="#444444" d="M466.336,195.022c0.469-0.012,0.825-0.087,1.071-0.225c0.246-0.139,0.417-0.36,0.513-0.666
		c0.097-0.307,0.145-0.735,0.145-1.287h1.278c0,1.056-0.198,1.836-0.595,2.34c-0.396,0.504-0.996,0.81-1.8,0.918
		c0.228,0.576,0.342,1.284,0.342,2.124c0,1.476-0.345,2.586-1.034,3.33c-0.69,0.744-1.768,1.115-3.231,1.115
		s-2.541-0.371-3.231-1.115c-0.689-0.744-1.034-1.854-1.034-3.33c0-2.964,1.422-4.446,4.266-4.446
		C464.513,193.78,465.616,194.194,466.336,195.022z M465.176,200.656c0.426-0.504,0.639-1.313,0.639-2.43s-0.216-1.926-0.648-2.43
		c-0.432-0.505-1.146-0.757-2.142-0.757s-1.71,0.252-2.142,0.757c-0.433,0.504-0.648,1.313-0.648,2.43s0.213,1.926,0.639,2.43
		s1.144,0.756,2.151,0.756S464.749,201.16,465.176,200.656z"/>
	<path fill="#444444" d="M489.304,202.492v-5.525c0-0.744-0.156-1.263-0.468-1.558c-0.313-0.294-0.828-0.44-1.548-0.44
		c-0.48,0-0.934,0.081-1.359,0.243c-0.426,0.161-0.783,0.398-1.07,0.711c0.071,0.3,0.107,0.647,0.107,1.044v5.525h-1.386v-5.49
		c0-0.743-0.126-1.269-0.378-1.574c-0.252-0.307-0.72-0.459-1.404-0.459c-0.456,0-0.906,0.099-1.35,0.297s-0.841,0.465-1.188,0.801
		v6.426h-1.458v-8.532h1.332l0.09,0.973c0.96-0.768,1.992-1.152,3.097-1.152c0.611,0,1.098,0.1,1.458,0.297
		c0.359,0.198,0.63,0.489,0.81,0.873c0.444-0.371,0.93-0.659,1.458-0.863s1.14-0.307,1.836-0.307c0.972,0,1.695,0.249,2.169,0.747
		s0.711,1.263,0.711,2.295v5.67h-1.459V202.492z"/>
	<path fill="#444444" d="M498.88,201.521c-0.372,0.396-0.825,0.688-1.358,0.873c-0.534,0.186-1.186,0.278-1.953,0.278
		c-0.864,0-1.581-0.222-2.151-0.665c-0.57-0.444-0.854-1.08-0.854-1.908s0.27-1.479,0.81-1.953s1.368-0.711,2.484-0.711h2.97v-0.522
		c0-0.479-0.066-0.854-0.198-1.125c-0.132-0.27-0.372-0.465-0.72-0.585c-0.349-0.119-0.853-0.18-1.512-0.18
		c-0.996,0-1.944,0.156-2.845,0.468v-1.224c0.853-0.324,1.866-0.486,3.042-0.486c1.225,0,2.136,0.249,2.736,0.747
		s0.9,1.293,0.9,2.385v5.58h-1.242L498.88,201.521z M495.893,198.568c-0.66,0-1.138,0.123-1.432,0.369s-0.44,0.633-0.44,1.161
		c0,0.492,0.161,0.843,0.485,1.053s0.804,0.315,1.44,0.315c1.212,0,2.172-0.414,2.88-1.242v-1.656L495.893,198.568L495.893,198.568z
		 M494.938,190.072h1.332l1.277,3.024h-1.188L494.938,190.072z"/>
	<path fill="#444444" d="M516.683,201.548c-0.673,0.75-1.62,1.124-2.845,1.124c-0.636,0-1.19-0.087-1.665-0.261
		c-0.474-0.174-0.908-0.446-1.305-0.818l-0.108,0.899h-1.26V190.36h1.477v4.23c0.779-0.54,1.728-0.811,2.844-0.811
		c2.58,0,3.87,1.458,3.87,4.374C517.69,199.666,517.354,200.798,516.683,201.548z M510.977,195.814v4.644
		c0.636,0.685,1.464,1.026,2.483,1.026c0.984,0,1.689-0.27,2.115-0.81s0.639-1.38,0.639-2.521c0-1.14-0.222-1.956-0.666-2.448
		c-0.443-0.491-1.151-0.737-2.124-0.737C512.428,194.969,511.612,195.251,510.977,195.814z"/>
	<path fill="#444444" d="M525.357,201.521c-0.372,0.396-0.825,0.688-1.358,0.873c-0.534,0.186-1.186,0.278-1.953,0.278
		c-0.864,0-1.581-0.222-2.151-0.665c-0.57-0.444-0.854-1.08-0.854-1.908s0.27-1.479,0.81-1.953s1.368-0.711,2.484-0.711h2.97v-0.522
		c0-0.479-0.066-0.854-0.198-1.125c-0.132-0.27-0.372-0.465-0.72-0.585c-0.349-0.119-0.853-0.18-1.512-0.18
		c-0.996,0-1.944,0.156-2.845,0.468v-1.224c0.853-0.324,1.866-0.486,3.042-0.486c1.225,0,2.136,0.249,2.736,0.747
		c0.6,0.498,0.9,1.293,0.9,2.385v5.58h-1.242L525.357,201.521z M522.37,198.568c-0.66,0-1.138,0.123-1.432,0.369
		s-0.44,0.633-0.44,1.161c0,0.492,0.161,0.843,0.485,1.053s0.804,0.315,1.44,0.315c1.212,0,2.172-0.414,2.88-1.242v-1.656
		L522.37,198.568L522.37,198.568z M522.441,204.059h1.44v1.386h-1.44V204.059z"/>
	<path fill="#444444" d="M535.492,202.492v-5.525c0-0.517-0.066-0.915-0.198-1.197s-0.351-0.486-0.657-0.612
		c-0.306-0.126-0.747-0.188-1.323-0.188c-0.527,0-1.025,0.096-1.493,0.288c-0.469,0.191-0.87,0.456-1.206,0.792v6.443h-1.477v-8.532
		h1.332l0.09,0.973c0.937-0.768,2.04-1.152,3.313-1.152c1.08,0,1.865,0.252,2.357,0.756s0.738,1.296,0.738,2.376v5.58h-1.476
		V202.492z"/>
	<path fill="#444444" d="M552.592,202.492v-5.525c0-0.732-0.162-1.248-0.486-1.549c-0.324-0.3-0.87-0.449-1.638-0.449
		c-0.48,0-0.976,0.104-1.485,0.314s-0.933,0.483-1.269,0.819v6.39h-1.477V190.36h1.477v4.519c0.899-0.732,1.985-1.099,3.258-1.099
		c1.044,0,1.82,0.255,2.331,0.766c0.51,0.51,0.765,1.299,0.765,2.366v5.58H552.592z"/>
	<path fill="#444444" d="M562.455,201.521c-0.372,0.396-0.825,0.688-1.358,0.873c-0.534,0.186-1.186,0.278-1.953,0.278
		c-0.864,0-1.581-0.222-2.151-0.665c-0.57-0.444-0.854-1.08-0.854-1.908s0.27-1.479,0.81-1.953s1.368-0.711,2.484-0.711h2.97v-0.522
		c0-0.479-0.066-0.854-0.198-1.125c-0.132-0.27-0.372-0.465-0.72-0.585c-0.349-0.119-0.853-0.18-1.512-0.18
		c-0.996,0-1.944,0.156-2.845,0.468v-1.224c0.853-0.324,1.866-0.486,3.042-0.486c1.225,0,2.136,0.249,2.736,0.747
		c0.6,0.498,0.9,1.293,0.9,2.385v5.58h-1.242L562.455,201.521z M559.468,198.568c-0.66,0-1.138,0.123-1.432,0.369
		s-0.44,0.633-0.44,1.161c0,0.492,0.161,0.843,0.485,1.053s0.804,0.315,1.44,0.315c1.212,0,2.172-0.414,2.88-1.242v-1.656
		L559.468,198.568L559.468,198.568z M561.637,191.81c0.306-0.282,0.459-0.693,0.459-1.233h0.936c0,0.864-0.246,1.5-0.738,1.908
		s-1.128,0.612-1.907,0.612c-0.78,0-1.417-0.204-1.908-0.612c-0.492-0.408-0.738-1.044-0.738-1.908h0.937
		c0,0.54,0.152,0.951,0.459,1.233c0.306,0.282,0.723,0.423,1.251,0.423C560.913,192.232,561.33,192.092,561.637,191.81z
		 M558.802,188.975h1.17l1.115,2.25h-1.062L558.802,188.975z"/>
	<path fill="#444444" d="M572.589,202.492v-5.525c0-0.517-0.066-0.915-0.198-1.197s-0.351-0.486-0.657-0.612
		c-0.306-0.126-0.747-0.188-1.323-0.188c-0.527,0-1.025,0.096-1.493,0.288c-0.469,0.191-0.87,0.456-1.206,0.792v6.443h-1.477v-8.532
		h1.332l0.09,0.973c0.937-0.768,2.04-1.152,3.313-1.152c1.08,0,1.865,0.252,2.357,0.756s0.738,1.296,0.738,2.376v5.58h-1.476
		V202.492z"/>
	<path fill="#444444" d="M582.012,202.816c-0.223-0.133-0.615-0.198-1.18-0.198h-2.268c-0.78,0-1.368-0.135-1.764-0.404
		c-0.396-0.271-0.595-0.663-0.595-1.18c0-0.371,0.114-0.711,0.343-1.017c0.228-0.306,0.558-0.525,0.989-0.657
		c-0.936-0.456-1.403-1.296-1.403-2.52c0-1.057,0.306-1.83,0.918-2.322c0.611-0.492,1.56-0.738,2.844-0.738
		c0.443,0,0.936,0.061,1.476,0.18h3.078l-0.054,1.009h-1.548c0.516,0.443,0.773,1.067,0.773,1.872c0,0.96-0.278,1.698-0.837,2.214
		c-0.558,0.516-1.401,0.773-2.528,0.773c-0.253,0-0.601-0.029-1.045-0.09c-0.396,0.024-0.75,0.135-1.062,0.333
		c-0.313,0.198-0.468,0.447-0.468,0.747c0,0.216,0.084,0.369,0.252,0.459s0.462,0.135,0.882,0.135h2.358
		c0.852,0,1.506,0.175,1.962,0.522c0.455,0.348,0.684,0.846,0.684,1.493c0,0.805-0.333,1.378-0.999,1.72s-1.671,0.513-3.015,0.513
		c-1.429,0-2.568-0.15-3.42-0.45v-1.224c0.468,0.155,0.999,0.275,1.593,0.359s1.179,0.127,1.755,0.127c0.66,0,1.17-0.024,1.53-0.072
		c0.359-0.048,0.63-0.142,0.81-0.279s0.271-0.351,0.271-0.639C582.345,203.17,582.233,202.948,582.012,202.816z M581.651,198.299
		c0.33-0.276,0.495-0.763,0.495-1.458c0-0.696-0.171-1.2-0.513-1.513c-0.343-0.312-0.922-0.468-1.737-0.468
		c-0.805,0-1.386,0.153-1.746,0.459s-0.54,0.813-0.54,1.521c0,0.672,0.174,1.151,0.522,1.439c0.348,0.288,0.936,0.433,1.764,0.433
		C580.736,198.713,581.321,198.574,581.651,198.299z"/>
	<path fill="#444444" d="M599.139,201.521c-0.372,0.396-0.825,0.688-1.358,0.873c-0.534,0.186-1.186,0.278-1.953,0.278
		c-0.864,0-1.581-0.222-2.151-0.665c-0.57-0.444-0.854-1.08-0.854-1.908s0.27-1.479,0.81-1.953s1.368-0.711,2.484-0.711h2.97v-0.522
		c0-0.479-0.066-0.854-0.198-1.125c-0.132-0.27-0.372-0.465-0.72-0.585c-0.349-0.119-0.853-0.18-1.512-0.18
		c-0.996,0-1.944,0.156-2.845,0.468v-1.224c0.853-0.324,1.866-0.486,3.042-0.486c1.225,0,2.136,0.249,2.736,0.747
		c0.6,0.498,0.9,1.293,0.9,2.385v5.58h-1.242L599.139,201.521z M596.151,198.568c-0.66,0-1.138,0.123-1.432,0.369
		s-0.44,0.633-0.44,1.161c0,0.492,0.161,0.843,0.485,1.053s0.804,0.315,1.44,0.315c1.212,0,2.172-0.414,2.88-1.242v-1.656
		L596.151,198.568L596.151,198.568z"/>
	<path fill="#444444" d="M610.64,198.227c0,1.476-0.345,2.586-1.034,3.33c-0.69,0.744-1.768,1.115-3.231,1.115
		s-2.541-0.371-3.231-1.115c-0.689-0.744-1.034-1.854-1.034-3.33c0-2.964,1.422-4.446,4.266-4.446S610.64,195.263,610.64,198.227z
		 M608.525,200.656c0.426-0.504,0.639-1.313,0.639-2.43s-0.216-1.926-0.648-2.43c-0.432-0.505-1.146-0.757-2.142-0.757
		s-1.71,0.252-2.142,0.757c-0.433,0.504-0.648,1.313-0.648,2.43s0.213,1.926,0.639,2.43s1.144,0.756,2.151,0.756
		S608.099,201.16,608.525,200.656z"/>
	<path fill="#444444" d="M621.026,193.96v5.454c0,0.709,0.177,1.23,0.53,1.566c0.354,0.336,0.903,0.504,1.647,0.504
		c0.527,0,1.025-0.096,1.494-0.288c0.468-0.191,0.869-0.456,1.206-0.792v-6.444h1.476v1.063c0.576-0.048,0.966-0.23,1.17-0.549
		s0.306-0.861,0.306-1.629h1.278c0,1.08-0.237,1.89-0.711,2.43c-0.475,0.54-1.155,0.816-2.043,0.828v6.39h-1.332l-0.09-0.972
		c-0.432,0.348-0.934,0.627-1.503,0.837c-0.57,0.21-1.173,0.314-1.81,0.314c-1.02,0-1.791-0.281-2.313-0.846
		c-0.522-0.563-0.783-1.386-0.783-2.466v-5.4H621.026z"/>
	<path fill="#444444" d="M639.151,195.022c0.469-0.012,0.825-0.087,1.071-0.225c0.246-0.139,0.417-0.36,0.513-0.666
		c0.097-0.307,0.145-0.735,0.145-1.287h1.278c0,1.056-0.198,1.836-0.595,2.34c-0.396,0.504-0.996,0.81-1.8,0.918
		c0.228,0.576,0.342,1.284,0.342,2.124c0,1.476-0.345,2.586-1.034,3.33c-0.69,0.744-1.768,1.115-3.231,1.115
		s-2.541-0.371-3.231-1.115c-0.689-0.744-1.034-1.854-1.034-3.33c0-2.964,1.422-4.446,4.266-4.446
		C637.328,193.78,638.432,194.194,639.151,195.022z M637.991,200.656c0.426-0.504,0.639-1.313,0.639-2.43s-0.216-1.926-0.648-2.43
		c-0.432-0.505-1.146-0.757-2.142-0.757s-1.71,0.252-2.142,0.757c-0.433,0.504-0.648,1.313-0.648,2.43s0.213,1.926,0.639,2.43
		s1.144,0.756,2.151,0.756S637.564,201.16,637.991,200.656z M636.668,190.072H638l-1.422,3.024h-1.188L636.668,190.072z"/>
	<path fill="#444444" d="M647.18,202.672c-1.464,0-2.563-0.38-3.294-1.143c-0.732-0.762-1.098-1.863-1.098-3.303
		c0-1.464,0.398-2.571,1.196-3.321s1.905-1.125,3.321-1.125c0.54,0,0.996,0.039,1.368,0.117s0.744,0.201,1.116,0.369v1.17
		c-0.648-0.312-1.387-0.468-2.214-0.468c-1.093,0-1.917,0.258-2.476,0.773c-0.558,0.517-0.837,1.345-0.837,2.484
		s0.252,1.968,0.756,2.483c0.504,0.517,1.338,0.774,2.502,0.774c0.828,0,1.59-0.155,2.286-0.468v1.188
		C649.052,202.516,648.176,202.672,647.18,202.672z"/>
</g>
</svg>
