<?xml version="1.0" encoding="utf-8"?>
<!-- Generator: Adobe Illustrator 17.0.0, SVG Export Plug-In . SVG Version: 6.00 Build 0)  -->
<!DOCTYPE svg PUBLIC "-//W3C//DTD SVG 1.1//EN" "http://www.w3.org/Graphics/SVG/1.1/DTD/svg11.dtd">
<svg version="1.1" id="Layer_1" xmlns="http://www.w3.org/2000/svg" xmlns:xlink="http://www.w3.org/1999/xlink" x="0px" y="0px"
	 width="180px" height="90px" viewBox="-30 -15 180 90" enable-background="new -30 -15 180 90" xml:space="preserve">
<g>
	<g>
		<g>
			<g>
				<defs>
					<rect id="SVGID_1_" x="-30" y="-15" width="180" height="90"/>
				</defs>
				<clipPath id="SVGID_2_">
					<use xlink:href="#SVGID_1_"  overflow="visible"/>
				</clipPath>
				<path clip-path="url(#SVGID_2_)" fill="#F58220" d="M145.374,62.899L145.776,63c0.804,0.3,1.206,0.701,1.206,1.399V64.5
					c-0.201,0.9-0.703,1.399-1.609,1.399h-4.827v-3H145.374L145.374,62.899z M137.43,60.5v13.9c0,0.3,0.201,0.5,0.603,0.6h1.911
					c0.301,0,0.503-0.2,0.603-0.701V69h5.028c0.804,0,1.609-0.3,2.413-0.701c1.409-1.001,2.112-2.201,2.112-3.6V64.2
					c0-0.6-0.201-1.3-0.603-2.1c-1.005-1.5-2.313-2.201-3.72-2.201h-7.643C137.631,59.899,137.43,60.101,137.43,60.5 M123.051,60.5
					V69c0,1.2,0.402,2.299,1.105,3.499c1.509,1.8,3.117,2.6,4.827,2.6h0.603c1.509,0,2.916-0.701,4.224-1.9
					c1.105-1.3,1.71-2.7,1.71-4.2v-8.501c-0.1-0.3-0.302-0.5-0.603-0.6h-1.911c-0.301,0-0.503,0.2-0.603,0.701v8
					c0,0.4-0.101,0.9-0.201,1.3c-0.703,1.3-1.71,1.999-2.916,1.999c-0.402,0-0.703-0.1-1.005-0.2
					c-1.509-0.6-2.313-1.601-2.313-3.101V60.6c-0.101-0.5-0.302-0.701-0.603-0.701h-1.911
					C123.252,59.899,123.051,60.101,123.051,60.5 M112.29,64.999c0.703-1.3,1.609-1.999,2.916-1.999c0.402,0,0.703,0.101,1.005,0.2
					c1.509,0.6,2.313,1.6,2.313,3.2v2.4c0,0.4,0,0.9-0.201,1.3c-0.703,1.3-1.71,1.999-2.916,1.999c-0.402,0-0.703-0.1-1.005-0.2
					c-1.509-0.6-2.313-1.601-2.313-3.101v-2.4C112.089,65.8,112.089,65.4,112.29,64.999 M112.089,60.701
					c-2.012,1.399-3.117,3.2-3.117,5.201v3c0,1.2,0.402,2.299,1.206,3.5c1.409,1.8,3.017,2.6,4.827,2.6h0.603
					c1.509,0,2.916-0.701,4.224-1.9c1.105-1.3,1.811-2.7,1.811-4.2v-3c0-1.1-0.402-2.201-1.105-3.4c-1.509-1.8-3.117-2.7-4.928-2.7
					h-0.603C114.101,59.899,113.196,60.2,112.089,60.701 M103.04,62.899c1.005,0.101,1.509,0.6,1.509,1.399v0.3
					c-0.201,0.799-0.804,1.2-1.71,1.2h-4.727v-3h4.928V62.899z M95.096,60.5v13.9c0.101,0.3,0.301,0.5,0.603,0.6h1.811
					c0.402,0,0.603-0.3,0.704-0.701V69h2.614l2.916,4.001c0.703,1.399,1.609,2.1,2.514,2.1h0.402c0.904-0.2,1.308-0.5,1.308-1v-0.3
					l-3.519-4.999l0.603-0.2c1.71-1,2.615-2.4,2.615-4.1c0-0.799-0.201-1.6-0.704-2.4c-1.005-1.399-2.313-2.201-3.72-2.201H95.7
					C95.397,59.899,95.096,60.101,95.096,60.5 M83.43,60.701c-2.012,1.399-3.117,3.2-3.117,5.201v3c0,1.2,0.402,2.299,1.105,3.5
					c1.509,1.8,3.117,2.6,4.827,2.6h6.033c0.301-0.101,0.503-0.3,0.603-0.6v-7.9c0-0.3-0.201-0.499-0.703-0.6h-4.827
					C86.748,66,86.447,66.2,86.447,66.6v0.4c0.402,1.399,1.105,2.1,2.414,2.1h0.904V72h-3.117c-0.301,0-0.703-0.101-1.005-0.101
					c-1.609-0.6-2.313-1.7-2.313-3.2v-2.4c0-0.3,0-0.6,0.101-0.9c0.603-1.6,1.609-2.4,3.217-2.4h3.922l0.603-0.101
					c1.105-0.5,1.609-1.2,1.609-2.1v-0.3c0-0.3-0.201-0.5-0.603-0.6h-6.033C85.542,59.899,84.537,60.2,83.43,60.701"/>
			</g>
		</g>
	</g>
	<g>
		<g>
			<g>
				<defs>
					<rect id="SVGID_3_" x="-30" y="-15" width="180" height="90"/>
				</defs>
				<clipPath id="SVGID_4_">
					<use xlink:href="#SVGID_3_"  overflow="visible"/>
				</clipPath>
				<path clip-path="url(#SVGID_4_)" fill="#015BA6" d="M59.196,60.3v14.1c0.101,0.3,0.301,0.5,0.603,0.6h1.911
					c0.301,0,0.502-0.2,0.603-0.701v-5.4h6.436v5.4C68.849,74.8,69.051,75,69.353,75h1.911c0.301-0.101,0.503-0.3,0.603-0.6V61.9
					v-0.4c-0.402-1.2-1.206-1.8-2.112-1.8h-0.301c-0.301,0-0.503,0.2-0.603,0.701v5.4h-6.437v-3.9l-0.101-0.6
					c-0.502-1.1-1.206-1.601-2.112-1.601H59.9C59.397,59.8,59.196,59.899,59.196,60.3 M44.815,60.5v13.9
					c0.101,0.3,0.301,0.5,0.603,0.6h1.911c0.301,0,0.502-0.2,0.603-0.701V65.7l5.631,7.601C54.269,74.4,54.67,75,54.972,75h1.911
					c0.301-0.101,0.502-0.3,0.603-0.6V60.5c-0.101-0.3-0.301-0.5-0.603-0.6h-1.911c-0.301,0-0.502,0.2-0.603,0.701v8.7l-5.43-7.5
					c-0.704-1.3-1.509-1.9-2.313-1.9h-1.105C45.017,59.899,44.815,60.101,44.815,60.5 M37.675,67.399L37.675,67.399L36.067,67.5
					l0.804-2.201C36.872,65.4,37.072,66.101,37.675,67.399 M35.362,60.2c-3.418,9.2-5.128,13.8-5.128,14V74.4
					c0.101,0.3,0.301,0.5,0.603,0.6h1.911c0.101,0,0.301-0.101,0.502-0.3c0.101-0.101,0.603-1.5,1.509-4.2h3.922l1.206,3
					c0.301,1.1,0.603,1.601,1.005,1.601h1.911c0.301-0.101,0.502-0.3,0.603-0.6v-0.3L38.58,61.701c-0.603-1.2-1.409-1.8-2.514-1.8
					h-0.301C35.766,59.899,35.563,60,35.362,60.2 M14.346,60.799v0.2V61.2c0,0.101,1.71,2.201,5.028,6.4v0.101l-3.72,4.7
					c-0.905,1-1.308,1.6-1.308,1.9C14.447,74.8,14.647,75,15.051,75h2.212l0.302-0.101c0.101-0.101,1.408-1.7,3.821-4.8l2.916,3.6
					c0.603,0.801,1.007,1.3,1.208,1.3h2.212c0.402,0,0.603-0.3,0.704-0.701l-0.101-0.3l-5.028-6.4l3.922-4.9
					c0.804-1,1.206-1.5,1.206-1.7v-0.2c-0.101-0.3-0.301-0.5-0.603-0.6h-2.212L25.308,60.3c-0.201,0.2-1.509,1.8-3.923,4.8
					l-2.615-3.3c-0.704-1.1-1.509-1.7-2.313-1.7h-1.609C14.547,60.2,14.346,60.4,14.346,60.799 M-6.57,60.5v0.3V61.2
					c0.402,1.2,1.206,1.8,2.212,1.8h2.514v11.4c0.101,0.5,0.302,0.701,0.603,0.701H0.67c0.302,0,0.502-0.2,0.603-0.701v-11.5h2.514
					l0.603-0.101c1.105-0.5,1.71-1.2,1.71-2.1v-0.3c-0.101-0.3-0.302-0.5-0.603-0.6H-5.966C-6.269,59.899-6.469,60.101-6.57,60.5
					 M-9.989,67.399L-9.989,67.399l-1.609,0.101l0.704-2.201C-10.794,65.4-10.491,66.101-9.989,67.399 M-12.201,60.2
					c-3.418,9.2-5.128,13.8-5.128,14V74.4c0.101,0.3,0.302,0.5,0.603,0.6h2.011c0.101,0,0.302-0.101,0.502-0.3
					c0.101-0.101,0.603-1.5,1.509-4.2h3.923l1.206,3c0.302,1.1,0.603,1.601,1.005,1.601h1.911c0.302-0.101,0.502-0.3,0.603-0.6v-0.3
					l-4.827-12.499c-0.603-1.2-1.509-1.8-2.514-1.8h-0.402C-11.899,59.899-12,60-12.201,60.2 M-23.766,62.899
					c0.302,0,0.603,0.101,1.005,0.101c1.609,0.5,2.313,1.601,2.313,3.2v2.4c0,0.3-0.101,0.6-0.101,1.001
					c-0.502,1.6-1.609,2.299-3.218,2.299h-3.117v-9H-23.766L-23.766,62.899z M-30,60.5v13.9c0.1,0.3,0.302,0.5,0.603,0.6h6.033
					c1.509,0,2.916-0.701,4.224-1.9c1.206-1.3,1.71-2.7,1.71-4.2v-3c0-1.1-0.402-2.201-1.105-3.4c-1.408-1.8-3.117-2.7-4.927-2.7
					h-6.033C-29.698,59.899-29.9,60.101-30,60.5"/>
			</g>
		</g>
	</g>
	<g>
		<g>
			<g>
				<defs>
					<rect id="SVGID_5_" x="-30" y="-15" width="180" height="90"/>
				</defs>
				<clipPath id="SVGID_6_">
					<use xlink:href="#SVGID_5_"  overflow="visible"/>
				</clipPath>
				<path clip-path="url(#SVGID_6_)" fill="#00AEEF" d="M82.325,25.699c0.703-1.1,1.005-2,1.308-3l-9.855-15.6
					c0,0.199-0.101,0.199-0.101,0.5c-1.105,4.5-3.922,10.8-15.989,17.7c-28.458,16.2-31.575,17.801-35.196,19.8
					c0,0,13.776-3.3,43.341-10.301C73.776,32.899,79.71,29.801,82.325,25.699"/>
			</g>
		</g>
	</g>
	<g>
		<g>
			<g>
				<defs>
					<rect id="SVGID_7_" x="-30" y="-15" width="180" height="90"/>
				</defs>
				<clipPath id="SVGID_8_">
					<use xlink:href="#SVGID_7_"  overflow="visible"/>
				</clipPath>
				<path clip-path="url(#SVGID_8_)" fill="#F58220" d="M97.609,45.101L85.24,25.401c-0.201,0.6-0.503,1-0.804,1.601
					c-2.916,4.601-8.849,8.2-17.699,10.001c-27.754,5.5-32.481,6.101-44.346,8.1h75.218V45.101z"/>
			</g>
		</g>
	</g>
	<g>
		<g>
			<g>
				<defs>
					<rect id="SVGID_9_" x="-30" y="-15" width="180" height="90"/>
				</defs>
				<clipPath id="SVGID_10_">
					<use xlink:href="#SVGID_9_"  overflow="visible"/>
				</clipPath>
				<path clip-path="url(#SVGID_10_)" fill="#015BA6" d="M22.391,45.101c0,0,9.654-6.6,33.988-21.8
					C64.425,18.3,69.855,12.9,71.362,7c0.301-1.2,0.402-2.1,0.402-3L60-15L22.391,45.101z"/>
			</g>
		</g>
	</g>
</g>
</svg>
