<?xml version="1.0" encoding="utf-8"?>
<!-- Generator: Adobe Illustrator 17.0.0, SVG Export Plug-In . SVG Version: 6.00 Build 0)  -->
<!DOCTYPE svg PUBLIC "-//W3C//DTD SVG 1.1//EN" "http://www.w3.org/Graphics/SVG/1.1/DTD/svg11.dtd">
<svg version="1.1" id="Layer_1" xmlns="http://www.w3.org/2000/svg" xmlns:xlink="http://www.w3.org/1999/xlink" x="0px" y="0px"
	 width="146px" height="33px" viewBox="0 0 146 33" enable-background="new 0 0 146 33" xml:space="preserve">
<g>
	<defs>
		<rect id="SVGID_1_" y="0.3" width="146" height="32.399"/>
	</defs>
	<clipPath id="SVGID_2_">
		<use xlink:href="#SVGID_1_"  overflow="visible"/>
	</clipPath>
	<path clip-path="url(#SVGID_2_)" fill="#EE3235" d="M141.72,17.383c-2.024,0.533-3.848,3.07-5.773,4.99v4.852
		c0.024-0.003,0.047-0.007,0.07-0.015v0.005c1.224-0.213,2.751-1.924,4.278-3.634c1.834-1.923,3.565-3.954,5.705-6.199H141.72"/>
	<path clip-path="url(#SVGID_2_)" fill="#118950" d="M82.421,10.331h8.482c3.115,0.058,5.955,1.877,5.93,5.295
		c-0.016,1.983-0.435,3.645-2.767,4.833c2.403,0.85,4.017,3.108,4.21,5.564c0.235,2.972-1.2,5.747-5.803,6.305
		c-0.606,0.08-1.528,0.123-3.862,0.123h-6.169L82.421,10.331 M86.083,13.557v5.588h1.98c1.559,0,2.269,0.004,2.648-0.047
		c0.684-0.1,1.416-0.505,1.806-0.984c0.394-0.477,0.661-1.02,0.661-1.805c0-0.747-0.218-1.287-0.557-1.752
		c-0.341-0.468-0.932-0.75-1.596-0.844c-0.4-0.057-1.403-0.155-3.286-0.155L86.083,13.557L86.083,13.557z M86.089,22.235v6.8h3.344
		c1.469,0,2.391-0.068,2.793-0.156c1.278-0.278,2.228-1.653,2.169-2.929c-0.138-3.043-3.479-3.697-4.901-3.715H86.089z"/>
	<rect x="131.984" y="10.331" clip-path="url(#SVGID_2_)" fill="#118950" width="3.962" height="22.109"/>
	<path clip-path="url(#SVGID_2_)" fill="#118950" d="M44.229,10.331h4.031c0.979,6.972,2.564,13.123,4.934,18.223
		c2.771-6.805,4.197-12.792,4.697-18.223h3.983c-1.01,7.294-2.862,14.568-6.782,22.109h-4.032
		C47.317,25.617,45.437,18.154,44.229,10.331"/>
	<path clip-path="url(#SVGID_2_)" fill="#118950" d="M78.618,12.798c-0.777-1.103-1.75-1.819-2.907-2.144
		c-0.751-0.222-2.367-0.332-4.844-0.332H64.33l0.004,7.51V32.44h4.02v-8.458h2.705c1.845,0,3.175-0.179,4.148-0.401
		c0.715-0.159,1.416-0.516,2.108-1.035c0.696-0.526,1.261-1.248,1.716-2.167c0.449-0.913,0.759-1.964,0.759-3.313
		C79.791,15.326,79.398,13.901,78.618,12.798 M75.507,19.04c-0.344,0.551-0.819,0.952-1.424,1.21
		c-0.606,0.254-1.816,0.383-3.619,0.383h-2.11v-6.976h1.82c1.648,0,2.741,0.053,3.291,0.163c0.737,0.148,1.355,0.511,1.834,1.089
		c0.485,0.585,0.729,1.326,0.729,2.216C76.029,17.854,75.852,18.489,75.507,19.04"/>
	<path clip-path="url(#SVGID_2_)" fill="#118950" d="M113.377,30.442c0-3.332,0.008-6.091,0.008-9.417
		c-0.092-2.083-0.855-3.848-2.848-4.365c-2.751-0.705-5.696-0.196-8.672,0.82c-0.078,0.033-0.413,0.171-0.708,0.315l0.15,0.351
		v0.018c0.036,0.073,0.07,0.152,0.106,0.228l0.84,1.967c1.269-0.654,2.571-0.929,3.884-1.148c2.007-0.279,3.287,0.423,3.391,1.662
		v1.479c-3.631,0.053-5.892,0.542-7.502,1.737c-1.204,1.155-1.847,2.79-1.324,5.428c0.097,0.402,0.269,0.979,0.551,1.468
		c0.808,1.246,2.049,1.749,3.611,1.712c2.102-0.053,3.593-0.95,4.858-2.16c0.112,0.61,0.312,1.288,0.686,1.895h3.133
		C113.455,32,113.407,31.246,113.377,30.442 M109.551,28.169c-0.944,1.136-4.669,3.371-5.144-0.12l-0.039-1.208
		c0.126-1.189,0.879-2.002,2.898-2.164c0.763,0.013,1.524,0.026,2.285,0.042V28.169z"/>
	<path clip-path="url(#SVGID_2_)" fill="#118950" d="M125.771,16.07c-1.65-0.068-3.196,0.376-4.599,1.139
		c-0.004,0.002-0.006,0.003-0.012,0.005c-0.598,0.302-1.389,0.876-1.389,0.876l-0.118-1.727h-3.387v16.067h3.925V20.382
		c1.51-0.88,4.677-2.543,4.98,0.103v11.982h4.012V19.96C129.12,17.443,127.869,16.24,125.771,16.07"/>
	<path clip-path="url(#SVGID_2_)" fill="#EE3235" d="M18.429,8.889v12.974l-4.866-5.343c-1.31-1.528-2.806-2.671-2.994-5.914V0.3
		L18.429,8.889"/>
	<path clip-path="url(#SVGID_2_)" fill="#EE3235" d="M19.734,8.889v12.974L24.6,16.52c1.494-1.528,2.807-2.671,2.994-5.914V0.3
		L19.734,8.889"/>
	<path clip-path="url(#SVGID_2_)" fill="#EE3235" d="M7.857,14.367H0c3.926,4.121,7.109,7.851,10.476,11.383
		c2.806,3.142,5.613,6.283,7.858,6.675V32.42c0.03,0.008,0.061,0.013,0.094,0.02v-8.944C14.907,19.975,11.567,15.341,7.857,14.367"
		/>
	<path clip-path="url(#SVGID_2_)" fill="#EE3235" d="M30.34,14.367c-3.72,0.976-7.07,5.639-10.606,9.165v8.913
		c0.045-0.006,0.087-0.017,0.13-0.026v0.005c2.246-0.392,5.053-3.533,7.857-6.675c3.371-3.531,6.55-7.261,10.478-11.383
		L30.34,14.367"/>
	<path clip-path="url(#SVGID_2_)" fill="#118950" d="M137.785,26.189l4.176,6.251H146l-5.826-8.724
		C139.36,24.628,138.548,25.526,137.785,26.189"/>
	<path clip-path="url(#SVGID_2_)" fill="#EE3235" d="M141.72,17.383c-2.024,0.533-3.848,3.07-5.773,4.99v4.852
		c0.024-0.003,0.047-0.007,0.07-0.015v0.005c1.224-0.213,2.751-1.924,4.278-3.634c1.834-1.923,3.565-3.954,5.705-6.199H141.72"/>
</g>
</svg>
