<?xml version="1.0" encoding="utf-8"?>
<!-- Generator: Adobe Illustrator 17.0.0, SVG Export Plug-In . SVG Version: 6.00 Build 0)  -->
<!DOCTYPE svg PUBLIC "-//W3C//DTD SVG 1.1//EN" "http://www.w3.org/Graphics/SVG/1.1/DTD/svg11.dtd">
<svg version="1.1" id="Layer_1" xmlns="http://www.w3.org/2000/svg" xmlns:xlink="http://www.w3.org/1999/xlink" x="0px" y="0px"
	 width="386px" height="190px" viewBox="0 -61 386 190" enable-background="new 0 -61 386 190" xml:space="preserve">
<g>
	<g>
		<path fill="#FFFFFF" d="M19.668,68.932c-0.555,0.109-0.988,0.428-1.301,0.955s-0.477,1.162-0.492,1.904
			c-0.148,6.992-0.18,12.406-0.094,16.242c-4.422-5.18-8.895-10.035-13.418-14.566C4.3,75.787,4.316,79.315,4.41,84.049
			c0,0.766,0.16,1.414,0.48,1.945c0.32,0.578,0.766,0.922,1.336,1.031H6.203c-0.234-0.031-1.008-0.047-2.32-0.047
			c-1.43-0.016-2.352,0-2.766,0.047H1c1.172-0.258,1.773-1.219,1.805-2.883c0.109-4.889,0.101-10.303-0.024-16.241
			c1.805,2.031,4.035,4.461,6.691,7.289c2.289,2.422,4.57,4.832,6.844,7.23c0.047-3.375,0.039-6.887-0.023-10.535
			c-0.016-0.773-0.184-1.436-0.504-1.986c-0.32-0.55-0.77-0.873-1.348-0.967c0-0.016,0.016-0.023,0.047-0.023
			c0.242,0.031,1.02,0.047,2.332,0.047c1.406,0.016,2.316,0,2.73-0.047C19.629,68.909,19.668,68.917,19.668,68.932z"/>
		<path fill="#FFFFFF" d="M33.484,69.87c0.664,0.398,1.293,0.891,1.887,1.477c1.805,1.828,2.707,4.031,2.707,6.609
			c0,2.563-0.904,4.76-2.713,6.592c-1.809,1.832-3.986,2.748-6.533,2.748c-2.539,0-4.709-0.912-6.51-2.736s-2.701-4.025-2.701-6.604
			c0-2.579,0.9-4.779,2.701-6.604c1.801-1.825,3.971-2.736,6.51-2.736c1.594,0,3.047,0.359,4.359,1.078
			c0.133-0.07,0.289-0.164,0.469-0.281c0.422-0.297,0.695-0.562,0.82-0.797c-0.328-0.07-0.598-0.242-0.809-0.516
			c-0.398-0.492-0.422-1-0.07-1.523c0.156-0.234,0.363-0.406,0.621-0.516c0.438-0.172,0.844-0.133,1.219,0.117
			c0.359,0.234,0.563,0.541,0.609,0.92s-0.047,0.752-0.281,1.119c-0.406,0.617-0.969,1.09-1.688,1.418
			C33.848,69.737,33.648,69.815,33.484,69.87z M35.488,77.136c-0.258-2.109-1.055-3.881-2.391-5.314s-2.883-2.15-4.641-2.15
			c-1.953,0-3.539,0.867-4.758,2.602c-1.07,1.516-1.605,3.297-1.605,5.344c0,2.164,0.648,4.102,1.945,5.813
			c1.406,1.852,3.156,2.777,5.25,2.777c1.953,0,3.523-0.805,4.711-2.414c1.055-1.445,1.582-3.184,1.582-5.215
			C35.582,78.1,35.551,77.62,35.488,77.136z"/>
		<path fill="#FFFFFF" d="M45.438,87.026c0,0.016-0.016,0.023-0.047,0.023c-2.016-0.063-4.016-0.063-6,0
			c-0.047,0-0.07-0.008-0.07-0.023c1.234-0.227,1.875-1.098,1.922-2.613c0.125-3.508,0.125-7.844,0-13.008
			c-0.031-1.391-0.633-2.207-1.805-2.449c0.992,0.031,1.977,0.047,2.953,0.047s1.953-0.016,2.93-0.047
			c0.016-0.016,0.023-0.016,0.023,0c-1.188,0.242-1.797,1.059-1.828,2.449c-0.109,5.344-0.109,9.68,0,13.008
			C43.586,85.913,44.227,86.784,45.438,87.026z"/>
		<path fill="#FFFFFF" d="M76.926,86.979c0,0.031-0.02,0.047-0.059,0.047c-0.383-0.031-1.461-0.047-3.234-0.047
			s-2.75,0.016-2.93,0.047c-0.016,0.016-0.031,0-0.047-0.047c0.578-0.094,1.035-0.422,1.371-0.984
			c0.305-0.516,0.457-1.148,0.457-1.898c0-2.445-0.098-5.66-0.293-9.645c-2.336,4.336-4.598,8.664-6.785,12.984
			c-1.477-2.836-3.797-7.156-6.961-12.961c0,0.258-0.059,1.922-0.176,4.992c-0.078,2.016-0.102,3.672-0.07,4.969
			c0.047,1.531,0.617,2.379,1.711,2.543c-0.016,0.031-0.051,0.039-0.105,0.023c-2.219-0.078-3.93-0.07-5.133,0.023
			c-0.031,0.016-0.047,0.008-0.047-0.023c0.609-0.094,1.09-0.422,1.441-0.984c0.305-0.477,0.48-1.035,0.527-1.676
			c0.414-5.219,0.688-10.707,0.82-16.465c1.984,3.758,3.359,6.34,4.125,7.746c1.516,2.836,2.945,5.414,4.289,7.734
			c2.578-4.438,5.332-9.559,8.262-15.363c0.172,6.242,0.453,11.684,0.844,16.324C75.074,85.85,75.738,86.737,76.926,86.979z"/>
		<path fill="#FFFFFF" d="M96.215,86.979c0,0.031-0.078,0.039-0.234,0.023c-1.523-0.047-3.238-0.047-5.145,0
			c-0.094,0-0.133-0.008-0.117-0.023c0.547-0.18,0.82-0.598,0.82-1.254c0-0.398-0.105-0.867-0.316-1.406l-1.629-4.031H82.75
			l-1.359,3.504c-0.344,0.844-0.516,1.523-0.516,2.039c0,0.656,0.25,1.047,0.75,1.172h-0.047c-1.773-0.031-3.414-0.031-4.922,0
			c-0.016,0-0.023-0.008-0.023-0.023c1.117-0.227,2.078-1.203,2.883-2.93c1.266-2.734,3.52-8.055,6.762-15.961
			c1.828,4.047,4.398,9.551,7.711,16.512C94.676,85.944,95.418,86.737,96.215,86.979z M89.09,79.128l-3.07-6.984l-2.836,6.984H89.09
			z"/>
		<path fill="#FFFFFF" d="M115.621,68.932c-0.555,0.109-0.988,0.428-1.301,0.955s-0.477,1.162-0.492,1.904
			c-0.148,6.992-0.18,12.406-0.094,16.242c-4.422-5.18-8.895-10.035-13.418-14.566c-0.063,2.32-0.047,5.848,0.047,10.582
			c0,0.766,0.16,1.414,0.48,1.945c0.32,0.578,0.766,0.922,1.336,1.031h-0.023c-0.234-0.031-1.008-0.047-2.32-0.047
			c-1.43-0.016-2.352,0-2.766,0.047h-0.117c1.172-0.258,1.773-1.219,1.805-2.883c0.109-4.891,0.102-10.305-0.023-16.242
			c1.805,2.031,4.035,4.461,6.691,7.289c2.289,2.422,4.57,4.832,6.844,7.23c0.047-3.375,0.039-6.887-0.023-10.535
			c-0.016-0.773-0.184-1.436-0.504-1.986c-0.32-0.55-0.77-0.873-1.348-0.967c0-0.016,0.016-0.023,0.047-0.023
			c0.242,0.031,1.02,0.047,2.332,0.047c1.406,0.016,2.316,0,2.73-0.047C115.582,68.909,115.621,68.917,115.621,68.932z"/>
		<path fill="#FFFFFF" d="M134.219,77.886c-0.539,0.109-0.906,0.395-1.102,0.855c-0.125,0.336-0.203,0.922-0.234,1.758
			c0,1.164,0.008,2.813,0.023,4.945c-0.641,0.508-1.625,0.938-2.953,1.289c-1.406,0.391-2.824,0.586-4.254,0.586
			c-0.977,0-1.871-0.098-2.684-0.293c-2.43-0.578-4.316-1.746-5.66-3.504c-1.219-1.57-1.828-3.371-1.828-5.402
			c0-2.641,0.936-4.865,2.807-6.674s4.158-2.729,6.861-2.76c2.305-0.031,4.648,0.273,7.031,0.914
			c-0.094,2.656-0.141,3.969-0.141,3.938h-0.023c-0.352-1.18-1.297-2.133-2.836-2.859c-1.273-0.586-2.52-0.879-3.738-0.879
			c-2.398,0.031-4.285,0.863-5.66,2.496C118.609,73.749,118,75.554,118,77.71c0,2.258,0.648,4.195,1.945,5.813
			c1.438,1.773,3.348,2.66,5.73,2.66c1.75,0,3.414-0.43,4.992-1.289v-4.395c0-1.586-0.473-2.457-1.418-2.613
			c0-0.016,0.066-0.023,0.199-0.023c1.586,0.047,3.152,0.047,4.699,0C134.18,77.862,134.203,77.87,134.219,77.886z"/>
		<path fill="#FFFFFF" d="M158.02,81.893c0.063,0.047-0.043,0.521-0.316,1.424s-0.48,1.521-0.621,1.857
			c-0.305,0.703-0.535,1.152-0.691,1.348c-0.258,0.32-0.637,0.48-1.137,0.48h-12.117c-0.047,0-0.07-0.008-0.07-0.023
			c0.578-0.078,1.043-0.354,1.395-0.826s0.535-1.061,0.551-1.764c0.125-3.508,0.125-7.852,0-13.031
			c-0.031-1.375-0.633-2.184-1.805-2.426v-0.023c0.977,0.047,1.961,0.07,2.953,0.07c0.977,0,1.953-0.023,2.93-0.07
			c0.016,0,0.023,0.008,0.023,0.023c-1.18,0.242-1.789,1.051-1.828,2.426c-0.094,4.797-0.094,9.141,0,13.031
			c0.039,0.914,0.441,1.395,1.207,1.441c1.938,0.125,3.488,0.066,4.652-0.176C155.98,85.085,157.605,83.831,158.02,81.893z"/>
		<path fill="#FFFFFF" d="M177.813,86.979c0,0.031-0.078,0.039-0.234,0.023c-1.523-0.047-3.238-0.047-5.145,0
			c-0.094,0-0.133-0.008-0.117-0.023c0.547-0.18,0.82-0.598,0.82-1.254c0-0.398-0.105-0.867-0.316-1.406l-1.629-4.031h-6.844
			l-1.359,3.504c-0.344,0.844-0.516,1.523-0.516,2.039c0,0.656,0.25,1.047,0.75,1.172h-0.047c-1.773-0.031-3.414-0.031-4.922,0
			c-0.016,0-0.023-0.008-0.023-0.023c1.117-0.227,2.078-1.203,2.883-2.93c1.266-2.734,3.52-8.055,6.762-15.961
			c1.828,4.047,4.398,9.551,7.711,16.512C176.273,85.944,177.016,86.737,177.813,86.979z M170.688,79.128l-3.07-6.984l-2.836,6.984
			H170.688z M169.105,89.71c0,0.367-0.139,0.682-0.416,0.943s-0.6,0.393-0.967,0.393c-0.375,0-0.697-0.131-0.967-0.393
			s-0.404-0.576-0.404-0.943c0-0.391,0.135-0.721,0.404-0.99c0.269-0.269,0.592-0.404,0.967-0.404c0.367,0,0.689,0.135,0.967,0.404
			C168.967,88.989,169.105,89.319,169.105,89.71z"/>
		<path fill="#FFFFFF" d="M184.668,87.026c0,0.016-0.016,0.023-0.047,0.023c-2.016-0.063-4.016-0.063-6,0
			c-0.047,0-0.07-0.008-0.07-0.023c1.234-0.227,1.875-1.098,1.922-2.613c0.125-3.508,0.125-7.844,0-13.008
			c-0.031-1.391-0.633-2.207-1.805-2.449c0.992,0.031,1.977,0.047,2.953,0.047s1.953-0.016,2.93-0.047
			c0.016-0.016,0.023-0.016,0.023,0c-1.188,0.242-1.797,1.059-1.828,2.449c-0.109,5.344-0.109,9.68,0,13.008
			C182.816,85.913,183.457,86.784,184.668,87.026z"/>
		<path fill="#FFFFFF" d="M77.77,112.886c0.063,1.758,0.52,3.348,1.371,4.77c0.945,1.555,2.184,2.531,3.715,2.93
			c0.688,0.18,1.418,0.27,2.191,0.27c1.469,0,2.844-0.313,4.125-0.938c1.359-0.672,2.367-1.602,3.023-2.789
			c0.094,0.031-0.031,0.604-0.375,1.717c-0.344,1.113-0.609,1.732-0.797,1.857c-0.656,0.422-1.539,0.766-2.648,1.031
			c-1.195,0.305-2.363,0.457-3.504,0.457c-0.813,0-1.547-0.078-2.203-0.234c-2.43-0.594-4.316-1.762-5.66-3.504
			c-1.203-1.57-1.805-3.355-1.805-5.355c0-2.641,0.945-4.855,2.836-6.645c1.836-1.758,4.09-2.688,6.762-2.789
			c1.875-0.063,4.141,0.234,6.797,0.891c0,0.992-0.008,2.234-0.023,3.727c0,0.141-0.023,0.316-0.07,0.527
			c-0.039-0.883-0.719-1.773-2.039-2.672c-1.398-0.945-2.855-1.426-4.371-1.441c-2.398-0.031-4.27,0.809-5.613,2.52
			C78.277,108.737,77.707,110.628,77.77,112.886z"/>
		<path fill="#FFFFFF" d="M111.004,121.979c0,0.031-0.016,0.047-0.047,0.047c-0.508-0.047-1.852-0.047-4.031,0
			c0.016-0.109,0.039-0.895,0.07-2.355c-1.375,1.711-3.23,2.566-5.566,2.566c-1.891-0.016-3.473-0.605-4.746-1.77
			c-1.344-1.25-2.027-2.867-2.051-4.852c0.023-2.125,0.023-5.203,0-9.234c-0.031-1.406-0.605-2.223-1.723-2.449v-0.023
			c0.992,0.047,1.953,0.07,2.883,0.07s1.891-0.023,2.883-0.07v0.023c-1.188,0.242-1.797,1.059-1.828,2.449c0,0.273,0,3.184,0,8.73
			c0,2.18,0.695,3.836,2.086,4.969c1.281,1.039,2.723,1.32,4.324,0.844c1.711-0.516,2.973-1.766,3.785-3.75
			c0.063-3.852,0.063-7.449,0-10.793c-0.016-1.375-0.664-2.191-1.945-2.449c0-0.016,0.008-0.023,0.023-0.023
			c1.922,0.094,3.844,0.094,5.766,0c0.016,0,0.023,0.008,0.023,0.023c-1.102,0.227-1.668,1.043-1.699,2.449
			c-0.117,5.344-0.117,9.688,0,13.031C109.273,120.913,109.871,121.768,111.004,121.979z"/>
		<path fill="#FFFFFF" d="M129.461,112.956c0,2.563-0.904,4.76-2.713,6.592c-1.809,1.832-3.986,2.748-6.533,2.748
			c-2.539,0-4.709-0.912-6.51-2.736c-1.801-1.824-2.701-4.025-2.701-6.604s0.9-4.779,2.701-6.604
			c1.801-1.825,3.971-2.736,6.51-2.736c2.547,0,4.725,0.912,6.533,2.736C128.556,108.176,129.461,110.378,129.461,112.956z
			 M126.871,112.136c-0.258-2.109-1.055-3.881-2.391-5.314s-2.883-2.15-4.641-2.15c-1.953,0-3.539,0.867-4.758,2.602
			c-1.07,1.516-1.605,3.297-1.605,5.344c0,2.164,0.648,4.102,1.945,5.813c1.406,1.852,3.156,2.777,5.25,2.777
			c1.953,0,3.523-0.805,4.711-2.414c1.055-1.445,1.582-3.184,1.582-5.215C126.965,113.1,126.934,112.62,126.871,112.136z
			 M124.305,102.011c-0.656,0.109-1.137,0.164-1.441,0.164c-0.469,0-0.789-0.086-0.961-0.258l-1.688-1.828l-1.676,1.828
			c-0.172,0.172-0.492,0.258-0.961,0.258c-0.289,0-0.77-0.055-1.441-0.164c0.336-0.156,0.715-0.395,1.137-0.715l2.941-2.332
			l2.953,2.332C123.59,101.616,123.969,101.854,124.305,102.011z M121.609,124.71c0,0.367-0.139,0.682-0.416,0.943
			s-0.604,0.393-0.979,0.393c-0.367,0-0.686-0.131-0.955-0.393s-0.404-0.576-0.404-0.943c0-0.391,0.135-0.721,0.404-0.99
			c0.269-0.269,0.588-0.404,0.955-0.404c0.375,0,0.701,0.135,0.979,0.404C121.471,123.989,121.609,124.319,121.609,124.71z"/>
		<path fill="#FFFFFF" d="M133.223,112.886c0.063,1.758,0.52,3.348,1.371,4.77c0.945,1.555,2.184,2.531,3.715,2.93
			c0.688,0.18,1.418,0.27,2.191,0.27c1.469,0,2.844-0.313,4.125-0.938c1.359-0.672,2.367-1.602,3.023-2.789
			c0.094,0.031-0.031,0.604-0.375,1.717c-0.344,1.113-0.609,1.732-0.797,1.857c-0.656,0.422-1.539,0.766-2.648,1.031
			c-1.195,0.305-2.363,0.457-3.504,0.457c-0.813,0-1.547-0.078-2.203-0.234c-2.43-0.594-4.316-1.762-5.66-3.504
			c-1.203-1.57-1.805-3.355-1.805-5.355c0-2.641,0.945-4.855,2.836-6.645c1.836-1.758,4.09-2.688,6.762-2.789
			c1.875-0.063,4.141,0.234,6.797,0.891c0,0.992-0.008,2.234-0.023,3.727c0,0.141-0.023,0.316-0.07,0.527
			c-0.039-0.883-0.719-1.773-2.039-2.672c-1.398-0.945-2.855-1.426-4.371-1.441c-2.398-0.031-4.27,0.809-5.613,2.52
			C133.73,108.737,133.16,110.628,133.223,112.886z"/>
		<path fill="#FFFFFF" d="M162.496,122.19c-1.234-0.047-2.457-0.293-3.668-0.738c-0.867-0.32-1.371-0.871-1.512-1.652
			c-0.102-0.531-0.223-2.063-0.363-4.594c-0.016-0.219,0.016-0.336,0.094-0.352c-0.031,0.859,0.219,1.754,0.75,2.684
			c0.492,0.867,1.141,1.578,1.945,2.133c1.102,0.773,2.363,1.16,3.785,1.16c1.07,0,1.969-0.25,2.695-0.75
			c0.813-0.539,1.281-1.332,1.406-2.379c0.016-0.141,0.023-0.273,0.023-0.398c0-0.945-0.496-1.715-1.488-2.309
			c-0.477-0.305-1.57-0.77-3.281-1.395c-1.539-0.555-2.652-1.105-3.34-1.652c-1.086-0.852-1.629-1.996-1.629-3.434
			c0-0.852,0.223-1.629,0.668-2.332c0.5-0.781,1.285-1.402,2.355-1.863c0.992-0.422,2.055-0.641,3.188-0.656
			c1.734-0.016,3.543,0.219,5.426,0.703c-0.047,1.359-0.102,2.871-0.164,4.535c0,0.047-0.008,0.07-0.023,0.07
			c-0.016-1.25-0.609-2.289-1.781-3.117c-1.039-0.742-2.176-1.113-3.41-1.113c-0.844,0-1.625,0.18-2.344,0.539
			c-0.789,0.398-1.332,0.949-1.629,1.652c-0.133,0.32-0.199,0.656-0.199,1.008c0,0.844,0.336,1.547,1.008,2.109
			c0.563,0.461,1.434,0.91,2.613,1.348c1.008,0.352,2.016,0.711,3.023,1.078c2.086,0.883,3.129,2.18,3.129,3.891
			c0,1.695-0.801,3.125-2.402,4.289C165.879,121.733,164.254,122.245,162.496,122.19z"/>
		<path fill="#FFFFFF" d="M189.016,112.956c0,2.563-0.904,4.76-2.713,6.592c-1.809,1.832-3.986,2.748-6.533,2.748
			c-2.539,0-4.709-0.912-6.51-2.736c-1.801-1.824-2.701-4.025-2.701-6.604s0.9-4.779,2.701-6.604
			c1.801-1.825,3.971-2.736,6.51-2.736c2.547,0,4.725,0.912,6.533,2.736C188.111,108.176,189.016,110.378,189.016,112.956z
			 M186.426,112.136c-0.258-2.109-1.055-3.881-2.391-5.314s-2.883-2.15-4.641-2.15c-1.953,0-3.539,0.867-4.758,2.602
			c-1.07,1.516-1.605,3.297-1.605,5.344c0,2.164,0.648,4.102,1.945,5.813c1.406,1.852,3.156,2.777,5.25,2.777
			c1.953,0,3.523-0.805,4.711-2.414c1.055-1.445,1.582-3.184,1.582-5.215C186.52,113.1,186.488,112.62,186.426,112.136z
			 M183.859,102.011c-0.656,0.109-1.137,0.164-1.441,0.164c-0.469,0-0.789-0.086-0.961-0.258l-1.688-1.828l-1.676,1.828
			c-0.172,0.172-0.492,0.258-0.961,0.258c-0.289,0-0.77-0.055-1.441-0.164c0.336-0.156,0.715-0.395,1.137-0.715l2.941-2.332
			l2.953,2.332C183.145,101.616,183.523,101.854,183.859,102.011z M185.465,96.163l-0.023,0.023c-0.125,0.133-0.262,0.27-0.41,0.41
			c-0.719,0.852-1.352,1.613-1.898,2.285c-0.094,0.125-0.285,0.27-0.574,0.434c-0.32,0.047-0.781,0.117-1.383,0.211
			c-0.016-0.016,0.031-0.088,0.141-0.217s0.18-0.217,0.211-0.264l1.137-2.133c0.125-0.242,0.332-0.387,0.621-0.434L185.465,96.163z"
			/>
		<path fill="#FFFFFF" d="M209.523,103.932c-0.555,0.109-0.988,0.428-1.301,0.955s-0.477,1.162-0.492,1.904
			c-0.148,6.992-0.18,12.406-0.094,16.242c-4.422-5.18-8.895-10.035-13.418-14.566c-0.063,2.32-0.047,5.848,0.047,10.582
			c0,0.766,0.16,1.414,0.48,1.945c0.32,0.578,0.766,0.922,1.336,1.031h-0.023c-0.234-0.031-1.008-0.047-2.32-0.047
			c-1.43-0.016-2.352,0-2.766,0.047h-0.117c1.172-0.258,1.773-1.219,1.805-2.883c0.109-4.891,0.102-10.305-0.023-16.242
			c1.805,2.031,4.035,4.461,6.691,7.289c2.289,2.422,4.57,4.832,6.844,7.23c0.047-3.375,0.039-6.887-0.023-10.535
			c-0.016-0.773-0.184-1.436-0.504-1.986s-0.77-0.873-1.348-0.967c0-0.016,0.016-0.023,0.047-0.023
			c0.242,0.031,1.02,0.047,2.332,0.047c1.406,0.016,2.316,0,2.73-0.047C209.484,103.909,209.523,103.917,209.523,103.932z"/>
		<path fill="#FFFFFF" d="M228.121,112.886c-0.539,0.109-0.906,0.395-1.102,0.855c-0.125,0.336-0.203,0.922-0.234,1.758
			c0,1.164,0.008,2.813,0.023,4.945c-0.641,0.508-1.625,0.938-2.953,1.289c-1.406,0.391-2.824,0.586-4.254,0.586
			c-0.977,0-1.871-0.098-2.684-0.293c-2.43-0.578-4.316-1.746-5.66-3.504c-1.219-1.57-1.828-3.371-1.828-5.402
			c0-2.641,0.936-4.865,2.807-6.674c1.871-1.809,4.158-2.729,6.861-2.76c2.305-0.031,4.648,0.273,7.031,0.914
			c-0.094,2.656-0.141,3.969-0.141,3.938h-0.023c-0.352-1.18-1.297-2.133-2.836-2.859c-1.273-0.586-2.52-0.879-3.738-0.879
			c-2.398,0.031-4.285,0.863-5.66,2.496c-1.219,1.453-1.828,3.258-1.828,5.414c0,2.258,0.648,4.195,1.945,5.813
			c1.438,1.773,3.348,2.66,5.73,2.66c1.75,0,3.414-0.43,4.992-1.289v-4.395c0-1.586-0.473-2.457-1.418-2.613
			c0-0.016,0.066-0.023,0.199-0.023c1.586,0.047,3.152,0.047,4.699,0C228.082,112.862,228.105,112.87,228.121,112.886z"/>
	</g>
	<g>
		<path fill="#2E5428" d="M18.668,67.932c-0.555,0.109-0.988,0.428-1.301,0.955s-0.477,1.162-0.492,1.904
			c-0.148,6.992-0.18,12.406-0.094,16.242c-4.422-5.18-8.895-10.035-13.418-14.566C3.3,74.787,3.316,78.315,3.41,83.049
			c0,0.766,0.16,1.414,0.48,1.945c0.32,0.578,0.766,0.922,1.336,1.031H5.203c-0.234-0.031-1.008-0.047-2.32-0.047
			c-1.43-0.016-2.352,0-2.766,0.047H0c1.172-0.258,1.773-1.219,1.805-2.883c0.109-4.889,0.101-10.303-0.024-16.241
			c1.805,2.031,4.035,4.461,6.691,7.289c2.289,2.422,4.57,4.832,6.844,7.23c0.047-3.375,0.039-6.887-0.023-10.535
			c-0.016-0.773-0.184-1.436-0.504-1.986c-0.32-0.55-0.77-0.873-1.348-0.967c0-0.016,0.016-0.023,0.047-0.023
			c0.242,0.031,1.02,0.047,2.332,0.047c1.406,0.016,2.316,0,2.73-0.047C18.629,67.909,18.668,67.917,18.668,67.932z"/>
		<path fill="#2E5428" d="M32.484,68.87c0.664,0.398,1.293,0.891,1.887,1.477c1.805,1.828,2.707,4.031,2.707,6.609
			c0,2.563-0.904,4.76-2.713,6.592s-3.986,2.748-6.533,2.748c-2.539,0-4.709-0.912-6.51-2.736s-2.701-4.025-2.701-6.604
			c0-2.579,0.9-4.779,2.701-6.604c1.801-1.825,3.971-2.736,6.51-2.736c1.594,0,3.047,0.359,4.359,1.078
			c0.133-0.07,0.289-0.164,0.469-0.281c0.422-0.297,0.695-0.563,0.82-0.797c-0.328-0.07-0.598-0.242-0.809-0.516
			c-0.398-0.492-0.422-1-0.07-1.523c0.156-0.234,0.363-0.406,0.621-0.516c0.438-0.172,0.844-0.133,1.219,0.117
			c0.359,0.234,0.563,0.541,0.609,0.92s-0.047,0.752-0.281,1.119c-0.406,0.617-0.969,1.09-1.688,1.418
			C32.848,68.737,32.648,68.815,32.484,68.87z M34.488,76.136c-0.258-2.109-1.055-3.881-2.391-5.314s-2.883-2.15-4.641-2.15
			c-1.953,0-3.539,0.867-4.758,2.602c-1.07,1.516-1.605,3.297-1.605,5.344c0,2.164,0.648,4.102,1.945,5.813
			c1.406,1.852,3.156,2.777,5.25,2.777c1.953,0,3.523-0.805,4.711-2.414c1.055-1.445,1.582-3.184,1.582-5.215
			C34.582,77.1,34.551,76.62,34.488,76.136z"/>
		<path fill="#2E5428" d="M44.438,86.026c0,0.016-0.016,0.023-0.047,0.023c-2.016-0.063-4.016-0.063-6,0
			c-0.047,0-0.07-0.008-0.07-0.023c1.234-0.227,1.875-1.098,1.922-2.613c0.125-3.508,0.125-7.844,0-13.008
			c-0.031-1.391-0.633-2.207-1.805-2.449c0.992,0.031,1.977,0.047,2.953,0.047s1.953-0.016,2.93-0.047
			c0.016-0.016,0.023-0.016,0.023,0c-1.188,0.242-1.797,1.059-1.828,2.449c-0.109,5.344-0.109,9.68,0,13.008
			C42.586,84.913,43.227,85.784,44.438,86.026z"/>
		<path fill="#2E5428" d="M75.926,85.979c0,0.031-0.02,0.047-0.059,0.047c-0.383-0.031-1.461-0.047-3.234-0.047
			s-2.75,0.016-2.93,0.047c-0.016,0.016-0.031,0-0.047-0.047c0.578-0.094,1.035-0.422,1.371-0.984
			c0.305-0.516,0.457-1.148,0.457-1.898c0-2.445-0.098-5.66-0.293-9.645c-2.336,4.336-4.598,8.664-6.785,12.984
			c-1.477-2.836-3.797-7.156-6.961-12.961c0,0.258-0.059,1.922-0.176,4.992c-0.078,2.016-0.102,3.672-0.07,4.969
			c0.047,1.531,0.617,2.379,1.711,2.543c-0.016,0.031-0.051,0.039-0.105,0.023c-2.219-0.078-3.93-0.07-5.133,0.023
			c-0.031,0.016-0.047,0.008-0.047-0.023c0.609-0.094,1.09-0.422,1.441-0.984c0.305-0.477,0.48-1.035,0.527-1.676
			c0.414-5.219,0.688-10.707,0.82-16.465c1.984,3.758,3.359,6.34,4.125,7.746c1.516,2.836,2.945,5.414,4.289,7.734
			c2.578-4.438,5.332-9.559,8.262-15.363c0.172,6.242,0.453,11.684,0.844,16.324C74.074,84.85,74.738,85.737,75.926,85.979z"/>
		<path fill="#2E5428" d="M95.215,85.979c0,0.031-0.078,0.039-0.234,0.023c-1.523-0.047-3.238-0.047-5.145,0
			c-0.094,0-0.133-0.008-0.117-0.023c0.547-0.18,0.82-0.598,0.82-1.254c0-0.398-0.105-0.867-0.316-1.406l-1.629-4.031H81.75
			l-1.359,3.504c-0.344,0.844-0.516,1.523-0.516,2.039c0,0.656,0.25,1.047,0.75,1.172h-0.047c-1.773-0.031-3.414-0.031-4.922,0
			c-0.016,0-0.023-0.008-0.023-0.023c1.117-0.227,2.078-1.203,2.883-2.93c1.266-2.734,3.52-8.055,6.762-15.961
			c1.828,4.047,4.398,9.551,7.711,16.512C93.676,84.944,94.418,85.737,95.215,85.979z M88.09,78.128l-3.07-6.984l-2.836,6.984H88.09
			z"/>
		<path fill="#2E5428" d="M114.621,67.932c-0.555,0.109-0.988,0.428-1.301,0.955s-0.477,1.162-0.492,1.904
			c-0.148,6.992-0.18,12.406-0.094,16.242c-4.422-5.18-8.895-10.035-13.418-14.566c-0.063,2.32-0.047,5.848,0.047,10.582
			c0,0.766,0.16,1.414,0.48,1.945c0.32,0.578,0.766,0.922,1.336,1.031h-0.023c-0.234-0.031-1.008-0.047-2.32-0.047
			c-1.43-0.016-2.352,0-2.766,0.047h-0.117c1.172-0.258,1.773-1.219,1.805-2.883c0.109-4.891,0.102-10.305-0.023-16.242
			c1.805,2.031,4.035,4.461,6.691,7.289c2.289,2.422,4.57,4.832,6.844,7.23c0.047-3.375,0.039-6.887-0.023-10.535
			c-0.016-0.773-0.184-1.436-0.504-1.986c-0.32-0.55-0.77-0.873-1.348-0.967c0-0.016,0.016-0.023,0.047-0.023
			c0.242,0.031,1.02,0.047,2.332,0.047c1.406,0.016,2.316,0,2.73-0.047C114.582,67.909,114.621,67.917,114.621,67.932z"/>
		<path fill="#2E5428" d="M133.219,76.886c-0.539,0.109-0.906,0.395-1.102,0.855c-0.125,0.336-0.203,0.922-0.234,1.758
			c0,1.164,0.008,2.813,0.023,4.945c-0.641,0.508-1.625,0.938-2.953,1.289c-1.406,0.391-2.824,0.586-4.254,0.586
			c-0.977,0-1.871-0.098-2.684-0.293c-2.43-0.578-4.316-1.746-5.66-3.504c-1.219-1.57-1.828-3.371-1.828-5.402
			c0-2.641,0.936-4.865,2.807-6.674s4.158-2.729,6.861-2.76c2.305-0.031,4.648,0.273,7.031,0.914
			c-0.094,2.656-0.141,3.969-0.141,3.937h-0.023c-0.352-1.18-1.297-2.133-2.836-2.859c-1.273-0.586-2.52-0.879-3.738-0.879
			c-2.398,0.031-4.285,0.863-5.66,2.496c-1.219,1.453-1.828,3.258-1.828,5.414c0,2.258,0.648,4.195,1.945,5.813
			c1.438,1.773,3.348,2.66,5.73,2.66c1.75,0,3.414-0.43,4.992-1.289v-4.395c0-1.586-0.473-2.457-1.418-2.613
			c0-0.016,0.066-0.023,0.199-0.023c1.586,0.047,3.152,0.047,4.699,0C133.18,76.862,133.203,76.87,133.219,76.886z"/>
		<path fill="#2E5428" d="M157.02,80.893c0.063,0.047-0.043,0.521-0.316,1.424s-0.48,1.521-0.621,1.857
			c-0.305,0.703-0.535,1.152-0.691,1.348c-0.258,0.32-0.637,0.48-1.137,0.48h-12.117c-0.047,0-0.07-0.008-0.07-0.023
			c0.578-0.078,1.043-0.354,1.395-0.826s0.535-1.061,0.551-1.764c0.125-3.508,0.125-7.852,0-13.031
			c-0.031-1.375-0.633-2.184-1.805-2.426v-0.023c0.977,0.047,1.961,0.07,2.953,0.07c0.977,0,1.953-0.023,2.93-0.07
			c0.016,0,0.023,0.008,0.023,0.023c-1.18,0.242-1.789,1.051-1.828,2.426c-0.094,4.797-0.094,9.141,0,13.031
			c0.039,0.914,0.441,1.395,1.207,1.441c1.938,0.125,3.488,0.066,4.652-0.176C154.98,84.085,156.605,82.831,157.02,80.893z"/>
		<path fill="#2E5428" d="M176.813,85.979c0,0.031-0.078,0.039-0.234,0.023c-1.523-0.047-3.238-0.047-5.145,0
			c-0.094,0-0.133-0.008-0.117-0.023c0.547-0.18,0.82-0.598,0.82-1.254c0-0.398-0.105-0.867-0.316-1.406l-1.629-4.031h-6.844
			l-1.359,3.504c-0.344,0.844-0.516,1.523-0.516,2.039c0,0.656,0.25,1.047,0.75,1.172h-0.047c-1.773-0.031-3.414-0.031-4.922,0
			c-0.016,0-0.023-0.008-0.023-0.023c1.117-0.227,2.078-1.203,2.883-2.93c1.266-2.734,3.52-8.055,6.762-15.961
			c1.828,4.047,4.398,9.551,7.711,16.512C175.273,84.944,176.016,85.737,176.813,85.979z M169.688,78.128l-3.07-6.984l-2.836,6.984
			H169.688z M168.105,88.71c0,0.367-0.139,0.682-0.416,0.943s-0.6,0.393-0.967,0.393c-0.375,0-0.697-0.131-0.967-0.393
			s-0.404-0.576-0.404-0.943c0-0.391,0.135-0.721,0.404-0.99c0.269-0.269,0.592-0.404,0.967-0.404c0.367,0,0.689,0.135,0.967,0.404
			C167.967,87.989,168.105,88.319,168.105,88.71z"/>
		<path fill="#2E5428" d="M183.668,86.026c0,0.016-0.016,0.023-0.047,0.023c-2.016-0.063-4.016-0.063-6,0
			c-0.047,0-0.07-0.008-0.07-0.023c1.234-0.227,1.875-1.098,1.922-2.613c0.125-3.508,0.125-7.844,0-13.008
			c-0.031-1.391-0.633-2.207-1.805-2.449c0.992,0.031,1.977,0.047,2.953,0.047s1.953-0.016,2.93-0.047
			c0.016-0.016,0.023-0.016,0.023,0c-1.188,0.242-1.797,1.059-1.828,2.449c-0.109,5.344-0.109,9.68,0,13.008
			C181.816,84.913,182.457,85.784,183.668,86.026z"/>
		<path fill="#2E5428" d="M76.77,111.886c0.063,1.758,0.52,3.348,1.371,4.77c0.945,1.555,2.184,2.531,3.715,2.93
			c0.688,0.18,1.418,0.27,2.191,0.27c1.469,0,2.844-0.313,4.125-0.938c1.359-0.672,2.367-1.602,3.023-2.789
			c0.094,0.031-0.031,0.604-0.375,1.717c-0.344,1.113-0.609,1.732-0.797,1.857c-0.656,0.422-1.539,0.766-2.648,1.031
			c-1.195,0.305-2.363,0.457-3.504,0.457c-0.813,0-1.547-0.078-2.203-0.234c-2.43-0.594-4.316-1.762-5.66-3.504
			c-1.203-1.57-1.805-3.355-1.805-5.355c0-2.641,0.945-4.855,2.836-6.645c1.836-1.758,4.09-2.688,6.762-2.789
			c1.875-0.063,4.141,0.234,6.797,0.891c0,0.992-0.008,2.234-0.023,3.727c0,0.141-0.023,0.316-0.07,0.527
			c-0.039-0.883-0.719-1.773-2.039-2.672c-1.398-0.945-2.855-1.426-4.371-1.441c-2.398-0.031-4.27,0.809-5.613,2.52
			C77.277,107.737,76.707,109.628,76.77,111.886z"/>
		<path fill="#2E5428" d="M110.004,120.979c0,0.031-0.016,0.047-0.047,0.047c-0.508-0.047-1.852-0.047-4.031,0
			c0.016-0.109,0.039-0.895,0.07-2.355c-1.375,1.711-3.23,2.566-5.566,2.566c-1.891-0.016-3.473-0.605-4.746-1.77
			c-1.344-1.25-2.027-2.867-2.051-4.852c0.023-2.125,0.023-5.203,0-9.234c-0.031-1.406-0.605-2.223-1.723-2.449v-0.023
			c0.992,0.047,1.953,0.07,2.883,0.07s1.891-0.023,2.883-0.07v0.023c-1.188,0.242-1.797,1.059-1.828,2.449c0,0.273,0,3.184,0,8.73
			c0,2.18,0.695,3.836,2.086,4.969c1.281,1.039,2.723,1.32,4.324,0.844c1.711-0.516,2.973-1.766,3.785-3.75
			c0.063-3.852,0.063-7.449,0-10.793c-0.016-1.375-0.664-2.191-1.945-2.449c0-0.016,0.008-0.023,0.023-0.023
			c1.922,0.094,3.844,0.094,5.766,0c0.016,0,0.023,0.008,0.023,0.023c-1.102,0.227-1.668,1.043-1.699,2.449
			c-0.117,5.344-0.117,9.688,0,13.031C108.273,119.913,108.871,120.768,110.004,120.979z"/>
		<path fill="#2E5428" d="M128.461,111.956c0,2.563-0.904,4.76-2.713,6.592c-1.809,1.832-3.986,2.748-6.533,2.748
			c-2.539,0-4.709-0.912-6.51-2.736c-1.801-1.824-2.701-4.025-2.701-6.604s0.9-4.779,2.701-6.604
			c1.801-1.825,3.971-2.736,6.51-2.736c2.547,0,4.725,0.912,6.533,2.736C127.556,107.176,128.461,109.378,128.461,111.956z
			 M125.871,111.136c-0.258-2.109-1.055-3.881-2.391-5.314s-2.883-2.15-4.641-2.15c-1.953,0-3.539,0.867-4.758,2.602
			c-1.07,1.516-1.605,3.297-1.605,5.344c0,2.164,0.648,4.102,1.945,5.813c1.406,1.852,3.156,2.777,5.25,2.777
			c1.953,0,3.523-0.805,4.711-2.414c1.055-1.445,1.582-3.184,1.582-5.215C125.965,112.1,125.934,111.62,125.871,111.136z
			 M123.305,101.011c-0.656,0.109-1.137,0.164-1.441,0.164c-0.469,0-0.789-0.086-0.961-0.258l-1.688-1.828l-1.676,1.828
			c-0.172,0.172-0.492,0.258-0.961,0.258c-0.289,0-0.77-0.055-1.441-0.164c0.336-0.156,0.715-0.395,1.137-0.715l2.941-2.332
			l2.953,2.332C122.59,100.616,122.969,100.854,123.305,101.011z M120.609,123.71c0,0.367-0.139,0.682-0.416,0.943
			s-0.604,0.393-0.979,0.393c-0.367,0-0.686-0.131-0.955-0.393c-0.269-0.262-0.404-0.576-0.404-0.943
			c0-0.391,0.135-0.721,0.404-0.99s0.588-0.404,0.955-0.404c0.375,0,0.701,0.135,0.979,0.404S120.609,123.319,120.609,123.71z"/>
		<path fill="#2E5428" d="M132.223,111.886c0.063,1.758,0.52,3.348,1.371,4.77c0.945,1.555,2.184,2.531,3.715,2.93
			c0.688,0.18,1.418,0.27,2.191,0.27c1.469,0,2.844-0.313,4.125-0.938c1.359-0.672,2.367-1.602,3.023-2.789
			c0.094,0.031-0.031,0.604-0.375,1.717c-0.344,1.113-0.609,1.732-0.797,1.857c-0.656,0.422-1.539,0.766-2.648,1.031
			c-1.195,0.305-2.363,0.457-3.504,0.457c-0.813,0-1.547-0.078-2.203-0.234c-2.43-0.594-4.316-1.762-5.66-3.504
			c-1.203-1.57-1.805-3.355-1.805-5.355c0-2.641,0.945-4.855,2.836-6.645c1.836-1.758,4.09-2.688,6.762-2.789
			c1.875-0.063,4.141,0.234,6.797,0.891c0,0.992-0.008,2.234-0.023,3.727c0,0.141-0.023,0.316-0.07,0.527
			c-0.039-0.883-0.719-1.773-2.039-2.672c-1.398-0.945-2.855-1.426-4.371-1.441c-2.398-0.031-4.27,0.809-5.613,2.52
			C132.73,107.737,132.16,109.628,132.223,111.886z"/>
		<path fill="#2E5428" d="M161.496,121.19c-1.234-0.047-2.457-0.293-3.668-0.738c-0.867-0.32-1.371-0.871-1.512-1.652
			c-0.102-0.531-0.223-2.063-0.363-4.594c-0.016-0.219,0.016-0.336,0.094-0.352c-0.031,0.859,0.219,1.754,0.75,2.684
			c0.492,0.867,1.141,1.578,1.945,2.133c1.102,0.773,2.363,1.16,3.785,1.16c1.07,0,1.969-0.25,2.695-0.75
			c0.813-0.539,1.281-1.332,1.406-2.379c0.016-0.141,0.023-0.273,0.023-0.398c0-0.945-0.496-1.715-1.488-2.309
			c-0.477-0.305-1.57-0.77-3.281-1.395c-1.539-0.555-2.652-1.105-3.34-1.652c-1.086-0.852-1.629-1.996-1.629-3.434
			c0-0.852,0.223-1.629,0.668-2.332c0.5-0.781,1.285-1.402,2.355-1.863c0.992-0.422,2.055-0.641,3.188-0.656
			c1.734-0.016,3.543,0.219,5.426,0.703c-0.047,1.359-0.102,2.871-0.164,4.535c0,0.047-0.008,0.07-0.023,0.07
			c-0.016-1.25-0.609-2.289-1.781-3.117c-1.039-0.742-2.176-1.113-3.41-1.113c-0.844,0-1.625,0.18-2.344,0.539
			c-0.789,0.398-1.332,0.949-1.629,1.652c-0.133,0.32-0.199,0.656-0.199,1.008c0,0.844,0.336,1.547,1.008,2.109
			c0.563,0.461,1.434,0.91,2.613,1.348c1.008,0.352,2.016,0.711,3.023,1.078c2.086,0.883,3.129,2.18,3.129,3.891
			c0,1.695-0.801,3.125-2.402,4.289C164.879,120.733,163.254,121.245,161.496,121.19z"/>
		<path fill="#2E5428" d="M188.016,111.956c0,2.563-0.904,4.76-2.713,6.592c-1.809,1.832-3.986,2.748-6.533,2.748
			c-2.539,0-4.709-0.912-6.51-2.736c-1.801-1.824-2.701-4.025-2.701-6.604s0.9-4.779,2.701-6.604
			c1.801-1.825,3.971-2.736,6.51-2.736c2.547,0,4.725,0.912,6.533,2.736C187.111,107.176,188.016,109.378,188.016,111.956z
			 M185.426,111.136c-0.258-2.109-1.055-3.881-2.391-5.314s-2.883-2.15-4.641-2.15c-1.953,0-3.539,0.867-4.758,2.602
			c-1.07,1.516-1.605,3.297-1.605,5.344c0,2.164,0.648,4.102,1.945,5.813c1.406,1.852,3.156,2.777,5.25,2.777
			c1.953,0,3.523-0.805,4.711-2.414c1.055-1.445,1.582-3.184,1.582-5.215C185.52,112.1,185.488,111.62,185.426,111.136z
			 M182.859,101.011c-0.656,0.109-1.137,0.164-1.441,0.164c-0.469,0-0.789-0.086-0.961-0.258l-1.688-1.828l-1.676,1.828
			c-0.172,0.172-0.492,0.258-0.961,0.258c-0.289,0-0.77-0.055-1.441-0.164c0.336-0.156,0.715-0.395,1.137-0.715l2.941-2.332
			l2.953,2.332C182.145,100.616,182.523,100.854,182.859,101.011z M184.465,95.163l-0.023,0.023c-0.125,0.133-0.262,0.27-0.41,0.41
			c-0.719,0.852-1.352,1.613-1.898,2.285c-0.094,0.125-0.285,0.27-0.574,0.434c-0.32,0.047-0.781,0.117-1.383,0.211
			c-0.016-0.016,0.031-0.088,0.141-0.217s0.18-0.217,0.211-0.264l1.137-2.133c0.125-0.242,0.332-0.387,0.621-0.434L184.465,95.163z"
			/>
		<path fill="#2E5428" d="M208.523,102.932c-0.555,0.109-0.988,0.428-1.301,0.955s-0.477,1.162-0.492,1.904
			c-0.148,6.992-0.18,12.406-0.094,16.242c-4.422-5.18-8.895-10.035-13.418-14.566c-0.063,2.32-0.047,5.848,0.047,10.582
			c0,0.766,0.16,1.414,0.48,1.945c0.32,0.578,0.766,0.922,1.336,1.031h-0.023c-0.234-0.031-1.008-0.047-2.32-0.047
			c-1.43-0.016-2.352,0-2.766,0.047h-0.117c1.172-0.258,1.773-1.219,1.805-2.883c0.109-4.891,0.102-10.305-0.023-16.242
			c1.805,2.031,4.035,4.461,6.691,7.289c2.289,2.422,4.57,4.832,6.844,7.23c0.047-3.375,0.039-6.887-0.023-10.535
			c-0.016-0.773-0.184-1.436-0.504-1.986s-0.77-0.873-1.348-0.967c0-0.016,0.016-0.023,0.047-0.023
			c0.242,0.031,1.02,0.047,2.332,0.047c1.406,0.016,2.316,0,2.73-0.047C208.484,102.909,208.523,102.917,208.523,102.932z"/>
		<path fill="#2E5428" d="M227.121,111.886c-0.539,0.109-0.906,0.395-1.102,0.855c-0.125,0.336-0.203,0.922-0.234,1.758
			c0,1.164,0.008,2.813,0.023,4.945c-0.641,0.508-1.625,0.938-2.953,1.289c-1.406,0.391-2.824,0.586-4.254,0.586
			c-0.977,0-1.871-0.098-2.684-0.293c-2.43-0.578-4.316-1.746-5.66-3.504c-1.219-1.57-1.828-3.371-1.828-5.402
			c0-2.641,0.936-4.865,2.807-6.674c1.871-1.809,4.158-2.729,6.861-2.76c2.305-0.031,4.648,0.273,7.031,0.914
			c-0.094,2.656-0.141,3.969-0.141,3.938h-0.023c-0.352-1.18-1.297-2.133-2.836-2.859c-1.273-0.586-2.52-0.879-3.738-0.879
			c-2.398,0.031-4.285,0.863-5.66,2.496c-1.219,1.453-1.828,3.258-1.828,5.414c0,2.258,0.648,4.195,1.945,5.813
			c1.438,1.773,3.348,2.66,5.73,2.66c1.75,0,3.414-0.43,4.992-1.289v-4.395c0-1.586-0.473-2.457-1.418-2.613
			c0-0.016,0.066-0.023,0.199-0.023c1.586,0.047,3.152,0.047,4.699,0C227.082,111.862,227.105,111.87,227.121,111.886z"/>
	</g>
	<g>
		<path fill="#FFFFFF" d="M235.584,108.481c-1.2,0.92-2.06,2.039-2.58,3.359c-0.519,1.32-0.78,2.74-0.78,4.26
			c0,2,0.31,3.75,0.93,5.25c0.621,1.5,1.47,2.761,2.55,3.78c1.08,1.021,2.379,1.779,3.9,2.28c1.52,0.499,3.18,0.75,4.98,0.75
			c3.359,0,6.239-0.63,8.64-1.891c2.399-1.26,4.38-2.931,5.939-5.01c1.561-2.08,2.73-4.48,3.511-7.199
			c0.779-2.721,1.27-5.541,1.47-8.461c0.12-1.92,0.22-3.729,0.3-5.43c0.08-1.7,0.159-3.31,0.24-4.83
			c-1.521-0.68-2.67-1.64-3.45-2.88c-0.78-1.239-1.17-2.58-1.17-4.02c0-1.52,0.45-3.05,1.35-4.59c0.9-1.54,2.311-2.89,4.23-4.05
			l0.36,0.36c-1.521,0.92-2.65,2.03-3.391,3.33c-0.74,1.3-1.109,2.61-1.109,3.93c0,1.2,0.27,2.34,0.81,3.42s1.37,1.98,2.49,2.7
			c0.039-0.52,0.069-1.029,0.09-1.53c0.02-0.5,0.069-1.01,0.15-1.53c0.199-2.28,0.529-4.35,0.989-6.21s1.09-3.54,1.891-5.04
			c0.8-1.5,1.789-2.85,2.97-4.05c1.18-1.2,2.61-2.259,4.29-3.18c0.319-0.16,0.52-0.24,0.6-0.24c0.2,0,0.301,0.141,0.301,0.42
			c-1.001,0.521-1.852,1.131-2.551,1.83c-0.7,0.701-1.29,1.51-1.77,2.43c-0.561,1.08-0.99,2.17-1.29,3.27
			c-0.3,1.101-0.53,2.22-0.69,3.36c-0.16,1.14-0.261,2.291-0.3,3.45c-0.04,1.161-0.101,2.32-0.18,3.48l-0.3,5.04
			c0.279,0.081,0.569,0.12,0.869,0.12c0.301,0,0.609,0,0.931,0c1.56,0,2.919-0.26,4.08-0.78c0.199-2.439,0.479-4.629,0.84-6.57
			c0.36-1.94,0.829-3.6,1.41-4.98c0.579-1.38,1.26-2.45,2.04-3.21c0.779-0.76,1.71-1.16,2.79-1.2c-0.4-1.839-1.11-3.62-2.13-5.34
			c-1.021-1.72-2.4-3.25-4.141-4.59c-1.74-1.339-3.86-2.409-6.359-3.21c-2.501-0.799-5.411-1.2-8.73-1.2c-3.2,0-6.39,0.45-9.57,1.35
			c-3.18,0.9-6.04,2.271-8.58,4.11c-2.54,1.84-4.6,4.14-6.18,6.9c-1.58,2.76-2.37,6-2.37,9.72c0,2,0.34,3.73,1.02,5.19
			c0.681,1.46,1.59,2.67,2.73,3.63c1.141,0.96,2.45,1.67,3.931,2.13c1.479,0.46,3.039,0.69,4.68,0.69c2.28,0,4.52-0.42,6.72-1.26
			c2.199-0.84,4.119-2.04,5.76-3.6l0.42,0.66c-1.68,1.68-3.72,2.98-6.119,3.9c-2.4,0.92-4.86,1.38-7.381,1.38
			c-1.72,0-3.37-0.229-4.949-0.69c-1.581-0.459-2.98-1.179-4.2-2.16c-1.22-0.979-2.2-2.22-2.94-3.72s-1.11-3.29-1.11-5.37
			c0-2.72,0.42-5.229,1.26-7.53c0.84-2.3,1.99-4.37,3.45-6.21c1.459-1.839,3.18-3.459,5.16-4.86c1.979-1.399,4.1-2.57,6.359-3.51
			c2.26-0.939,4.6-1.64,7.021-2.1c2.419-0.459,4.83-0.69,7.229-0.69c3.8,0,7.08,0.54,9.84,1.62c2.761,1.08,5.04,2.49,6.84,4.23
			c1.801,1.74,3.13,3.71,3.99,5.91c0.86,2.2,1.29,4.42,1.29,6.66c0,2.88-0.66,5.58-1.979,8.1c-1.32,2.52-3.24,4.48-5.761,5.88
			c-0.2,2.16-0.34,4.35-0.42,6.57c-0.08,2.221-0.12,4.65-0.12,7.29c0.28-0.88,0.65-1.909,1.11-3.09
			c0.46-1.179,0.979-2.31,1.561-3.39c0.579-1.08,1.239-1.99,1.979-2.73c0.74-0.74,1.569-1.11,2.49-1.11
			c1.159,0,1.959,0.37,2.399,1.11c0.44,0.741,0.66,1.57,0.66,2.49c0,1.16-0.1,2.32-0.3,3.48c-0.2,1.16-0.41,2.279-0.63,3.359
			c-0.221,1.08-0.431,2.1-0.63,3.061c-0.201,0.959-0.3,1.779-0.3,2.459c0,0.682,0.12,1.211,0.359,1.59
			c0.24,0.381,0.68,0.57,1.32,0.57c0.84,0,1.56-0.409,2.16-1.229c0.6-0.819,1.089-1.78,1.47-2.88c0.38-1.1,0.67-2.19,0.87-3.271
			c0.199-1.079,0.319-1.88,0.36-2.399h0.42c-0.081,0.84-0.23,1.881-0.45,3.119c-0.221,1.24-0.551,2.441-0.99,3.601
			c-0.44,1.161-1.02,2.15-1.74,2.97c-0.72,0.819-1.62,1.23-2.699,1.23c-0.921,0-1.761-0.411-2.521-1.23s-1.14-2.029-1.14-3.63
			c0-0.72,0.079-1.599,0.239-2.64c0.16-1.04,0.34-2.1,0.54-3.18s0.38-2.141,0.54-3.181s0.24-1.92,0.24-2.64c0-1.2-0.32-1.8-0.96-1.8
			c-0.521,0-1.07,0.33-1.649,0.99c-0.581,0.66-1.161,1.521-1.74,2.58c-0.58,1.061-1.12,2.26-1.62,3.6
			c-0.501,1.342-0.91,2.711-1.23,4.11v6.183c-0.32,0.119-0.64,0.18-0.96,0.18c-0.4,0-0.75-0.101-1.05-0.301s-0.45-0.519-0.45-0.959
			c0-3.76,0.04-7.3,0.12-10.621c0.08-3.318,0.22-6.379,0.42-9.179c-1.521,0.52-3.239,0.78-5.16,0.78h-0.72
			c-0.08,1.84-0.19,3.591-0.33,5.25c-0.141,1.661-0.351,3.311-0.63,4.95c-0.561,3.32-1.461,6.351-2.7,9.09
			c-1.24,2.739-2.84,5.109-4.8,7.11c-1.96,1.999-4.24,3.549-6.84,4.649c-2.601,1.1-5.521,1.65-8.76,1.65
			c-2.001,0-3.831-0.271-5.49-0.811c-1.66-0.539-3.09-1.33-4.29-2.369c-1.2-1.041-2.13-2.32-2.79-3.841
			c-0.66-1.521-0.99-3.26-0.99-5.22c0-1.68,0.291-3.3,0.87-4.859c0.581-1.561,1.51-2.76,2.79-3.601c0.041,0,0.081-0.02,0.12-0.06
			c0.041,0,0.07-0.01,0.09-0.03c0.021-0.02,0.051-0.03,0.09-0.03C235.404,108.181,235.505,108.281,235.584,108.481z M282.324,81.841
			c0-0.439-0.021-0.9-0.06-1.38c-0.04-0.48-0.101-0.96-0.18-1.44c-0.641,0.081-1.221,0.52-1.74,1.32
			c-0.521,0.801-0.971,1.84-1.351,3.12c-0.38,1.281-0.71,2.75-0.989,4.41c-0.28,1.66-0.521,3.37-0.721,5.13
			c1.64-1.239,2.89-2.84,3.75-4.8C281.895,86.242,282.324,84.121,282.324,81.841z"/>
		<path fill="#FFFFFF" d="M297.744,97.861c-0.921,0.321-1.701,0.851-2.341,1.59c-0.64,0.741-1.16,1.59-1.56,2.55s-0.7,2-0.9,3.12
			c-0.2,1.12-0.3,2.22-0.3,3.3c0,1.041,0.08,2.04,0.24,3c0.159,0.96,0.399,1.811,0.72,2.55c0.32,0.741,0.71,1.331,1.17,1.771
			s0.99,0.66,1.59,0.66c0.841,0,1.55-0.23,2.131-0.69c0.579-0.46,1.069-1.06,1.47-1.8c0.399-0.74,0.689-1.59,0.87-2.551
			c0.18-0.959,0.27-1.939,0.27-2.939c0-1.119-0.12-2.199-0.359-3.24c-0.681,0.24-1.32,0.36-1.921,0.36
			c-1.439,0-2.489-0.38-3.149-1.14s-0.99-1.561-0.99-2.4c0-0.721,0.22-1.369,0.66-1.95c0.439-0.579,1.1-0.87,1.979-0.87
			c1.04,0,1.921,0.471,2.641,1.41c0.72,0.94,1.239,2.11,1.56,3.51c0.44-0.199,0.89-0.449,1.351-0.75
			c0.459-0.3,0.93-0.669,1.41-1.109l0.3,0.3c-1.041,1-2.021,1.739-2.94,2.22c0.2,1.121,0.3,2.181,0.3,3.18
			c0,1.201-0.12,2.371-0.359,3.51c-0.24,1.141-0.601,2.171-1.08,3.091c-0.48,0.921-1.08,1.659-1.8,2.22
			c-0.721,0.56-1.581,0.84-2.58,0.84c-1.121,0-2.081-0.22-2.88-0.66c-0.801-0.439-1.461-1.029-1.98-1.77
			c-0.521-0.74-0.9-1.6-1.14-2.58c-0.24-0.979-0.36-2.01-0.36-3.09c0-1.32,0.171-2.649,0.51-3.99c0.34-1.34,0.84-2.569,1.5-3.689
			c0.66-1.119,1.46-2.07,2.4-2.851c0.939-0.78,1.989-1.25,3.149-1.41c0.08,0,0.17,0.021,0.271,0.06
			C297.693,97.661,297.744,97.741,297.744,97.861z M302.124,96.541c0,0.12-0.061,0.18-0.181,0.18c-1.04-0.48-1.949-1.119-2.729-1.92
			c-0.78-0.8-1.41-1.56-1.891-2.28c-0.64,0.72-1.529,1.38-2.67,1.98c-1.14,0.6-2.09,1.06-2.85,1.38c-0.12,0-0.221-0.08-0.3-0.24
			c-0.04-0.08-0.061-0.16-0.061-0.24c1.28-0.56,2.311-1.29,3.091-2.19c0.779-0.9,1.249-1.81,1.409-2.73
			c0.76-0.399,1.34-0.6,1.74-0.6c0.56,0.041,1.021,0.561,1.38,1.56c0.279,0.801,0.68,1.65,1.2,2.55c0.52,0.9,1.14,1.671,1.86,2.31
			v0.24H302.124z M301.644,89.221c-0.2,0.081-0.561,0.12-1.08,0.12c-0.64,0-1.37-0.09-2.189-0.27c-0.82-0.18-1.59-0.429-2.311-0.75
			c-0.72-0.32-1.319-0.69-1.8-1.11c-0.479-0.42-0.72-0.87-0.72-1.35c0-0.6,0.479-1.16,1.439-1.68c0.12,0.441,0.35,0.93,0.69,1.47
			c0.339,0.54,0.789,1.05,1.35,1.53c0.56,0.48,1.22,0.88,1.98,1.2c0.759,0.321,1.6,0.48,2.52,0.48L301.644,89.221z M299.184,104.581
			c0.439,0,0.9-0.061,1.38-0.18c-0.32-1.201-0.779-2.199-1.38-3c-0.6-0.801-1.3-1.201-2.1-1.201c-0.48,0-0.851,0.141-1.11,0.42
			c-0.261,0.28-0.39,0.64-0.39,1.079c0,0.641,0.3,1.281,0.899,1.921C297.084,104.261,297.983,104.581,299.184,104.581z"/>
		<path fill="#FFFFFF" d="M313.044,98.941c-0.681,0-1.351,0.591-2.01,1.77c-0.66,1.181-1.271,2.62-1.83,4.319
			c-0.561,1.701-1.011,3.502-1.351,5.4c-0.34,1.9-0.51,3.591-0.51,5.07v0.9c-0.36,0.119-0.7,0.18-1.02,0.18
			c-0.441,0-0.801-0.101-1.08-0.301c-0.28-0.2-0.42-0.519-0.42-0.959c0.159-1.76,0.3-3.49,0.42-5.19s0.18-3.409,0.18-5.13
			c0-1.2-0.04-2.4-0.12-3.6c-0.08-1.201-0.2-2.38-0.36-3.541c0.36-0.159,0.76-0.24,1.2-0.24c0.52,0,0.95,0.13,1.29,0.39
			c0.34,0.261,0.51,0.651,0.51,1.17c0,0.441-0.029,1.05-0.09,1.83c-0.06,0.78-0.12,1.641-0.18,2.58c-0.06,0.94-0.12,1.9-0.18,2.88
			c-0.061,0.981-0.111,1.89-0.15,2.729c0.159-0.439,0.33-1.02,0.51-1.739c0.181-0.72,0.391-1.489,0.63-2.31
			c0.24-0.82,0.53-1.65,0.87-2.49s0.729-1.6,1.17-2.28c0.44-0.68,0.939-1.23,1.5-1.65c0.56-0.42,1.2-0.63,1.92-0.63
			c1.16,0,1.94,0.351,2.341,1.05c0.399,0.7,0.6,1.51,0.6,2.43c0,1.08-0.07,2.181-0.21,3.3c-0.141,1.12-0.3,2.2-0.48,3.24
			c-0.18,1.04-0.34,2.021-0.479,2.94c-0.141,0.92-0.21,1.739-0.21,2.459c0,0.801,0.129,1.432,0.39,1.891
			c0.26,0.46,0.729,0.689,1.41,0.689c0.84,0,1.561-0.409,2.16-1.229c0.6-0.819,1.089-1.78,1.47-2.88c0.38-1.1,0.67-2.19,0.87-3.271
			c0.2-1.079,0.319-1.88,0.36-2.399h0.42c-0.081,0.84-0.23,1.881-0.45,3.119c-0.221,1.24-0.551,2.441-0.99,3.601
			c-0.44,1.161-1.02,2.15-1.74,2.97c-0.72,0.819-1.619,1.23-2.699,1.23c-0.921,0-1.761-0.411-2.521-1.23s-1.14-2.029-1.14-3.63
			c0-0.72,0.05-1.599,0.149-2.64c0.1-1.04,0.21-2.1,0.33-3.18s0.23-2.141,0.33-3.181c0.1-1.04,0.15-1.92,0.15-2.64
			C314.004,99.541,313.684,98.941,313.044,98.941z"/>
		<path fill="#FFFFFF" d="M336.623,116.642c-0.36,0.119-0.741,0.18-1.141,0.18c-0.44,0-0.81-0.081-1.109-0.24
			c-0.301-0.16-0.45-0.461-0.45-0.9c0-1.439-0.07-2.93-0.21-4.47c-0.141-1.54-0.37-3.02-0.69-4.44
			c-0.32-1.419-0.771-2.699-1.35-3.84c-0.579-1.14-1.329-2.049-2.25-2.73c0.16-0.319,0.34-0.6,0.54-0.84c0.2-0.2,0.4-0.399,0.6-0.6
			c0.201-0.2,0.461-0.3,0.78-0.3c0.4,0,0.84,0.261,1.32,0.78c0.72,0.801,1.299,1.911,1.739,3.331s0.8,2.9,1.08,4.439
			c0.279,1.541,0.47,3.03,0.57,4.471c0.1,1.439,0.15,2.6,0.15,3.479c0.079-0.88,0.239-1.989,0.479-3.33
			c0.24-1.34,0.55-2.749,0.93-4.229c0.38-1.48,0.819-2.96,1.32-4.44c0.5-1.479,1.06-2.81,1.68-3.99
			c0.62-1.179,1.29-2.139,2.011-2.88c0.72-0.74,1.5-1.11,2.34-1.11c0.52,0,0.899,0.12,1.14,0.36c0.24,0.24,0.36,0.521,0.36,0.84
			c0,0.321-0.101,0.591-0.3,0.81c-0.201,0.221-0.461,0.33-0.78,0.33c-0.32,0-0.621-0.18-0.9-0.54c-0.16-0.159-0.28-0.339-0.359-0.54
			c-0.561,0-1.121,0.351-1.681,1.05c-0.561,0.7-1.12,1.61-1.68,2.73c-0.561,1.121-1.08,2.41-1.56,3.871
			c-0.48,1.46-0.9,2.939-1.261,4.439c-0.359,1.5-0.66,2.98-0.899,4.439C336.803,114.231,336.662,115.522,336.623,116.642z"/>
		<path fill="#FFFFFF" d="M346.462,98.281c-0.2,1.8-0.37,3.581-0.51,5.34c-0.141,1.761-0.21,3.42-0.21,4.979
			c0,2.16,0.17,3.951,0.51,5.37c0.34,1.421,0.95,2.13,1.83,2.13c0.84,0,1.561-0.409,2.16-1.229c0.6-0.819,1.089-1.78,1.47-2.88
			c0.38-1.1,0.67-2.19,0.87-3.271c0.2-1.079,0.319-1.88,0.36-2.399h0.42c-0.081,0.84-0.23,1.881-0.45,3.119
			c-0.221,1.24-0.551,2.441-0.99,3.601c-0.44,1.161-1.02,2.15-1.74,2.97c-0.72,0.819-1.619,1.23-2.699,1.23
			c-0.801,0-1.471-0.271-2.011-0.811c-0.54-0.539-0.98-1.289-1.319-2.25c-0.341-0.96-0.58-2.07-0.721-3.33s-0.21-2.609-0.21-4.05
			c0-1.119,0.03-2.27,0.091-3.45c0.06-1.18,0.169-2.369,0.33-3.57c0.079-0.68,0.329-1.17,0.75-1.47c0.42-0.3,0.849-0.45,1.289-0.45
			C346.201,97.861,346.462,98.001,346.462,98.281z M346.762,85.801c0.48,0,0.83,0.18,1.051,0.54c0.219,0.36,0.33,0.76,0.33,1.2
			c0,0.6-0.181,1.18-0.54,1.74c-0.36,0.561-0.881,0.84-1.561,0.84c-0.44,0-0.78-0.18-1.02-0.54s-0.36-0.76-0.36-1.2
			c0-0.6,0.18-1.179,0.54-1.74C345.563,86.081,346.081,85.801,346.762,85.801z"/>
		<path fill="#FFFFFF" d="M359.901,98.941c-0.681,0-1.351,0.591-2.01,1.77c-0.66,1.181-1.271,2.62-1.83,4.319
			c-0.561,1.701-1.011,3.502-1.351,5.4c-0.34,1.9-0.51,3.591-0.51,5.07v0.9c-0.36,0.119-0.7,0.18-1.02,0.18
			c-0.441,0-0.801-0.101-1.08-0.301c-0.28-0.2-0.42-0.519-0.42-0.959c0.159-1.76,0.3-3.49,0.42-5.19s0.18-3.409,0.18-5.13
			c0-1.2-0.04-2.4-0.12-3.6c-0.08-1.201-0.2-2.38-0.36-3.541c0.36-0.159,0.76-0.24,1.2-0.24c0.52,0,0.95,0.13,1.29,0.39
			c0.34,0.261,0.51,0.651,0.51,1.17c0,0.441-0.029,1.05-0.09,1.83c-0.06,0.78-0.12,1.641-0.18,2.58c-0.06,0.94-0.12,1.9-0.18,2.88
			c-0.061,0.981-0.111,1.89-0.15,2.729c0.159-0.439,0.33-1.02,0.51-1.739c0.181-0.72,0.391-1.489,0.63-2.31
			c0.24-0.82,0.53-1.65,0.87-2.49s0.729-1.6,1.17-2.28c0.44-0.68,0.939-1.23,1.5-1.65c0.56-0.42,1.2-0.63,1.92-0.63
			c1.16,0,1.94,0.351,2.341,1.05c0.399,0.7,0.6,1.51,0.6,2.43c0,1.08-0.07,2.181-0.21,3.3c-0.141,1.12-0.3,2.2-0.48,3.24
			c-0.18,1.04-0.34,2.021-0.479,2.94c-0.141,0.92-0.21,1.739-0.21,2.459c0,0.801,0.129,1.432,0.39,1.891
			c0.26,0.46,0.729,0.689,1.41,0.689c0.84,0,1.561-0.409,2.16-1.229c0.6-0.819,1.089-1.78,1.47-2.88c0.38-1.1,0.67-2.19,0.87-3.271
			c0.2-1.079,0.319-1.88,0.36-2.399h0.42c-0.081,0.84-0.23,1.881-0.45,3.119c-0.221,1.24-0.551,2.441-0.99,3.601
			c-0.44,1.161-1.02,2.15-1.74,2.97c-0.72,0.819-1.619,1.23-2.699,1.23c-0.921,0-1.761-0.411-2.521-1.23s-1.14-2.029-1.14-3.63
			c0-0.72,0.05-1.599,0.149-2.64c0.1-1.04,0.21-2.1,0.33-3.18s0.23-2.141,0.33-3.181c0.1-1.04,0.15-1.92,0.15-2.64
			C360.861,99.541,360.541,98.941,359.901,98.941z"/>
		<path fill="#FFFFFF" d="M377.84,97.981c1.16,0,1.96,0.37,2.4,1.11c0.439,0.741,0.66,1.57,0.66,2.49c0,1.16-0.101,2.32-0.3,3.48
			c-0.201,1.16-0.411,2.279-0.63,3.359c-0.221,1.08-0.431,2.1-0.631,3.061c-0.2,0.959-0.3,1.779-0.3,2.459
			c0,0.682,0.12,1.211,0.36,1.59c0.24,0.381,0.68,0.57,1.32,0.57c0.84,0,1.56-0.409,2.159-1.229c0.601-0.819,1.09-1.78,1.471-2.88
			c0.38-1.1,0.669-2.19,0.87-3.271c0.199-1.079,0.319-1.88,0.359-2.399H386c-0.08,0.84-0.23,1.881-0.449,3.119
			c-0.221,1.24-0.551,2.441-0.99,3.601c-0.44,1.161-1.021,2.15-1.74,2.97c-0.719,0.82-1.62,1.23-2.7,1.23
			c-0.921,0-1.761-0.411-2.52-1.23c-0.761-0.819-1.141-2.029-1.141-3.63c0-0.72,0.08-1.599,0.24-2.64c0.159-1.04,0.34-2.1,0.54-3.18
			s0.38-2.141,0.54-3.181c0.159-1.04,0.24-1.92,0.24-2.64c0-1.2-0.321-1.8-0.96-1.8c-0.521,0-1.071,0.33-1.65,0.99
			c-0.58,0.66-1.16,1.521-1.74,2.58c-0.58,1.061-1.12,2.26-1.619,3.6c-0.501,1.342-0.911,2.711-1.23,4.11v6.181
			c-0.32,0.119-0.641,0.18-0.96,0.18c-0.4,0-0.75-0.101-1.05-0.301s-0.45-0.519-0.45-0.959c0-2.48,0-4.86,0-7.141
			c0-2.279,0.039-4.479,0.12-6.6c-0.44,0.48-0.9,0.939-1.38,1.38c-0.48,0.44-1,0.82-1.561,1.14l-0.359-0.359
			c0.6-0.32,1.17-0.721,1.71-1.2c0.54-0.479,1.069-0.999,1.59-1.56c0.079-2.761,0.219-5.3,0.42-7.621
			c0.199-2.319,0.47-4.389,0.81-6.21c0.34-1.82,0.78-3.36,1.32-4.62c0.54-1.26,1.209-2.229,2.01-2.91c0.8-0.68,1.54-1.02,2.221-1.02
			c0.68,0,1.199,0.291,1.56,0.87c0.36,0.581,0.54,1.331,0.54,2.25c0,1.041-0.15,2.261-0.45,3.66c-0.3,1.401-0.74,2.871-1.32,4.41
			c-0.58,1.54-1.28,3.1-2.1,4.68c-0.82,1.581-1.73,3.07-2.729,4.47c-0.081,1.041-0.12,2.05-0.12,3.03c0,0.981,0,1.87,0,2.671
			c0,0.8,0,1.5,0,2.1s0.02,1.12,0.06,1.56c0.279-0.88,0.649-1.909,1.11-3.09c0.459-1.179,0.979-2.31,1.56-3.39
			c0.579-1.08,1.239-1.99,1.98-2.73C376.09,98.351,376.92,97.981,377.84,97.981z M376.46,81.961c0-1.6-0.44-2.4-1.319-2.4
			c-0.521,0-1.001,0.34-1.44,1.02c-0.44,0.72-0.83,1.72-1.17,3c-0.34,1.28-0.63,2.71-0.87,4.29c-0.24,1.581-0.43,3.24-0.57,4.98
			c-0.141,1.74-0.25,3.45-0.329,5.13c0.879-1.32,1.669-2.72,2.369-4.2c0.7-1.479,1.3-2.94,1.801-4.38
			c0.499-1.44,0.879-2.81,1.14-4.11C376.33,83.992,376.46,82.881,376.46,81.961z"/>
	</g>
	<g>
		<path fill="#2E5428" d="M234.584,107.441c-1.2,0.92-2.06,2.039-2.58,3.359c-0.519,1.32-0.78,2.74-0.78,4.26
			c0,2,0.31,3.75,0.93,5.25c0.621,1.5,1.47,2.761,2.55,3.78c1.08,1.021,2.379,1.779,3.9,2.28c1.52,0.499,3.18,0.75,4.98,0.75
			c3.359,0,6.239-0.63,8.64-1.891c2.399-1.26,4.38-2.931,5.939-5.01c1.561-2.08,2.73-4.48,3.511-7.199
			c0.779-2.721,1.27-5.541,1.47-8.461c0.12-1.92,0.22-3.729,0.3-5.43c0.08-1.7,0.159-3.31,0.24-4.83
			c-1.521-0.68-2.67-1.64-3.45-2.88c-0.78-1.239-1.17-2.58-1.17-4.02c0-1.52,0.45-3.05,1.35-4.59c0.9-1.54,2.311-2.89,4.23-4.05
			l0.36,0.36c-1.521,0.92-2.65,2.03-3.391,3.33c-0.74,1.3-1.109,2.61-1.109,3.93c0,1.2,0.27,2.34,0.81,3.42s1.37,1.98,2.49,2.7
			c0.039-0.52,0.069-1.029,0.09-1.53c0.02-0.5,0.069-1.01,0.15-1.53c0.199-2.28,0.529-4.35,0.989-6.21s1.09-3.54,1.891-5.04
			c0.8-1.5,1.789-2.85,2.97-4.05c1.18-1.2,2.61-2.259,4.29-3.18c0.319-0.16,0.52-0.24,0.6-0.24c0.2,0,0.301,0.141,0.301,0.42
			c-1.001,0.521-1.852,1.131-2.551,1.83c-0.7,0.701-1.29,1.51-1.77,2.43c-0.561,1.08-0.99,2.17-1.29,3.27
			c-0.3,1.101-0.53,2.22-0.69,3.36c-0.16,1.14-0.261,2.291-0.3,3.45c-0.04,1.161-0.101,2.32-0.18,3.48l-0.3,5.04
			c0.279,0.081,0.569,0.12,0.869,0.12c0.301,0,0.609,0,0.931,0c1.56,0,2.919-0.26,4.08-0.78c0.199-2.439,0.479-4.629,0.84-6.57
			c0.36-1.94,0.829-3.6,1.41-4.98c0.579-1.38,1.26-2.45,2.04-3.21c0.779-0.76,1.71-1.16,2.79-1.2c-0.4-1.839-1.11-3.62-2.13-5.34
			c-1.021-1.72-2.4-3.25-4.141-4.59c-1.74-1.339-3.86-2.409-6.359-3.21c-2.501-0.799-5.411-1.2-8.73-1.2c-3.2,0-6.39,0.45-9.57,1.35
			c-3.18,0.9-6.04,2.271-8.58,4.11c-2.54,1.84-4.6,4.14-6.18,6.9c-1.58,2.76-2.37,6-2.37,9.72c0,2,0.34,3.73,1.02,5.19
			c0.681,1.46,1.59,2.67,2.73,3.63c1.141,0.96,2.45,1.67,3.931,2.13c1.479,0.46,3.039,0.69,4.68,0.69c2.28,0,4.52-0.42,6.72-1.26
			c2.199-0.84,4.119-2.04,5.76-3.6l0.42,0.66c-1.68,1.68-3.72,2.98-6.119,3.9c-2.4,0.92-4.86,1.38-7.381,1.38
			c-1.72,0-3.37-0.229-4.949-0.69c-1.581-0.459-2.98-1.179-4.2-2.16c-1.22-0.979-2.2-2.22-2.94-3.72s-1.11-3.29-1.11-5.37
			c0-2.72,0.42-5.229,1.26-7.53c0.84-2.3,1.99-4.37,3.45-6.21c1.459-1.839,3.18-3.459,5.16-4.86c1.979-1.399,4.1-2.57,6.359-3.51
			c2.26-0.939,4.6-1.64,7.021-2.1c2.419-0.459,4.83-0.69,7.229-0.69c3.8,0,7.08,0.54,9.84,1.62c2.761,1.08,5.04,2.49,6.84,4.23
			c1.801,1.74,3.13,3.71,3.99,5.91s1.29,4.42,1.29,6.66c0,2.88-0.66,5.58-1.979,8.1c-1.32,2.52-3.24,4.48-5.761,5.88
			c-0.2,2.16-0.34,4.35-0.42,6.57c-0.08,2.221-0.12,4.65-0.12,7.29c0.28-0.88,0.65-1.909,1.11-3.09
			c0.46-1.179,0.979-2.31,1.561-3.39c0.579-1.08,1.239-1.99,1.979-2.73s1.569-1.11,2.49-1.11c1.159,0,1.959,0.37,2.399,1.11
			c0.44,0.741,0.66,1.57,0.66,2.49c0,1.16-0.1,2.32-0.3,3.48s-0.41,2.279-0.63,3.359c-0.221,1.08-0.431,2.1-0.63,3.061
			c-0.201,0.959-0.3,1.779-0.3,2.459c0,0.682,0.12,1.211,0.359,1.59c0.24,0.381,0.68,0.57,1.32,0.57c0.84,0,1.56-0.409,2.16-1.229
			c0.6-0.819,1.089-1.78,1.47-2.88c0.38-1.1,0.67-2.19,0.87-3.271c0.199-1.079,0.319-1.88,0.36-2.399h0.42
			c-0.081,0.84-0.23,1.881-0.45,3.119c-0.221,1.24-0.551,2.441-0.99,3.601c-0.44,1.161-1.02,2.15-1.74,2.97
			c-0.72,0.819-1.62,1.23-2.699,1.23c-0.921,0-1.761-0.411-2.521-1.23s-1.14-2.029-1.14-3.63c0-0.72,0.079-1.599,0.239-2.64
			c0.16-1.04,0.34-2.1,0.54-3.18s0.38-2.141,0.54-3.181c0.16-1.04,0.24-1.92,0.24-2.64c0-1.2-0.32-1.8-0.96-1.8
			c-0.521,0-1.07,0.33-1.649,0.99c-0.581,0.66-1.161,1.521-1.74,2.58c-0.58,1.061-1.12,2.26-1.62,3.6
			c-0.501,1.342-0.91,2.711-1.23,4.11v6.181c-0.32,0.119-0.64,0.18-0.96,0.18c-0.4,0-0.75-0.101-1.05-0.301s-0.45-0.519-0.45-0.959
			c0-3.76,0.04-7.3,0.12-10.621c0.08-3.318,0.22-6.379,0.42-9.179c-1.521,0.52-3.239,0.78-5.16,0.78h-0.72
			c-0.08,1.84-0.19,3.591-0.33,5.25c-0.141,1.661-0.351,3.311-0.63,4.95c-0.561,3.32-1.461,6.351-2.7,9.09
			c-1.24,2.739-2.84,5.109-4.8,7.11c-1.96,1.999-4.24,3.549-6.84,4.649c-2.601,1.1-5.521,1.65-8.76,1.65
			c-2.001,0-3.831-0.271-5.49-0.811c-1.66-0.539-3.09-1.33-4.29-2.369c-1.2-1.041-2.13-2.32-2.79-3.841s-0.99-3.26-0.99-5.22
			c0-1.68,0.291-3.3,0.87-4.859c0.581-1.561,1.51-2.76,2.79-3.601c0.041,0,0.081-0.02,0.12-0.06c0.041,0,0.07-0.01,0.09-0.03
			c0.021-0.02,0.051-0.03,0.09-0.03C234.404,107.141,234.505,107.241,234.584,107.441z M281.324,80.801c0-0.439-0.021-0.9-0.06-1.38
			c-0.04-0.48-0.101-0.96-0.18-1.44c-0.641,0.081-1.221,0.52-1.74,1.32c-0.521,0.801-0.971,1.84-1.351,3.12
			c-0.38,1.281-0.71,2.75-0.989,4.41c-0.28,1.66-0.521,3.37-0.721,5.13c1.64-1.239,2.89-2.84,3.75-4.8
			C280.895,85.202,281.324,83.081,281.324,80.801z"/>
		<path fill="#2E5428" d="M296.744,96.821c-0.921,0.321-1.701,0.851-2.341,1.59c-0.64,0.741-1.16,1.59-1.56,2.55s-0.7,2-0.9,3.12
			c-0.2,1.12-0.3,2.22-0.3,3.3c0,1.041,0.08,2.04,0.24,3c0.159,0.96,0.399,1.811,0.72,2.55c0.32,0.741,0.71,1.331,1.17,1.771
			s0.99,0.66,1.59,0.66c0.841,0,1.55-0.23,2.131-0.69c0.579-0.46,1.069-1.06,1.47-1.8c0.399-0.74,0.689-1.59,0.87-2.551
			c0.18-0.959,0.27-1.939,0.27-2.939c0-1.119-0.12-2.199-0.359-3.24c-0.681,0.24-1.32,0.36-1.921,0.36
			c-1.439,0-2.489-0.38-3.149-1.14s-0.99-1.561-0.99-2.4c0-0.721,0.22-1.369,0.66-1.95c0.439-0.579,1.1-0.87,1.979-0.87
			c1.04,0,1.921,0.471,2.641,1.41c0.72,0.94,1.239,2.11,1.56,3.51c0.44-0.199,0.89-0.449,1.351-0.75
			c0.459-0.3,0.93-0.669,1.41-1.109l0.3,0.3c-1.041,1-2.021,1.739-2.94,2.22c0.2,1.121,0.3,2.181,0.3,3.18
			c0,1.201-0.12,2.371-0.359,3.51c-0.24,1.141-0.601,2.171-1.08,3.091c-0.48,0.921-1.08,1.659-1.8,2.22
			c-0.721,0.56-1.581,0.84-2.58,0.84c-1.121,0-2.081-0.22-2.88-0.66c-0.801-0.439-1.461-1.029-1.98-1.77
			c-0.521-0.74-0.9-1.6-1.14-2.58c-0.24-0.979-0.36-2.01-0.36-3.09c0-1.32,0.171-2.649,0.51-3.99c0.34-1.34,0.84-2.569,1.5-3.689
			c0.66-1.119,1.46-2.07,2.4-2.851c0.939-0.78,1.989-1.25,3.149-1.41c0.08,0,0.17,0.021,0.271,0.06
			C296.693,96.621,296.744,96.701,296.744,96.821z M301.124,95.501c0,0.12-0.061,0.18-0.181,0.18c-1.04-0.48-1.949-1.119-2.729-1.92
			c-0.78-0.8-1.41-1.56-1.891-2.28c-0.64,0.72-1.529,1.38-2.67,1.98c-1.14,0.6-2.09,1.06-2.85,1.38c-0.12,0-0.221-0.08-0.3-0.24
			c-0.04-0.08-0.061-0.16-0.061-0.24c1.28-0.56,2.311-1.29,3.091-2.19c0.779-0.9,1.249-1.81,1.409-2.73
			c0.76-0.399,1.34-0.6,1.74-0.6c0.56,0.041,1.021,0.561,1.38,1.56c0.279,0.801,0.68,1.65,1.2,2.55c0.52,0.9,1.14,1.671,1.86,2.31
			v0.24H301.124z M300.644,88.181c-0.2,0.081-0.561,0.12-1.08,0.12c-0.64,0-1.37-0.09-2.189-0.27c-0.82-0.18-1.59-0.429-2.311-0.75
			c-0.72-0.32-1.319-0.69-1.8-1.11c-0.479-0.42-0.72-0.87-0.72-1.35c0-0.6,0.479-1.16,1.439-1.68c0.12,0.441,0.35,0.93,0.69,1.47
			c0.339,0.54,0.789,1.05,1.35,1.53c0.56,0.48,1.22,0.88,1.98,1.2c0.759,0.321,1.6,0.48,2.52,0.48L300.644,88.181z M298.184,103.541
			c0.439,0,0.9-0.061,1.38-0.18c-0.32-1.201-0.779-2.199-1.38-3c-0.6-0.801-1.3-1.201-2.1-1.201c-0.48,0-0.851,0.141-1.11,0.42
			c-0.261,0.28-0.39,0.64-0.39,1.079c0,0.641,0.3,1.281,0.899,1.921C296.084,103.221,296.983,103.541,298.184,103.541z"/>
		<path fill="#2E5428" d="M312.044,97.901c-0.681,0-1.351,0.591-2.01,1.77c-0.66,1.181-1.271,2.62-1.83,4.319
			c-0.561,1.701-1.011,3.502-1.351,5.4c-0.34,1.9-0.51,3.591-0.51,5.07v0.9c-0.36,0.119-0.7,0.18-1.02,0.18
			c-0.441,0-0.801-0.101-1.08-0.301c-0.28-0.2-0.42-0.519-0.42-0.959c0.159-1.76,0.3-3.49,0.42-5.19s0.18-3.409,0.18-5.13
			c0-1.2-0.04-2.4-0.12-3.6c-0.08-1.201-0.2-2.38-0.36-3.541c0.36-0.159,0.76-0.24,1.2-0.24c0.52,0,0.95,0.13,1.29,0.39
			c0.34,0.261,0.51,0.651,0.51,1.17c0,0.441-0.029,1.05-0.09,1.83c-0.06,0.78-0.12,1.641-0.18,2.58c-0.06,0.94-0.12,1.9-0.18,2.88
			c-0.061,0.981-0.111,1.89-0.15,2.729c0.159-0.439,0.33-1.02,0.51-1.739c0.181-0.72,0.391-1.489,0.63-2.31
			c0.24-0.82,0.53-1.65,0.87-2.49s0.729-1.6,1.17-2.28c0.44-0.68,0.939-1.23,1.5-1.65c0.56-0.42,1.2-0.63,1.92-0.63
			c1.16,0,1.94,0.351,2.341,1.05c0.399,0.7,0.6,1.51,0.6,2.43c0,1.08-0.07,2.181-0.21,3.3c-0.141,1.12-0.3,2.2-0.48,3.24
			c-0.18,1.04-0.34,2.021-0.479,2.94c-0.141,0.92-0.21,1.739-0.21,2.459c0,0.801,0.129,1.432,0.39,1.891
			c0.26,0.46,0.729,0.689,1.41,0.689c0.84,0,1.561-0.409,2.16-1.229c0.6-0.819,1.089-1.78,1.47-2.88c0.38-1.1,0.67-2.19,0.87-3.271
			c0.2-1.079,0.319-1.88,0.36-2.399h0.42c-0.081,0.84-0.23,1.881-0.45,3.119c-0.221,1.24-0.551,2.441-0.99,3.601
			c-0.44,1.161-1.02,2.15-1.74,2.97c-0.72,0.819-1.619,1.23-2.699,1.23c-0.921,0-1.761-0.411-2.521-1.23s-1.14-2.029-1.14-3.63
			c0-0.72,0.05-1.599,0.149-2.64c0.1-1.04,0.21-2.1,0.33-3.18s0.23-2.141,0.33-3.181c0.1-1.04,0.15-1.92,0.15-2.64
			C313.004,98.501,312.684,97.901,312.044,97.901z"/>
		<path fill="#2E5428" d="M335.623,115.602c-0.36,0.119-0.741,0.18-1.141,0.18c-0.44,0-0.81-0.081-1.109-0.24
			c-0.301-0.16-0.45-0.461-0.45-0.9c0-1.439-0.07-2.93-0.21-4.47c-0.141-1.54-0.37-3.02-0.69-4.44
			c-0.32-1.419-0.771-2.699-1.35-3.84c-0.579-1.14-1.329-2.049-2.25-2.73c0.16-0.319,0.34-0.6,0.54-0.84c0.2-0.2,0.4-0.399,0.6-0.6
			c0.201-0.2,0.461-0.3,0.78-0.3c0.4,0,0.84,0.261,1.32,0.78c0.72,0.801,1.299,1.911,1.739,3.331c0.44,1.42,0.8,2.9,1.08,4.439
			c0.279,1.541,0.47,3.03,0.57,4.471c0.1,1.439,0.15,2.6,0.15,3.479c0.079-0.88,0.239-1.989,0.479-3.33
			c0.24-1.34,0.55-2.749,0.93-4.229c0.38-1.48,0.819-2.96,1.32-4.44c0.5-1.479,1.06-2.81,1.68-3.99
			c0.62-1.179,1.29-2.139,2.011-2.88c0.72-0.74,1.5-1.11,2.34-1.11c0.52,0,0.899,0.12,1.14,0.36c0.24,0.24,0.36,0.521,0.36,0.84
			c0,0.321-0.101,0.591-0.3,0.81c-0.201,0.221-0.461,0.33-0.78,0.33c-0.32,0-0.621-0.18-0.9-0.54c-0.16-0.159-0.28-0.339-0.359-0.54
			c-0.561,0-1.121,0.351-1.681,1.05c-0.561,0.7-1.12,1.61-1.68,2.73c-0.561,1.121-1.08,2.41-1.56,3.871
			c-0.48,1.46-0.9,2.939-1.261,4.439c-0.359,1.5-0.66,2.98-0.899,4.439C335.803,113.191,335.662,114.481,335.623,115.602z"/>
		<path fill="#2E5428" d="M345.462,97.241c-0.2,1.8-0.37,3.581-0.51,5.34c-0.141,1.761-0.21,3.42-0.21,4.979
			c0,2.16,0.17,3.951,0.51,5.37c0.34,1.421,0.95,2.13,1.83,2.13c0.84,0,1.561-0.409,2.16-1.229c0.6-0.819,1.089-1.78,1.47-2.88
			c0.38-1.1,0.67-2.19,0.87-3.271c0.2-1.079,0.319-1.88,0.36-2.399h0.42c-0.081,0.84-0.23,1.881-0.45,3.119
			c-0.221,1.24-0.551,2.441-0.99,3.601c-0.44,1.161-1.02,2.15-1.74,2.97c-0.72,0.819-1.619,1.23-2.699,1.23
			c-0.801,0-1.471-0.271-2.011-0.811c-0.54-0.539-0.98-1.289-1.319-2.25c-0.341-0.96-0.58-2.07-0.721-3.33s-0.21-2.609-0.21-4.05
			c0-1.119,0.03-2.27,0.091-3.45c0.06-1.18,0.169-2.369,0.33-3.57c0.079-0.68,0.329-1.17,0.75-1.47c0.42-0.3,0.849-0.45,1.289-0.45
			C345.201,96.821,345.462,96.961,345.462,97.241z M345.762,84.761c0.48,0,0.83,0.18,1.051,0.54c0.219,0.36,0.33,0.76,0.33,1.2
			c0,0.6-0.181,1.18-0.54,1.74c-0.36,0.561-0.881,0.84-1.561,0.84c-0.44,0-0.78-0.18-1.02-0.54s-0.36-0.76-0.36-1.2
			c0-0.6,0.18-1.179,0.54-1.74C344.563,85.041,345.081,84.761,345.762,84.761z"/>
		<path fill="#2E5428" d="M358.901,97.901c-0.681,0-1.351,0.591-2.01,1.77c-0.66,1.181-1.271,2.62-1.83,4.319
			c-0.561,1.701-1.011,3.502-1.351,5.4c-0.34,1.9-0.51,3.591-0.51,5.07v0.9c-0.36,0.119-0.7,0.18-1.02,0.18
			c-0.441,0-0.801-0.101-1.08-0.301c-0.28-0.2-0.42-0.519-0.42-0.959c0.159-1.76,0.3-3.49,0.42-5.19s0.18-3.409,0.18-5.13
			c0-1.2-0.04-2.4-0.12-3.6c-0.08-1.201-0.2-2.38-0.36-3.541c0.36-0.159,0.76-0.24,1.2-0.24c0.52,0,0.95,0.13,1.29,0.39
			c0.34,0.261,0.51,0.651,0.51,1.17c0,0.441-0.029,1.05-0.09,1.83c-0.06,0.78-0.12,1.641-0.18,2.58c-0.06,0.94-0.12,1.9-0.18,2.88
			c-0.061,0.981-0.111,1.89-0.15,2.729c0.159-0.439,0.33-1.02,0.51-1.739c0.181-0.72,0.391-1.489,0.63-2.31
			c0.24-0.82,0.53-1.65,0.87-2.49s0.729-1.6,1.17-2.28c0.44-0.68,0.939-1.23,1.5-1.65c0.56-0.42,1.2-0.63,1.92-0.63
			c1.16,0,1.94,0.351,2.341,1.05c0.399,0.7,0.6,1.51,0.6,2.43c0,1.08-0.07,2.181-0.21,3.3c-0.141,1.12-0.3,2.2-0.48,3.24
			c-0.18,1.04-0.34,2.021-0.479,2.94c-0.141,0.92-0.21,1.739-0.21,2.459c0,0.801,0.129,1.432,0.39,1.891
			c0.26,0.46,0.729,0.689,1.41,0.689c0.84,0,1.561-0.409,2.16-1.229c0.6-0.819,1.089-1.78,1.47-2.88c0.38-1.1,0.67-2.19,0.87-3.271
			c0.2-1.079,0.319-1.88,0.36-2.399h0.42c-0.081,0.84-0.23,1.881-0.45,3.119c-0.221,1.24-0.551,2.441-0.99,3.601
			c-0.44,1.161-1.02,2.15-1.74,2.97c-0.72,0.819-1.619,1.23-2.699,1.23c-0.921,0-1.761-0.411-2.521-1.23s-1.14-2.029-1.14-3.63
			c0-0.72,0.05-1.599,0.149-2.64c0.1-1.04,0.21-2.1,0.33-3.18s0.23-2.141,0.33-3.181c0.1-1.04,0.15-1.92,0.15-2.64
			C359.861,98.501,359.541,97.901,358.901,97.901z"/>
		<path fill="#2E5428" d="M376.84,96.941c1.16,0,1.96,0.37,2.4,1.11c0.439,0.741,0.66,1.57,0.66,2.49c0,1.16-0.101,2.32-0.3,3.48
			c-0.201,1.16-0.411,2.279-0.63,3.359c-0.221,1.08-0.431,2.1-0.631,3.061c-0.2,0.959-0.3,1.779-0.3,2.459
			c0,0.682,0.12,1.211,0.36,1.59c0.24,0.381,0.68,0.57,1.32,0.57c0.84,0,1.56-0.409,2.159-1.229c0.601-0.819,1.09-1.78,1.471-2.88
			c0.38-1.1,0.669-2.19,0.87-3.271c0.199-1.079,0.319-1.88,0.359-2.399H385c-0.08,0.84-0.23,1.881-0.449,3.119
			c-0.221,1.24-0.551,2.441-0.99,3.601c-0.44,1.161-1.021,2.15-1.74,2.97c-0.719,0.82-1.62,1.23-2.7,1.23
			c-0.921,0-1.761-0.411-2.52-1.23c-0.761-0.819-1.141-2.029-1.141-3.63c0-0.72,0.08-1.599,0.24-2.64c0.159-1.04,0.34-2.1,0.54-3.18
			s0.38-2.141,0.54-3.181c0.159-1.04,0.24-1.92,0.24-2.64c0-1.2-0.321-1.8-0.96-1.8c-0.521,0-1.071,0.33-1.65,0.99
			c-0.58,0.66-1.16,1.521-1.74,2.58c-0.58,1.061-1.12,2.26-1.619,3.6c-0.501,1.342-0.911,2.711-1.23,4.11v6.181
			c-0.32,0.119-0.641,0.18-0.96,0.18c-0.4,0-0.75-0.101-1.05-0.301s-0.45-0.519-0.45-0.959c0-2.48,0-4.86,0-7.141
			c0-2.279,0.039-4.479,0.12-6.6c-0.44,0.48-0.9,0.939-1.38,1.38c-0.48,0.44-1,0.82-1.561,1.14l-0.359-0.359
			c0.6-0.32,1.17-0.721,1.71-1.2c0.54-0.479,1.069-0.999,1.59-1.56c0.079-2.761,0.219-5.3,0.42-7.621
			c0.199-2.319,0.47-4.389,0.81-6.21c0.34-1.82,0.78-3.36,1.32-4.62c0.54-1.26,1.209-2.229,2.01-2.91c0.8-0.68,1.54-1.02,2.221-1.02
			c0.68,0,1.199,0.291,1.56,0.87c0.36,0.581,0.54,1.331,0.54,2.25c0,1.041-0.15,2.261-0.45,3.66c-0.3,1.401-0.74,2.871-1.32,4.41
			c-0.58,1.54-1.28,3.1-2.1,4.68c-0.82,1.581-1.73,3.07-2.729,4.47c-0.081,1.041-0.12,2.05-0.12,3.03c0,0.981,0,1.87,0,2.671
			c0,0.8,0,1.5,0,2.1c0,0.6,0.02,1.12,0.06,1.56c0.279-0.88,0.649-1.909,1.11-3.09c0.459-1.179,0.979-2.31,1.56-3.39
			c0.579-1.08,1.239-1.99,1.98-2.73C375.09,97.311,375.92,96.941,376.84,96.941z M375.46,80.921c0-1.6-0.44-2.4-1.319-2.4
			c-0.521,0-1.001,0.34-1.44,1.02c-0.44,0.72-0.83,1.72-1.17,3c-0.34,1.28-0.63,2.71-0.87,4.29c-0.24,1.581-0.43,3.24-0.57,4.98
			c-0.141,1.74-0.25,3.45-0.329,5.13c0.879-1.32,1.669-2.72,2.369-4.2c0.7-1.479,1.3-2.94,1.801-4.38
			c0.499-1.44,0.879-2.81,1.14-4.11C375.33,82.952,375.46,81.841,375.46,80.921z"/>
	</g>
</g>
<g>
	<path fill="#FFFFFF" d="M169.336,38.126L169.336,38.126c0-3.108,2.539-5.647,5.647-5.647s5.647,2.539,5.647,5.647v9.017H184v-9.017
		c0-4.99-4.027-9.017-9.017-9.017s-9.017,4.027-9.017,9.017v9.017h3.371V38.126z M154.323,32.523c2.495,0,4.64,1.663,5.384,3.939
		h-10.768C149.639,34.187,151.785,32.523,154.323,32.523 M154.323,47.143c3.546,0,6.654-2.057,8.098-5.034h-4.071
		c-1.05,1.006-2.451,1.663-4.027,1.663c-2.539,0-4.684-1.663-5.384-3.939h14.226c0.088-0.526,0.175-1.095,0.175-1.707
		c0-4.946-4.027-9.017-9.017-9.017c-4.99,0-9.017,4.071-9.017,9.017C145.306,43.116,149.333,47.143,154.323,47.143 M133.664,32.479
		c3.108,0,5.647,2.539,5.647,5.647c0,3.107-2.539,5.647-5.647,5.647s-5.647-2.539-5.647-5.647
		C128.017,35.018,130.556,32.479,133.664,32.479 M133.664,47.143c4.99,0,9.017-4.028,9.017-9.017V20.092h-3.371v10.987
		c-1.532-1.226-3.502-1.97-5.647-1.97c-4.99,0-9.017,4.027-9.017,9.017C124.646,43.116,128.673,47.143,133.664,47.143
		 M115.104,38.126L115.104,38.126v9.017h3.414v-9.017c0-3.108,2.495-5.647,5.603-5.647v-3.371
		C119.175,29.109,115.104,33.136,115.104,38.126 M103.462,43.773c-3.108,0-5.647-2.539-5.647-5.647c0-3.108,2.539-5.647,5.647-5.647
		c3.107,0,5.647,2.539,5.647,5.647C109.108,41.233,106.569,43.773,103.462,43.773 M103.462,29.109c-4.99,0-9.017,4.027-9.017,9.017
		c0,4.99,4.027,9.017,9.017,9.017c2.145,0,4.071-0.745,5.647-1.97v1.97h3.37v-9.017C112.478,33.136,108.451,29.109,103.462,29.109
		 M78.293,47.143c7.441,0,13.526-6.041,13.526-13.526v-0.044H78.775v3.371h9.105c-1.401,3.983-5.165,6.829-9.587,6.829
		c-5.603,0-10.155-4.553-10.155-10.155c0-5.559,4.552-10.111,10.155-10.111c3.94,0,7.354,2.276,9.061,5.559h3.677
		c-1.882-5.209-6.872-8.973-12.738-8.973c-7.485,0-13.525,6.084-13.525,13.525C64.767,41.102,70.808,47.143,78.293,47.143
		 M57.895,29.109l-4.771,6.215l-4.771-6.215h-4.246l6.872,9.017l-6.872,9.017h4.246l4.771-6.26l4.771,6.26h4.246l-6.872-9.017
		l6.872-9.017H57.895z M38.112,38.126L38.112,38.126c0,3.107-2.539,5.647-5.647,5.647c-3.108,0-5.647-2.539-5.647-5.647v-9.017
		h-3.371v9.017c0,4.99,4.027,9.017,9.017,9.017c4.99,0,9.017-4.028,9.017-9.017v-9.017h-3.371V38.126z M2,20.048v27.095h0.044
		h18.778v-3.414H5.414V20.048H2z"/>
	<path fill="#FFFFFF" d="M75.232-57.071c-7.529,16.704,0.464,19.323,4.609,19.637c-0.021-0.056-0.046-0.108-0.066-0.166
		c-0.296-1.036-0.406-2.205-0.644-3.334c-1.008-4.499-1.478-9.167-1.478-9.167s2.501,4.03,4.482,8.224
		c0.51,1.044,1.147,2.048,1.551,3.05c0.018,0.055,0.03,0.108,0.047,0.162C86.876-41.279,91.658-47.926,75.232-57.071"/>
	<path fill="#FFFFFF" d="M116.211-27.893c-17.143-8.988-20.725-1.427-21.465,2.594c0.062-0.015,0.121-0.034,0.184-0.049
		c1.137-0.188,2.399-0.183,3.631-0.304c4.913-0.547,9.954-0.553,9.954-0.553s-4.556,2.053-9.237,3.581
		c-1.167,0.396-2.303,0.921-3.415,1.219c-0.06,0.013-0.119,0.018-0.179,0.03C98.176-18.047,104.825-12.724,116.211-27.893"/>
	<path fill="#FFFFFF" d="M79.359-9.395C73.717-29.33,64.673-26.266,60.755-23.749c0.06,0.036,0.121,0.065,0.181,0.103
		c1.029,0.721,1.991,1.686,3.035,2.531c4.22,3.321,8.086,7.155,8.086,7.155s-5.201-1.896-10.06-4.289
		c-1.225-0.584-2.532-1.047-3.632-1.665c-0.056-0.036-0.107-0.077-0.162-0.114C57.34-15.583,57.996-6.444,79.359-9.395"/>
	<path fill="#FFFFFF" d="M80.834-8.515c-3.087,17.352,5.056,18.07,9.029,17.46c-0.033-0.048-0.069-0.091-0.102-0.141
		c-0.526-0.909-0.909-1.985-1.401-2.995c-2.023-4.01-3.582-8.297-3.582-8.297s3.316,3.244,6.181,6.755
		c0.729,0.87,1.568,1.675,2.187,2.529c0.03,0.047,0.054,0.095,0.083,0.143C95.559,3.793,98.467-3.502,80.834-8.515"/>
	<path fill="#FFFFFF" d="M115.36-5.36C99.907-7.763,99.318-1.142,99.885,2.082c0.042-0.027,0.081-0.057,0.125-0.084
		c0.805-0.432,1.76-0.751,2.655-1.157c3.556-1.668,7.359-2.96,7.359-2.96s-2.864,2.714-5.971,5.063
		c-0.77,0.597-1.481,1.284-2.236,1.792c-0.042,0.025-0.085,0.044-0.127,0.068C104.502,6.679,111.008,8.998,115.36-5.36"/>
	<path fill="#FFFFFF" d="M123.789-33.787c-9.615,10.579-4.387,14.289-1.421,15.446c-0.002-0.046-0.008-0.09-0.008-0.136
		c0.036-0.827,0.241-1.71,0.343-2.592c0.361-3.528,1.158-7.059,1.158-7.059s0.85,3.517,1.278,7.039
		c0.119,0.88,0.341,1.76,0.392,2.585c0,0.044-0.004,0.086-0.005,0.13C128.473-19.592,133.61-23.402,123.789-33.787"/>
	<path fill="#FFFFFF" d="M86.75-9.991c9.614-10.579,4.387-14.289,1.421-15.446c0.002,0.046,0.008,0.089,0.008,0.136
		c-0.036,0.827-0.241,1.71-0.344,2.592c-0.361,3.528-1.157,7.059-1.157,7.059s-0.85-3.518-1.278-7.039
		c-0.119-0.88-0.341-1.76-0.392-2.585c0-0.044,0.004-0.086,0.005-0.13C82.066-24.187,76.929-20.376,86.75-9.991"/>
	<path fill="#FFFFFF" d="M96.96-35.989c15.049-1.523,13.832-7.84,12.445-10.708c-0.033,0.036-0.061,0.072-0.094,0.108
		c-0.635,0.6-1.44,1.128-2.167,1.726c-2.87,2.421-6.071,4.553-6.071,4.553s1.947-3.228,4.217-6.175
		c0.558-0.744,1.038-1.557,1.607-2.216c0.032-0.034,0.067-0.062,0.1-0.094C103.875-49.858,97.189-50.436,96.96-35.989"/>
	<path fill="#FFFFFF" d="M90.128-41.009c-8.408,8.513-4.18,11.783-1.746,12.847c0.001-0.039-0.003-0.075-0.002-0.114
		c0.06-0.689,0.263-1.419,0.381-2.152c0.429-2.934,1.222-5.855,1.222-5.855s0.583,2.965,0.812,5.918
		c0.068,0.739,0.221,1.48,0.234,2.171c-0.001,0.037-0.007,0.072-0.009,0.108C93.523-29.004,97.95-32.015,90.128-41.009"/>
	<path fill="#FFFFFF" d="M69.774-28.156c10.89,5.359,13.003,0.569,13.397-1.961c-0.039,0.01-0.075,0.023-0.114,0.033
		c-0.709,0.136-1.5,0.152-2.269,0.247c-3.067,0.42-6.224,0.502-6.224,0.502s2.818-1.357,5.723-2.387
		c0.724-0.267,1.427-0.613,2.117-0.817c0.037-0.009,0.074-0.014,0.112-0.022C80.899-34.604,76.644-37.834,69.774-28.156"/>
	<path fill="#FFFFFF" d="M65.403-4.945c4.656,10.829,9.514,8.491,11.531,6.809c-0.037-0.016-0.074-0.029-0.11-0.045
		c-0.632-0.336-1.245-0.814-1.896-1.218c-2.62-1.582-5.08-3.475-5.08-3.475s3.067,0.713,5.978,1.729
		c0.732,0.245,1.502,0.417,2.166,0.69c0.034,0.016,0.065,0.036,0.099,0.053C78.248-2.96,77.199-8.056,65.403-4.945"/>
	<path fill="#FFFFFF" d="M96.299-17.256c-7.148,8.637-2.904,11.368-0.532,12.174c-0.003-0.036-0.01-0.07-0.011-0.107
		c-0.003-0.65,0.124-1.35,0.172-2.046c0.15-2.781,0.642-5.582,0.642-5.582s0.8,2.732,1.269,5.482
		c0.127,0.687,0.334,1.369,0.406,2.016c0.001,0.035-0.001,0.068,0.001,0.102C100.512-6.274,104.401-9.443,96.299-17.256"/>
	<path fill="#FFFFFF" d="M114.125-20.762c-6.479,9.975-1.638,12.379,0.977,12.958c-0.008-0.038-0.019-0.074-0.026-0.112
		c-0.085-0.688-0.039-1.445-0.077-2.188c-0.193-2.964-0.026-5.987-0.026-5.987s1.193,2.802,2.038,5.66
		c0.221,0.713,0.528,1.412,0.685,2.089c0.006,0.036,0.008,0.072,0.013,0.108C119.977-9.615,123.696-13.422,114.125-20.762"/>
	<path fill="#FFFFFF" d="M108.696-35.853c8.855,6.894,11.748,2.913,12.618,0.677c-0.037,0.003-0.073,0.008-0.11,0.01
		c-0.674-0.006-1.399-0.138-2.12-0.192c-2.883-0.182-5.78-0.687-5.78-0.687s2.845-0.72,5.702-1.124
		c0.715-0.11,1.425-0.297,2.097-0.356c0.036-0.001,0.07,0.001,0.106,0.001C120.145-39.689,116.914-43.418,108.696-35.853"/>
	<path fill="#FFFFFF" d="M123.861-44.217c-5.184-9.049-9.2-6.548-10.794-4.886c0.034,0.01,0.067,0.018,0.101,0.029
		c0.588,0.235,1.173,0.596,1.784,0.889c2.456,1.14,4.804,2.569,4.804,2.569s-2.759-0.339-5.411-0.956
		c-0.666-0.146-1.358-0.225-1.968-0.402c-0.032-0.011-0.061-0.025-0.093-0.037C112.41-44.755,113.849-40.391,123.861-44.217"/>
	<path fill="#FFFFFF" d="M107.944-57.328c-10.93-5.436-13.078-0.626-13.485,1.918c0.039-0.01,0.075-0.023,0.115-0.033
		c0.713-0.134,1.509-0.147,2.283-0.24c3.088-0.41,6.264-0.479,6.264-0.479s-2.841,1.353-5.768,2.377
		c-0.729,0.266-1.438,0.611-2.133,0.814c-0.037,0.008-0.075,0.013-0.112,0.021C96.724-50.887,100.99-47.621,107.944-57.328"/>
	<path fill="#FFFFFF" d="M81.344-58.642c4.923,9.083,8.964,6.692,10.583,5.079c-0.033-0.011-0.066-0.019-0.099-0.031
		c-0.577-0.245-1.149-0.616-1.748-0.92c-2.407-1.184-4.7-2.651-4.7-2.651s2.726,0.396,5.342,1.066
		c0.656,0.16,1.341,0.252,1.941,0.441c0.032,0.012,0.06,0.026,0.091,0.039C92.682-57.858,91.359-62.216,81.344-58.642"/>
	<path fill="#FFFFFF" d="M93.598-41.895c4.341-7.426,0.754-9.011-1.159-9.348c0.007,0.027,0.016,0.053,0.023,0.08
		c0.086,0.495,0.078,1.044,0.132,1.581c0.243,2.139,0.228,4.333,0.228,4.333s-0.961-1.99-1.672-4.032
		c-0.185-0.509-0.431-1.005-0.568-1.49c-0.006-0.026-0.009-0.052-0.014-0.078C88.974-49.776,86.416-46.903,93.598-41.895"/>
	<path fill="#FFFFFF" d="M68.964-31.106c5.896-7.077,2.417-9.332,0.471-10.001c0.003,0.03,0.008,0.058,0.01,0.088
		c0.001,0.534-0.107,1.109-0.147,1.681c-0.131,2.285-0.543,4.584-0.543,4.584s-0.65-2.247-1.027-4.506
		c-0.102-0.565-0.271-1.126-0.328-1.658c-0.001-0.028,0.001-0.056,0-0.084C65.533-40.139,62.329-37.546,68.964-31.106"/>
	<path fill="#FFFFFF" d="M56.667-25.626c9.601-2.233,8.24-6.22,7.082-7.962c-0.018,0.026-0.033,0.052-0.051,0.078
		c-0.357,0.441-0.83,0.85-1.246,1.297c-1.637,1.805-3.516,3.449-3.516,3.449s0.968-2.251,2.169-4.346
		c0.294-0.528,0.53-1.094,0.838-1.567c0.018-0.024,0.038-0.046,0.056-0.069C59.883-35.175,55.504-34.995,56.667-25.626"/>
	<path fill="#FFFFFF" d="M107.734-8.142c2.81-6.896-0.481-7.852-2.171-7.923c0.01,0.022,0.02,0.044,0.029,0.067
		c0.136,0.417,0.198,0.891,0.312,1.347c0.478,1.816,0.739,3.707,0.739,3.707s-1.078-1.604-1.946-3.282
		c-0.223-0.417-0.497-0.817-0.677-1.219c-0.008-0.022-0.014-0.044-0.022-0.065C102.761-14.403,100.916-11.634,107.734-8.142"/>
	<path fill="#FFFFFF" d="M69.495-50.766c-7.354,2.32-6.03,5.353-5.01,6.644c0.013-0.022,0.022-0.043,0.035-0.064
		c0.25-0.366,0.593-0.714,0.888-1.088c1.161-1.508,2.521-2.906,2.521-2.906s-0.608,1.816-1.41,3.525
		c-0.195,0.431-0.342,0.887-0.552,1.275c-0.012,0.02-0.027,0.038-0.039,0.058C67.609-43.113,71.018-43.516,69.495-50.766"/>
	<path fill="#FFFFFF" d="M58.907-38.309c5.506-0.174,5.238-2.498,4.813-3.575c-0.013,0.012-0.024,0.025-0.037,0.037
		c-0.247,0.202-0.554,0.374-0.835,0.572c-1.109,0.807-2.33,1.5-2.33,1.5s0.796-1.123,1.701-2.136c0.223-0.256,0.42-0.54,0.644-0.764
		c0.013-0.011,0.026-0.021,0.039-0.032C61.799-43.171,59.388-43.549,58.907-38.309"/>
	<path fill="#FFFFFF" d="M110.227-49.198c4.957-4.222,2.833-6.176,1.57-6.859c-0.002,0.02-0.002,0.041-0.004,0.062
		c-0.066,0.369-0.211,0.755-0.311,1.145c-0.375,1.565-0.946,3.107-0.946,3.107s-0.169-1.627-0.149-3.232
		c0-0.402-0.047-0.809-0.02-1.183c0.003-0.02,0.007-0.039,0.01-0.058C108.98-55.831,106.442-54.403,110.227-49.198"/>
	<path fill="#FFFFFF" d="M124.789-41.252c-3.27,3.886-1.36,5.139-0.289,5.511c-0.001-0.016-0.004-0.032-0.004-0.048
		c0.001-0.294,0.062-0.611,0.086-0.926c0.079-1.259,0.313-2.526,0.313-2.526s0.351,1.24,0.553,2.487
		c0.055,0.311,0.146,0.621,0.176,0.914c0.001,0.015,0,0.03,0,0.046C126.654-36.264,128.428-37.685,124.789-41.252"/>
	<path fill="#FFFFFF" d="M124.984-10.305c3.379-3.801,1.503-5.101,0.443-5.502c0.001,0.016,0.003,0.032,0.003,0.048
		c-0.01,0.294-0.079,0.609-0.112,0.923c-0.114,1.258-0.384,2.517-0.384,2.517s-0.316-1.249-0.483-2.5
		c-0.046-0.313-0.128-0.625-0.15-0.918c-0.001-0.016,0.001-0.031,0.001-0.046C123.26-15.34,121.447-13.964,124.984-10.305"/>
	<path fill="#FFFFFF" d="M123.084-5.738c-4.802-1.952-5.543,0.146-5.628,1.233c0.016-0.006,0.031-0.012,0.047-0.018
		c0.297-0.079,0.632-0.11,0.956-0.172c1.289-0.27,2.627-0.4,2.627-0.4s-1.153,0.661-2.353,1.185
		c-0.299,0.135-0.586,0.303-0.873,0.41c-0.016,0.004-0.031,0.008-0.047,0.012C118.569-2.667,120.482-1.422,123.084-5.738"/>
	<path fill="#FFFFFF" d="M95.924,9.064c4.624-0.28,4.337-2.227,3.951-3.121c-0.01,0.011-0.019,0.022-0.03,0.032
		c-0.202,0.176-0.455,0.327-0.686,0.501c-0.911,0.705-1.919,1.317-1.919,1.317s0.64-0.963,1.374-1.837
		c0.181-0.221,0.339-0.464,0.521-0.658c0.01-0.01,0.022-0.018,0.032-0.028C98.227,4.907,96.19,4.648,95.924,9.064"/>
</g>
<g>
	<path fill="#5B9943" d="M168.336,37.126L168.336,37.126c0-3.108,2.539-5.647,5.647-5.647s5.647,2.539,5.647,5.647v9.017H183v-9.017
		c0-4.99-4.027-9.017-9.017-9.017s-9.017,4.027-9.017,9.017v9.017h3.371V37.126z M153.323,31.523c2.495,0,4.64,1.663,5.384,3.939
		h-10.768C148.639,33.187,150.785,31.523,153.323,31.523 M153.323,46.143c3.546,0,6.654-2.057,8.098-5.034h-4.071
		c-1.05,1.006-2.451,1.663-4.027,1.663c-2.539,0-4.684-1.663-5.384-3.939h14.226c0.088-0.526,0.175-1.095,0.175-1.707
		c0-4.946-4.027-9.017-9.017-9.017c-4.99,0-9.017,4.071-9.017,9.017C144.306,42.116,148.333,46.143,153.323,46.143 M132.664,31.479
		c3.108,0,5.647,2.539,5.647,5.647c0,3.107-2.539,5.647-5.647,5.647s-5.647-2.539-5.647-5.647
		C127.017,34.018,129.556,31.479,132.664,31.479 M132.664,46.143c4.99,0,9.017-4.028,9.017-9.017V19.092h-3.371v10.987
		c-1.532-1.226-3.502-1.97-5.647-1.97c-4.99,0-9.017,4.027-9.017,9.017C123.646,42.116,127.673,46.143,132.664,46.143
		 M114.104,37.126L114.104,37.126v9.017h3.414v-9.017c0-3.108,2.495-5.647,5.603-5.647v-3.371
		C118.175,28.109,114.104,32.136,114.104,37.126 M102.462,42.773c-3.108,0-5.647-2.539-5.647-5.647c0-3.108,2.539-5.647,5.647-5.647
		c3.107,0,5.647,2.539,5.647,5.647C108.108,40.233,105.569,42.773,102.462,42.773 M102.462,28.109c-4.99,0-9.017,4.027-9.017,9.017
		c0,4.99,4.027,9.017,9.017,9.017c2.145,0,4.071-0.745,5.647-1.97v1.97h3.37v-9.017C111.478,32.136,107.451,28.109,102.462,28.109
		 M77.293,46.143c7.441,0,13.526-6.041,13.526-13.526v-0.044H77.775v3.371h9.105c-1.401,3.983-5.165,6.829-9.587,6.829
		c-5.603,0-10.155-4.553-10.155-10.155c0-5.559,4.552-10.111,10.155-10.111c3.94,0,7.354,2.276,9.061,5.559h3.677
		c-1.882-5.209-6.872-8.973-12.738-8.973c-7.485,0-13.525,6.084-13.525,13.525C63.767,40.102,69.808,46.143,77.293,46.143
		 M56.895,28.109l-4.771,6.215l-4.771-6.215h-4.246l6.872,9.017l-6.872,9.017h4.246l4.771-6.26l4.771,6.26h4.246l-6.872-9.017
		l6.872-9.017H56.895z M37.112,37.126L37.112,37.126c0,3.107-2.539,5.647-5.647,5.647c-3.108,0-5.647-2.539-5.647-5.647v-9.017
		h-3.371v9.017c0,4.99,4.027,9.017,9.017,9.017c4.99,0,9.017-4.028,9.017-9.017v-9.017h-3.371V37.126z M1,19.048v27.095h0.044
		h18.778v-3.414H4.414V19.048H1z"/>
	<path fill="#5B9943" d="M74.232-58.071c-7.529,16.704,0.464,19.323,4.609,19.637c-0.021-0.056-0.046-0.108-0.066-0.166
		c-0.296-1.036-0.406-2.205-0.644-3.334c-1.008-4.499-1.478-9.167-1.478-9.167s2.501,4.03,4.482,8.224
		c0.51,1.044,1.147,2.048,1.551,3.05c0.018,0.055,0.03,0.108,0.047,0.162C85.876-42.279,90.658-48.926,74.232-58.071"/>
	<path fill="#5B9943" d="M115.211-28.893c-17.143-8.988-20.725-1.427-21.465,2.594c0.062-0.015,0.121-0.034,0.184-0.049
		c1.137-0.188,2.399-0.183,3.631-0.304c4.913-0.547,9.954-0.553,9.954-0.553s-4.556,2.053-9.237,3.581
		c-1.167,0.396-2.303,0.921-3.415,1.219c-0.06,0.013-0.119,0.018-0.179,0.03C97.176-19.047,103.825-13.724,115.211-28.893"/>
	<path fill="#5B9943" d="M78.359-10.395C72.717-30.33,63.673-27.266,59.755-24.749c0.06,0.036,0.121,0.065,0.181,0.103
		c1.029,0.721,1.991,1.686,3.035,2.531c4.22,3.321,8.086,7.155,8.086,7.155s-5.201-1.896-10.06-4.289
		c-1.225-0.584-2.532-1.047-3.632-1.665c-0.056-0.036-0.107-0.077-0.162-0.114C56.34-16.583,56.996-7.444,78.359-10.395"/>
	<path fill="#5B9943" d="M79.834-9.515c-3.087,17.352,5.056,18.07,9.029,17.46c-0.033-0.048-0.069-0.091-0.102-0.141
		c-0.526-0.909-0.909-1.985-1.401-2.995c-2.023-4.01-3.582-8.297-3.582-8.297s3.316,3.244,6.181,6.755
		c0.729,0.87,1.568,1.675,2.187,2.529c0.03,0.047,0.054,0.095,0.083,0.143C94.559,2.793,97.467-4.502,79.834-9.515"/>
	<path fill="#5B9943" d="M114.36-6.36C98.907-8.763,98.318-2.142,98.885,1.082c0.042-0.027,0.081-0.057,0.125-0.084
		c0.805-0.432,1.76-0.751,2.655-1.157c3.556-1.668,7.359-2.96,7.359-2.96s-2.864,2.714-5.971,5.063
		c-0.77,0.597-1.481,1.284-2.236,1.792c-0.042,0.025-0.085,0.044-0.127,0.068C103.502,5.679,110.008,7.998,114.36-6.36"/>
	<path fill="#5B9943" d="M122.789-34.787c-9.615,10.579-4.387,14.289-1.421,15.446c-0.002-0.046-0.008-0.09-0.008-0.136
		c0.036-0.827,0.241-1.71,0.343-2.592c0.361-3.528,1.158-7.059,1.158-7.059s0.85,3.517,1.278,7.039
		c0.119,0.88,0.341,1.76,0.392,2.585c0,0.044-0.004,0.086-0.005,0.13C127.473-20.592,132.61-24.402,122.789-34.787"/>
	<path fill="#5B9943" d="M85.75-10.991c9.614-10.579,4.387-14.289,1.421-15.446c0.002,0.046,0.008,0.089,0.008,0.136
		c-0.036,0.827-0.241,1.71-0.344,2.592c-0.361,3.528-1.157,7.059-1.157,7.059s-0.85-3.518-1.278-7.039
		c-0.119-0.88-0.341-1.76-0.392-2.585c0-0.044,0.004-0.086,0.005-0.13C81.066-25.187,75.929-21.376,85.75-10.991"/>
	<path fill="#5B9943" d="M95.96-36.989c15.049-1.523,13.832-7.84,12.445-10.708c-0.033,0.036-0.061,0.072-0.094,0.108
		c-0.635,0.6-1.44,1.128-2.167,1.726c-2.87,2.421-6.071,4.553-6.071,4.553s1.947-3.228,4.217-6.175
		c0.558-0.744,1.038-1.557,1.607-2.216c0.032-0.034,0.067-0.062,0.1-0.094C102.875-50.858,96.189-51.436,95.96-36.989"/>
	<path fill="#5B9943" d="M89.128-42.009c-8.408,8.513-4.18,11.783-1.746,12.847c0.001-0.039-0.003-0.075-0.002-0.114
		c0.06-0.689,0.263-1.419,0.381-2.152c0.429-2.934,1.222-5.855,1.222-5.855s0.583,2.965,0.812,5.918
		c0.068,0.739,0.221,1.48,0.234,2.171c-0.001,0.037-0.007,0.072-0.009,0.108C92.523-30.004,96.95-33.015,89.128-42.009"/>
	<path fill="#5B9943" d="M68.774-29.156c10.89,5.359,13.003,0.569,13.397-1.961c-0.039,0.01-0.075,0.023-0.114,0.033
		c-0.709,0.136-1.5,0.152-2.269,0.247c-3.067,0.42-6.224,0.502-6.224,0.502s2.818-1.357,5.723-2.387
		c0.724-0.267,1.427-0.613,2.117-0.817c0.037-0.009,0.074-0.014,0.112-0.022C79.899-35.604,75.644-38.834,68.774-29.156"/>
	<path fill="#5B9943" d="M64.403-5.945c4.656,10.829,9.514,8.491,11.531,6.809c-0.037-0.016-0.074-0.029-0.11-0.045
		c-0.632-0.336-1.245-0.814-1.896-1.218c-2.62-1.582-5.08-3.475-5.08-3.475s3.067,0.713,5.978,1.729
		c0.732,0.245,1.502,0.417,2.166,0.69c0.034,0.016,0.065,0.036,0.099,0.053C77.248-3.96,76.199-9.056,64.403-5.945"/>
	<path fill="#5B9943" d="M95.299-18.256c-7.148,8.637-2.904,11.368-0.532,12.174c-0.003-0.036-0.01-0.07-0.011-0.107
		c-0.003-0.65,0.124-1.35,0.172-2.046c0.15-2.781,0.642-5.582,0.642-5.582s0.8,2.732,1.269,5.482
		c0.127,0.687,0.334,1.369,0.406,2.016c0.001,0.035-0.001,0.068,0.001,0.102C99.512-7.274,103.401-10.443,95.299-18.256"/>
	<path fill="#5B9943" d="M113.125-21.762c-6.479,9.975-1.638,12.379,0.977,12.958c-0.008-0.038-0.019-0.074-0.026-0.112
		c-0.085-0.688-0.039-1.445-0.077-2.188c-0.193-2.964-0.026-5.987-0.026-5.987s1.193,2.802,2.038,5.66
		c0.221,0.713,0.528,1.412,0.685,2.089c0.006,0.036,0.008,0.072,0.013,0.108C118.977-10.615,122.696-14.422,113.125-21.762"/>
	<path fill="#5B9943" d="M107.696-36.853c8.855,6.894,11.748,2.913,12.618,0.677c-0.037,0.003-0.073,0.008-0.11,0.01
		c-0.674-0.006-1.399-0.138-2.12-0.192c-2.883-0.182-5.78-0.687-5.78-0.687s2.845-0.72,5.702-1.124
		c0.715-0.11,1.425-0.297,2.097-0.356c0.036-0.001,0.07,0.001,0.106,0.001C119.145-40.689,115.914-44.418,107.696-36.853"/>
	<path fill="#5B9943" d="M122.861-45.217c-5.184-9.049-9.2-6.548-10.794-4.886c0.034,0.01,0.067,0.018,0.101,0.029
		c0.588,0.235,1.173,0.596,1.784,0.889c2.456,1.14,4.804,2.569,4.804,2.569s-2.759-0.339-5.411-0.956
		c-0.666-0.146-1.358-0.225-1.968-0.402c-0.032-0.011-0.061-0.025-0.093-0.037C111.41-45.755,112.849-41.391,122.861-45.217"/>
	<path fill="#5B9943" d="M106.944-58.328c-10.93-5.436-13.078-0.626-13.485,1.918c0.039-0.01,0.075-0.023,0.115-0.033
		c0.713-0.134,1.509-0.147,2.283-0.24c3.088-0.41,6.264-0.479,6.264-0.479s-2.841,1.353-5.768,2.377
		c-0.729,0.266-1.438,0.611-2.133,0.814c-0.037,0.008-0.075,0.013-0.112,0.021C95.724-51.887,99.99-48.621,106.944-58.328"/>
	<path fill="#5B9943" d="M80.344-59.642c4.923,9.083,8.964,6.692,10.583,5.079c-0.033-0.011-0.066-0.019-0.099-0.031
		c-0.577-0.245-1.149-0.616-1.748-0.92c-2.407-1.184-4.7-2.651-4.7-2.651s2.726,0.396,5.342,1.066
		c0.656,0.16,1.341,0.252,1.941,0.441c0.032,0.012,0.06,0.026,0.091,0.039C91.682-58.858,90.359-63.216,80.344-59.642"/>
	<path fill="#5B9943" d="M92.598-42.895c4.341-7.426,0.754-9.011-1.159-9.348c0.007,0.027,0.016,0.053,0.023,0.08
		c0.086,0.495,0.078,1.044,0.132,1.581c0.243,2.139,0.228,4.333,0.228,4.333s-0.961-1.99-1.672-4.032
		c-0.185-0.509-0.431-1.005-0.568-1.49c-0.006-0.026-0.009-0.052-0.014-0.078C87.974-50.776,85.416-47.903,92.598-42.895"/>
	<path fill="#5B9943" d="M67.964-32.106c5.896-7.077,2.417-9.332,0.471-10.001c0.003,0.03,0.008,0.058,0.01,0.088
		c0.001,0.534-0.107,1.109-0.147,1.681c-0.131,2.285-0.543,4.584-0.543,4.584s-0.65-2.247-1.027-4.506
		c-0.102-0.565-0.271-1.126-0.328-1.658c-0.001-0.028,0.001-0.056,0-0.084C64.533-41.139,61.329-38.546,67.964-32.106"/>
	<path fill="#5B9943" d="M55.667-26.626c9.601-2.233,8.24-6.22,7.082-7.962c-0.018,0.026-0.033,0.052-0.051,0.078
		c-0.357,0.441-0.83,0.85-1.246,1.297c-1.637,1.805-3.516,3.449-3.516,3.449s0.968-2.251,2.169-4.346
		c0.294-0.528,0.53-1.094,0.838-1.567c0.018-0.024,0.038-0.046,0.056-0.069C58.883-36.175,54.504-35.995,55.667-26.626"/>
	<path fill="#5B9943" d="M106.734-9.142c2.81-6.896-0.481-7.852-2.171-7.923c0.01,0.022,0.02,0.044,0.029,0.067
		c0.136,0.417,0.198,0.891,0.312,1.347c0.478,1.816,0.739,3.707,0.739,3.707s-1.078-1.604-1.946-3.282
		c-0.223-0.417-0.497-0.817-0.677-1.219c-0.008-0.022-0.014-0.044-0.022-0.065C101.761-15.403,99.916-12.634,106.734-9.142"/>
	<path fill="#5B9943" d="M68.495-51.766c-7.354,2.32-6.03,5.353-5.01,6.644c0.013-0.022,0.022-0.043,0.035-0.064
		c0.25-0.366,0.593-0.714,0.888-1.088c1.161-1.508,2.521-2.906,2.521-2.906s-0.608,1.816-1.41,3.525
		c-0.195,0.431-0.342,0.887-0.552,1.275c-0.012,0.02-0.027,0.038-0.039,0.058C66.609-44.113,70.018-44.516,68.495-51.766"/>
	<path fill="#5B9943" d="M57.907-39.309c5.506-0.174,5.238-2.498,4.813-3.575c-0.013,0.012-0.024,0.025-0.037,0.037
		c-0.247,0.202-0.554,0.374-0.835,0.572c-1.109,0.807-2.33,1.5-2.33,1.5s0.796-1.123,1.701-2.136c0.223-0.256,0.42-0.54,0.644-0.764
		c0.013-0.011,0.026-0.021,0.039-0.032C60.799-44.171,58.388-44.549,57.907-39.309"/>
	<path fill="#5B9943" d="M109.227-50.198c4.957-4.222,2.833-6.176,1.57-6.859c-0.002,0.02-0.002,0.041-0.004,0.062
		c-0.066,0.369-0.211,0.755-0.311,1.145c-0.375,1.565-0.946,3.107-0.946,3.107s-0.169-1.627-0.149-3.232
		c0-0.402-0.047-0.809-0.02-1.183c0.003-0.02,0.007-0.039,0.01-0.058C107.98-56.831,105.442-55.403,109.227-50.198"/>
	<path fill="#5B9943" d="M123.789-42.252c-3.27,3.886-1.36,5.139-0.289,5.511c-0.001-0.016-0.004-0.032-0.004-0.048
		c0.001-0.294,0.062-0.611,0.086-0.926c0.079-1.259,0.313-2.526,0.313-2.526s0.351,1.24,0.553,2.487
		c0.055,0.311,0.146,0.621,0.176,0.914c0.001,0.015,0,0.03,0,0.046C125.654-37.264,127.428-38.685,123.789-42.252"/>
	<path fill="#5B9943" d="M123.984-11.305c3.379-3.801,1.503-5.101,0.443-5.502c0.001,0.016,0.003,0.032,0.003,0.048
		c-0.01,0.294-0.079,0.609-0.112,0.923c-0.114,1.258-0.384,2.517-0.384,2.517s-0.316-1.249-0.483-2.5
		c-0.046-0.313-0.128-0.625-0.15-0.918c-0.001-0.016,0.001-0.031,0.001-0.046C122.26-16.34,120.447-14.964,123.984-11.305"/>
	<path fill="#5B9943" d="M122.084-6.738c-4.802-1.952-5.543,0.146-5.628,1.233c0.016-0.006,0.031-0.012,0.047-0.018
		c0.297-0.079,0.632-0.11,0.956-0.172c1.289-0.27,2.627-0.4,2.627-0.4s-1.153,0.661-2.353,1.185
		c-0.299,0.135-0.586,0.303-0.873,0.41c-0.016,0.004-0.031,0.008-0.047,0.012C117.569-3.667,119.482-2.422,122.084-6.738"/>
	<path fill="#5B9943" d="M94.924,8.064c4.624-0.28,4.337-2.227,3.951-3.121c-0.01,0.011-0.019,0.022-0.03,0.032
		c-0.202,0.176-0.455,0.327-0.686,0.501c-0.911,0.705-1.919,1.317-1.919,1.317s0.64-0.963,1.374-1.837
		c0.181-0.221,0.339-0.464,0.521-0.658c0.01-0.01,0.022-0.018,0.032-0.028C97.227,3.907,95.19,3.648,94.924,8.064"/>
</g>
</svg>
