<?xml version="1.0" encoding="utf-8"?>
<!-- Generator: Adobe Illustrator 17.0.0, SVG Export Plug-In . SVG Version: 6.00 Build 0)  -->
<!DOCTYPE svg PUBLIC "-//W3C//DTD SVG 1.1//EN" "http://www.w3.org/Graphics/SVG/1.1/DTD/svg11.dtd">
<svg version="1.1" id="Layer_1" xmlns="http://www.w3.org/2000/svg" xmlns:xlink="http://www.w3.org/1999/xlink" x="0px" y="0px"
	 width="134px" height="80px" viewBox="0 0 134 80" enable-background="new 0 0 134 80" xml:space="preserve">
<g>
	<path fill="#FFFFFF" d="M123.204,73.267L123.204,73.267c0-2.321,1.869-4.216,4.157-4.216s4.157,1.895,4.157,4.216V80H134v-6.733
		c0-3.726-2.965-6.733-6.639-6.733c-3.674,0-6.639,3.007-6.639,6.733V80h2.482V73.267z M112.15,69.084
		c1.837,0,3.416,1.242,3.964,2.941h-7.928C108.701,70.326,110.281,69.084,112.15,69.084 M112.15,80c2.61,0,4.899-1.536,5.962-3.759
		h-2.997c-0.773,0.751-1.805,1.242-2.965,1.242c-1.869,0-3.449-1.242-3.964-2.941h10.474c0.064-0.393,0.129-0.817,0.129-1.275
		c0-3.693-2.965-6.733-6.639-6.733s-6.639,3.039-6.639,6.733C105.511,76.993,108.476,80,112.15,80 M96.939,69.051
		c2.288,0,4.157,1.895,4.157,4.216c0,2.32-1.869,4.216-4.157,4.216s-4.157-1.896-4.157-4.216
		C92.782,70.947,94.651,69.051,96.939,69.051 M96.939,80c3.674,0,6.639-3.007,6.639-6.733V59.802h-2.482v8.203
		c-1.128-0.915-2.578-1.471-4.157-1.471c-3.674,0-6.639,3.007-6.639,6.733C90.3,76.993,93.265,80,96.939,80 M83.275,73.267
		L83.275,73.267V80h2.514v-6.733c0-2.321,1.837-4.216,4.125-4.216v-2.517C86.272,66.534,83.275,69.541,83.275,73.267 M74.703,77.483
		c-2.288,0-4.158-1.896-4.158-4.216c0-2.321,1.869-4.216,4.158-4.216c2.288,0,4.157,1.895,4.157,4.216
		C78.86,75.587,76.99,77.483,74.703,77.483 M74.703,66.534c-3.674,0-6.639,3.007-6.639,6.733c0,3.726,2.965,6.733,6.639,6.733
		c1.579,0,2.997-0.556,4.157-1.471V80h2.481v-6.733C81.341,69.541,78.376,66.534,74.703,66.534 M56.171,80
		c5.479,0,9.959-4.511,9.959-10.099v-0.033h-9.604v2.517h6.703c-1.031,2.974-3.803,5.099-7.058,5.099
		c-4.125,0-7.477-3.399-7.477-7.583c0-4.151,3.351-7.55,7.477-7.55c2.901,0,5.414,1.699,6.671,4.151h2.707
		c-1.386-3.889-5.059-6.7-9.378-6.7c-5.511,0-9.958,4.543-9.958,10.099C46.213,75.489,50.661,80,56.171,80 M41.154,66.534
		l-3.513,4.641l-3.513-4.641h-3.126l5.06,6.733L31.002,80h3.126l3.513-4.674L41.154,80h3.126l-5.06-6.733l5.06-6.733H41.154z
		 M26.588,73.267L26.588,73.267c0,2.32-1.87,4.216-4.157,4.216c-2.288,0-4.157-1.896-4.157-4.216v-6.733h-2.482v6.733
		c0,3.726,2.965,6.733,6.639,6.733c3.674,0,6.639-3.007,6.639-6.733v-6.733h-2.482V73.267z M0,59.769V80h0.032h13.826v-2.549H2.514
		V59.769H0z"/>
	<path fill="#FFFFFF" d="M53.918,2.187c-5.543,12.472,0.342,14.428,3.393,14.663c-0.015-0.042-0.034-0.081-0.049-0.124
		c-0.218-0.773-0.299-1.646-0.474-2.49c-0.742-3.359-1.088-6.845-1.088-6.845s1.841,3.009,3.3,6.14
		c0.375,0.779,0.844,1.529,1.142,2.277c0.014,0.041,0.022,0.081,0.035,0.121C62.491,13.978,66.012,9.015,53.918,2.187"/>
	<path fill="#FFFFFF" d="M84.089,23.973c-12.622-6.711-15.259-1.066-15.804,1.937c0.046-0.011,0.089-0.026,0.135-0.036
		c0.837-0.141,1.766-0.136,2.674-0.227c3.617-0.409,7.329-0.413,7.329-0.413s-3.355,1.533-6.801,2.674
		c-0.859,0.296-1.696,0.688-2.514,0.91c-0.044,0.009-0.087,0.014-0.132,0.022C70.811,31.325,75.706,35.3,84.089,23.973"/>
	<path fill="#FFFFFF" d="M56.957,37.785C52.802,22.9,46.144,25.188,43.259,27.067c0.044,0.027,0.089,0.049,0.133,0.077
		c0.757,0.538,1.466,1.259,2.235,1.89c3.107,2.48,5.953,5.342,5.953,5.342s-3.829-1.416-7.407-3.203
		c-0.902-0.436-1.864-0.782-2.674-1.243c-0.042-0.027-0.078-0.057-0.119-0.085C40.745,33.165,41.228,39.988,56.957,37.785"/>
	<path fill="#FFFFFF" d="M58.043,38.442c-2.273,12.956,3.723,13.492,6.647,13.037c-0.024-0.036-0.051-0.068-0.075-0.105
		c-0.387-0.679-0.669-1.482-1.032-2.236c-1.489-2.994-2.637-6.195-2.637-6.195s2.441,2.422,4.55,5.044
		c0.536,0.65,1.154,1.251,1.61,1.888c0.022,0.035,0.04,0.071,0.061,0.107C68.884,47.632,71.025,42.185,58.043,38.442"/>
	<path fill="#FFFFFF" d="M83.463,40.798c-11.377-1.795-11.811,3.149-11.394,5.557c0.031-0.02,0.06-0.043,0.092-0.063
		c0.593-0.323,1.296-0.561,1.955-0.864c2.618-1.245,5.418-2.21,5.418-2.21s-2.109,2.026-4.396,3.78
		c-0.567,0.446-1.09,0.958-1.646,1.338c-0.031,0.018-0.063,0.033-0.093,0.051C75.468,49.787,80.259,51.519,83.463,40.798"/>
	<path fill="#FFFFFF" d="M89.669,19.572c-7.079,7.899-3.23,10.669-1.046,11.533c-0.001-0.035-0.006-0.067-0.006-0.102
		c0.026-0.617,0.177-1.277,0.253-1.935c0.266-2.634,0.853-5.271,0.853-5.271s0.626,2.626,0.941,5.255
		c0.087,0.657,0.251,1.314,0.289,1.93c0,0.033-0.003,0.064-0.004,0.097C93.117,30.172,96.9,27.326,89.669,19.572"/>
	<path fill="#FFFFFF" d="M62.398,37.34c7.079-7.899,3.23-10.669,1.046-11.533c0.001,0.034,0.006,0.067,0.006,0.101
		c-0.026,0.617-0.177,1.277-0.253,1.935c-0.266,2.634-0.852,5.271-0.852,5.271s-0.626-2.627-0.941-5.255
		c-0.087-0.657-0.251-1.314-0.289-1.93c0-0.033,0.003-0.064,0.004-0.097C58.95,26.74,55.167,29.586,62.398,37.34"/>
	<path fill="#FFFFFF" d="M69.916,17.928c11.08-1.137,10.184-5.854,9.163-7.995c-0.024,0.027-0.045,0.054-0.07,0.081
		c-0.468,0.448-1.06,0.842-1.595,1.288c-2.113,1.808-4.47,3.399-4.47,3.399s1.433-2.41,3.104-4.611
		c0.411-0.556,0.764-1.163,1.183-1.654c0.024-0.025,0.049-0.046,0.074-0.071C75.007,7.572,70.084,7.141,69.916,17.928"/>
	<path fill="#FFFFFF" d="M64.886,14.18c-6.191,6.356-3.077,8.798-1.285,9.592c0-0.029-0.002-0.056-0.001-0.085
		c0.044-0.514,0.194-1.06,0.28-1.607c0.316-2.19,0.9-4.372,0.9-4.372s0.429,2.214,0.598,4.419c0.05,0.552,0.162,1.105,0.172,1.621
		c-0.001,0.027-0.005,0.054-0.007,0.081C67.385,23.144,70.644,20.895,64.886,14.18"/>
	<path fill="#FFFFFF" d="M49.9,23.777c8.018,4.002,9.574,0.425,9.864-1.464c-0.028,0.008-0.055,0.018-0.084,0.025
		c-0.522,0.102-1.104,0.114-1.671,0.185c-2.258,0.313-4.583,0.375-4.583,0.375s2.075-1.013,4.214-1.782
		c0.533-0.199,1.051-0.458,1.559-0.61c0.028-0.007,0.055-0.01,0.082-0.016C58.091,18.962,54.958,16.551,49.9,23.777"/>
	<path fill="#FFFFFF" d="M46.682,41.108c3.428,8.086,7.005,6.34,8.49,5.084c-0.027-0.012-0.054-0.021-0.081-0.034
		c-0.466-0.251-0.917-0.608-1.396-0.909c-1.929-1.181-3.74-2.594-3.74-2.594s2.258,0.532,4.401,1.291
		c0.539,0.183,1.106,0.312,1.595,0.515c0.025,0.012,0.048,0.027,0.073,0.039C56.138,42.589,55.366,38.785,46.682,41.108"/>
	<path fill="#FFFFFF" d="M69.429,31.916c-5.263,6.449-2.138,8.488-0.392,9.09c-0.002-0.027-0.007-0.053-0.008-0.08
		c-0.002-0.485,0.092-1.008,0.127-1.528c0.111-2.077,0.473-4.168,0.473-4.168s0.589,2.04,0.934,4.093
		c0.093,0.513,0.246,1.022,0.299,1.505c0.001,0.026,0,0.051,0,0.076C72.531,40.115,75.394,37.749,69.429,31.916"/>
	<path fill="#FFFFFF" d="M82.554,29.298c-4.77,7.448-1.206,9.243,0.719,9.676c-0.006-0.028-0.014-0.055-0.019-0.083
		c-0.063-0.514-0.028-1.079-0.056-1.634c-0.142-2.213-0.019-4.47-0.019-4.47s0.879,2.092,1.5,4.226
		c0.163,0.533,0.388,1.054,0.504,1.56c0.005,0.027,0.006,0.054,0.01,0.08C86.862,37.62,89.601,34.778,82.554,29.298"/>
	<path fill="#FFFFFF" d="M78.557,18.03c6.52,5.147,8.65,2.175,9.29,0.505c-0.028,0.002-0.054,0.006-0.081,0.008
		c-0.496-0.005-1.03-0.103-1.561-0.143c-2.123-0.136-4.255-0.513-4.255-0.513s2.095-0.537,4.198-0.84
		c0.526-0.082,1.049-0.222,1.544-0.266c0.027-0.001,0.052,0.001,0.078,0C86.986,15.166,84.607,12.381,78.557,18.03"/>
	<path fill="#FFFFFF" d="M89.722,11.785c-3.817-6.756-6.773-4.889-7.947-3.648c0.025,0.008,0.049,0.013,0.074,0.022
		c0.433,0.175,0.864,0.445,1.313,0.664c1.808,0.851,3.537,1.918,3.537,1.918s-2.031-0.253-3.984-0.714
		c-0.49-0.109-1-0.168-1.449-0.3c-0.023-0.009-0.045-0.019-0.068-0.027C81.291,11.383,82.351,14.641,89.722,11.785"/>
	<path fill="#FFFFFF" d="M78.003,1.995c-8.048-4.059-9.629-0.467-9.929,1.432c0.028-0.008,0.056-0.018,0.085-0.025
		c0.525-0.1,1.111-0.11,1.681-0.179c2.273-0.306,4.612-0.358,4.612-0.358s-2.092,1.01-4.247,1.775
		c-0.537,0.198-1.058,0.456-1.571,0.608c-0.028,0.006-0.055,0.009-0.083,0.016C69.742,6.804,72.882,9.243,78.003,1.995"/>
	<path fill="#FFFFFF" d="M58.418,1.014c3.625,6.782,6.6,4.996,7.792,3.792c-0.024-0.008-0.049-0.014-0.073-0.023
		c-0.425-0.183-0.846-0.46-1.287-0.687c-1.772-0.884-3.461-1.98-3.461-1.98s2.007,0.295,3.933,0.796
		c0.483,0.119,0.987,0.188,1.429,0.33c0.023,0.009,0.044,0.019,0.067,0.029C66.766,1.599,65.792-1.654,58.418,1.014"/>
	<path fill="#FFFFFF" d="M67.441,13.519c3.196-5.545,0.555-6.728-0.853-6.979c0.005,0.02,0.012,0.039,0.017,0.06
		c0.063,0.37,0.057,0.78,0.097,1.18c0.179,1.597,0.168,3.235,0.168,3.235s-0.708-1.486-1.231-3.011
		c-0.136-0.38-0.317-0.75-0.418-1.112c-0.004-0.019-0.007-0.039-0.01-0.058C64.036,7.634,62.152,9.779,67.441,13.519"/>
	<path fill="#FFFFFF" d="M49.303,21.574c4.341-5.284,1.779-6.968,0.346-7.467c0.002,0.022,0.006,0.044,0.007,0.066
		c0,0.399-0.078,0.828-0.108,1.255c-0.097,1.706-0.4,3.423-0.4,3.423s-0.479-1.678-0.756-3.365
		c-0.075-0.422-0.199-0.841-0.241-1.238c-0.001-0.021,0-0.042,0-0.062C46.777,14.829,44.418,16.766,49.303,21.574"/>
	<path fill="#FFFFFF" d="M40.25,25.666c7.069-1.667,6.067-4.645,5.214-5.945c-0.014,0.019-0.024,0.039-0.038,0.058
		c-0.263,0.329-0.611,0.634-0.917,0.968c-1.206,1.348-2.589,2.575-2.589,2.575s0.713-1.68,1.597-3.245
		c0.216-0.394,0.39-0.817,0.617-1.17c0.014-0.018,0.028-0.034,0.042-0.052C42.617,18.536,39.393,18.671,40.25,25.666"/>
	<path fill="#FFFFFF" d="M77.848,38.721c2.069-5.149-0.354-5.863-1.598-5.915c0.007,0.017,0.015,0.033,0.021,0.05
		c0.1,0.311,0.146,0.665,0.23,1.006c0.352,1.356,0.544,2.768,0.544,2.768s-0.794-1.198-1.433-2.451
		c-0.164-0.312-0.366-0.61-0.498-0.91c-0.006-0.016-0.01-0.033-0.016-0.049C74.187,34.045,72.828,36.113,77.848,38.721"/>
	<path fill="#FFFFFF" d="M49.694,6.895c-5.414,1.732-4.439,3.997-3.689,4.961c0.009-0.016,0.016-0.032,0.026-0.048
		c0.184-0.273,0.437-0.533,0.654-0.812c0.855-1.126,1.856-2.17,1.856-2.17s-0.448,1.356-1.038,2.632
		c-0.143,0.322-0.252,0.662-0.407,0.952c-0.009,0.015-0.02,0.028-0.028,0.043C48.306,12.609,50.815,12.308,49.694,6.895"/>
	<path fill="#FFFFFF" d="M41.898,16.196c4.054-0.13,3.857-1.865,3.544-2.669c-0.009,0.009-0.018,0.019-0.027,0.028
		c-0.182,0.151-0.408,0.279-0.614,0.427c-0.816,0.602-1.715,1.12-1.715,1.12s0.586-0.839,1.253-1.595
		c0.164-0.191,0.309-0.403,0.474-0.571c0.009-0.008,0.019-0.016,0.028-0.024C44.028,12.566,42.253,12.284,41.898,16.196"/>
	<path fill="#FFFFFF" d="M79.684,8.066c3.649-3.152,2.086-4.611,1.156-5.121c-0.001,0.015-0.001,0.03-0.003,0.046
		c-0.049,0.276-0.155,0.563-0.229,0.855c-0.276,1.169-0.697,2.32-0.697,2.32s-0.125-1.215-0.11-2.413c0-0.3-0.035-0.604-0.014-0.883
		c0.002-0.015,0.005-0.029,0.007-0.044C78.766,3.113,76.897,4.179,79.684,8.066"/>
	<path fill="#FFFFFF" d="M90.405,13.998c-2.408,2.902-1.001,3.837-0.212,4.115c-0.001-0.012-0.003-0.024-0.003-0.036
		c0-0.22,0.045-0.456,0.063-0.691c0.058-0.94,0.23-1.886,0.23-1.886s0.259,0.926,0.407,1.857c0.04,0.232,0.107,0.464,0.129,0.683
		c0,0.011,0,0.023,0,0.035C91.778,17.723,93.084,16.662,90.405,13.998"/>
	<path fill="#FFFFFF" d="M90.549,37.105c2.488-2.838,1.107-3.809,0.326-4.108c0,0.012,0.002,0.024,0.002,0.036
		c-0.007,0.22-0.058,0.455-0.082,0.689c-0.084,0.939-0.282,1.879-0.282,1.879s-0.233-0.932-0.356-1.867
		c-0.034-0.233-0.094-0.466-0.11-0.686c0-0.012,0.001-0.023,0.001-0.035C89.279,33.346,87.944,34.373,90.549,37.105"/>
	<path fill="#FFFFFF" d="M89.15,40.515c-3.535-1.457-4.081,0.109-4.143,0.921c0.012-0.004,0.023-0.009,0.035-0.013
		c0.219-0.059,0.466-0.082,0.704-0.129c0.949-0.202,1.934-0.298,1.934-0.298s-0.849,0.493-1.733,0.885
		c-0.22,0.101-0.431,0.226-0.642,0.306c-0.012,0.003-0.023,0.006-0.035,0.009C85.825,42.809,87.234,43.738,89.15,40.515"/>
	<path fill="#FFFFFF" d="M69.153,51.568c3.404-0.209,3.193-1.662,2.909-2.331c-0.007,0.008-0.014,0.016-0.022,0.024
		c-0.149,0.131-0.335,0.244-0.505,0.374c-0.67,0.527-1.413,0.983-1.413,0.983s0.471-0.719,1.012-1.371
		c0.133-0.165,0.249-0.346,0.384-0.491c0.007-0.008,0.016-0.014,0.023-0.021C70.848,48.464,69.349,48.27,69.153,51.568"/>
</g>
</svg>
