<?xml version="1.0" encoding="utf-8"?>
<!-- Generator: Adobe Illustrator 17.0.0, SVG Export Plug-In . SVG Version: 6.00 Build 0)  -->
<!DOCTYPE svg PUBLIC "-//W3C//DTD SVG 1.1//EN" "http://www.w3.org/Graphics/SVG/1.1/DTD/svg11.dtd">
<svg version="1.1" id="Layer_1" xmlns="http://www.w3.org/2000/svg" xmlns:xlink="http://www.w3.org/1999/xlink" x="0px" y="0px"
	 width="118px" height="70px" viewBox="0 0 118 70" enable-background="new 0 0 118 70" xml:space="preserve">
<g>
	<path fill="#5B9A42" d="M108.493,64.109L108.493,64.109c0-2.031,1.646-3.689,3.661-3.689s3.661,1.659,3.661,3.689V70H118v-5.891
		c0-3.26-2.611-5.891-5.846-5.891c-3.235,0-5.846,2.631-5.846,5.891V70h2.185V64.109z M98.759,60.448
		c1.617,0,3.008,1.087,3.491,2.574h-6.981C95.722,61.535,97.113,60.448,98.759,60.448 M98.759,70c2.299,0,4.314-1.344,5.25-3.289
		h-2.639c-0.681,0.658-1.589,1.087-2.611,1.087c-1.646,0-3.037-1.087-3.491-2.574h9.224c0.057-0.343,0.113-0.715,0.113-1.115
		c0-3.232-2.611-5.891-5.846-5.891s-5.846,2.66-5.846,5.891C92.913,67.369,95.524,70,98.759,70 M85.364,60.42
		c2.015,0,3.661,1.659,3.661,3.689c0,2.03-1.646,3.689-3.661,3.689c-2.015,0-3.661-1.659-3.661-3.689
		C81.703,62.078,83.349,60.42,85.364,60.42 M85.364,70c3.235,0,5.846-2.631,5.846-5.891V52.326h-2.185v7.178
		c-0.993-0.801-2.27-1.287-3.661-1.287c-3.235,0-5.846,2.631-5.846,5.891C79.518,67.369,82.129,70,85.364,70 M73.331,64.109
		L73.331,64.109V70h2.214v-5.891c0-2.031,1.617-3.689,3.633-3.689v-2.202C75.971,58.218,73.331,60.849,73.331,64.109 M65.783,67.798
		c-2.015,0-3.661-1.659-3.661-3.689c0-2.031,1.646-3.689,3.661-3.689c2.015,0,3.661,1.659,3.661,3.689
		C69.444,66.139,67.798,67.798,65.783,67.798 M65.783,58.218c-3.235,0-5.846,2.631-5.846,5.891c0,3.26,2.611,5.891,5.846,5.891
		c1.391,0,2.639-0.486,3.661-1.287V70h2.185v-5.891C71.629,60.849,69.018,58.218,65.783,58.218 M49.464,70
		c4.825,0,8.77-3.947,8.77-8.837v-0.029h-8.457v2.202h5.903c-0.908,2.602-3.349,4.461-6.215,4.461c-3.633,0-6.584-2.974-6.584-6.635
		c0-3.632,2.951-6.606,6.584-6.606c2.555,0,4.768,1.487,5.875,3.632h2.384c-1.22-3.403-4.455-5.863-8.259-5.863
		c-4.853,0-8.769,3.975-8.769,8.837C40.695,66.053,44.612,70,49.464,70 M36.24,58.218l-3.093,4.061l-3.094-4.061h-2.753l4.456,5.891
		L27.301,70h2.753l3.094-4.09L36.24,70h2.753l-4.456-5.891l4.456-5.891H36.24z M23.413,64.109L23.413,64.109
		c0,2.03-1.646,3.689-3.661,3.689c-2.015,0-3.661-1.659-3.661-3.689v-5.891h-2.185v5.891c0,3.26,2.611,5.891,5.846,5.891
		c3.235,0,5.846-2.631,5.846-5.891v-5.891h-2.185V64.109z M0,52.298V70h0.028h12.175v-2.231h-9.99V52.298H0z"/>
	<path fill="#5B9A42" d="M47.48,1.914c-4.881,10.913,0.301,12.625,2.988,12.83c-0.014-0.037-0.03-0.071-0.043-0.108
		c-0.192-0.677-0.264-1.441-0.417-2.178c-0.653-2.939-0.958-5.989-0.958-5.989s1.622,2.633,2.906,5.373
		c0.331,0.682,0.743,1.338,1.005,1.992c0.012,0.036,0.019,0.071,0.03,0.106C55.029,12.231,58.13,7.888,47.48,1.914"/>
	<path fill="#5B9A42" d="M74.049,20.977c-11.115-5.872-13.437-0.933-13.917,1.695c0.04-0.01,0.079-0.022,0.119-0.032
		c0.737-0.123,1.555-0.119,2.354-0.198c3.185-0.358,6.454-0.361,6.454-0.361s-2.954,1.342-5.989,2.34
		c-0.757,0.259-1.493,0.602-2.214,0.796c-0.039,0.008-0.077,0.012-0.116,0.019C62.356,27.409,66.667,30.887,74.049,20.977"/>
	<path fill="#5B9A42" d="M50.156,33.062c-3.658-13.024-9.522-11.022-12.062-9.378c0.039,0.024,0.079,0.043,0.117,0.067
		c0.667,0.471,1.291,1.102,1.968,1.654c2.736,2.17,5.242,4.674,5.242,4.674s-3.372-1.239-6.522-2.802
		c-0.794-0.382-1.642-0.684-2.355-1.088c-0.037-0.024-0.069-0.05-0.105-0.074C35.879,29.019,36.305,34.99,50.156,33.062"/>
	<path fill="#5B9A42" d="M51.112,33.637c-2.002,11.337,3.278,11.806,5.854,11.407c-0.021-0.031-0.045-0.06-0.066-0.092
		c-0.341-0.594-0.589-1.297-0.909-1.957c-1.312-2.62-2.322-5.421-2.322-5.421s2.15,2.119,4.007,4.413
		c0.472,0.568,1.016,1.094,1.418,1.652c0.019,0.031,0.035,0.062,0.054,0.093C60.659,41.678,62.545,36.912,51.112,33.637"/>
	<path fill="#5B9A42" d="M73.497,35.698c-10.019-1.57-10.401,2.756-10.033,4.862c0.028-0.018,0.053-0.037,0.081-0.055
		c0.522-0.283,1.141-0.491,1.722-0.756c2.305-1.09,4.771-1.934,4.771-1.934s-1.857,1.773-3.871,3.308
		c-0.499,0.39-0.96,0.839-1.45,1.171c-0.027,0.016-0.055,0.029-0.082,0.045C66.457,43.564,70.676,45.079,73.497,35.698"/>
	<path fill="#5B9A42" d="M78.962,17.126c-6.234,6.912-2.844,9.335-0.921,10.092c-0.001-0.03-0.005-0.059-0.005-0.089
		c0.023-0.54,0.156-1.117,0.222-1.693c0.234-2.305,0.751-4.612,0.751-4.612s0.551,2.298,0.828,4.598
		c0.077,0.575,0.221,1.15,0.254,1.689c0,0.029-0.003,0.056-0.003,0.085C81.999,26.4,85.33,23.91,78.962,17.126"/>
	<path fill="#5B9A42" d="M54.948,32.672c6.234-6.912,2.844-9.335,0.921-10.091c0.001,0.03,0.005,0.058,0.005,0.089
		c-0.023,0.54-0.156,1.117-0.223,1.693c-0.234,2.305-0.75,4.612-0.75,4.612s-0.551-2.298-0.828-4.598
		c-0.077-0.575-0.221-1.15-0.254-1.689c0-0.029,0.003-0.056,0.003-0.085C51.911,23.398,48.58,25.887,54.948,32.672"/>
	<path fill="#5B9A42" d="M61.568,15.687c9.757-0.995,8.968-5.122,8.069-6.996c-0.021,0.023-0.039,0.047-0.061,0.071
		c-0.412,0.392-0.934,0.737-1.405,1.127c-1.861,1.582-3.936,2.974-3.936,2.974s1.262-2.109,2.734-4.034
		c0.362-0.486,0.673-1.018,1.042-1.448c0.021-0.022,0.044-0.041,0.065-0.062C66.051,6.626,61.716,6.248,61.568,15.687"/>
	<path fill="#5B9A42" d="M57.138,12.408c-5.452,5.562-2.71,7.698-1.132,8.393c0-0.025-0.002-0.049-0.001-0.075
		c0.039-0.45,0.171-0.927,0.247-1.406c0.278-1.917,0.792-3.825,0.792-3.825s0.378,1.937,0.526,3.866
		c0.044,0.483,0.143,0.967,0.152,1.419c-0.001,0.024-0.005,0.047-0.006,0.071C59.339,20.251,62.209,18.284,57.138,12.408"/>
	<path fill="#5B9A42" d="M43.942,20.805c7.06,3.501,8.431,0.372,8.686-1.281c-0.025,0.007-0.049,0.015-0.074,0.022
		c-0.46,0.089-0.972,0.099-1.471,0.162c-1.989,0.274-4.036,0.328-4.036,0.328s1.827-0.887,3.711-1.559
		c0.47-0.174,0.925-0.401,1.373-0.534c0.024-0.006,0.048-0.009,0.072-0.014C51.155,16.592,48.396,14.482,43.942,20.805"/>
	<path fill="#5B9A42" d="M41.108,35.969c3.019,7.075,6.169,5.547,7.476,4.449c-0.024-0.01-0.048-0.019-0.071-0.029
		c-0.41-0.22-0.807-0.532-1.229-0.795c-1.698-1.033-3.293-2.27-3.293-2.27s1.988,0.466,3.876,1.129
		c0.474,0.16,0.974,0.273,1.405,0.451c0.022,0.011,0.042,0.024,0.064,0.034C49.435,37.266,48.755,33.937,41.108,35.969"/>
	<path fill="#5B9A42" d="M61.139,27.926c-4.634,5.643-1.883,7.427-0.345,7.954c-0.002-0.023-0.006-0.046-0.007-0.07
		c-0.002-0.425,0.081-0.882,0.111-1.337c0.097-1.817,0.416-3.647,0.416-3.647s0.519,1.785,0.823,3.581
		c0.082,0.449,0.217,0.895,0.263,1.317c0.001,0.023,0,0.044,0,0.067C63.87,35.101,66.392,33.03,61.139,27.926"/>
	<path fill="#5B9A42" d="M72.696,25.635c-4.201,6.517-1.062,8.087,0.633,8.466c-0.005-0.025-0.012-0.048-0.017-0.073
		c-0.055-0.45-0.025-0.944-0.05-1.429c-0.125-1.937-0.017-3.912-0.017-3.912s0.774,1.83,1.321,3.698
		c0.143,0.466,0.342,0.923,0.444,1.365c0.004,0.024,0.005,0.047,0.009,0.07C76.491,32.918,78.902,30.431,72.696,25.635"/>
	<path fill="#5B9A42" d="M69.177,15.776c5.741,4.504,7.617,1.903,8.181,0.442c-0.024,0.002-0.047,0.005-0.072,0.007
		c-0.437-0.004-0.907-0.09-1.375-0.126c-1.869-0.119-3.747-0.449-3.747-0.449s1.844-0.47,3.697-0.735
		c0.463-0.072,0.924-0.194,1.359-0.232c0.023-0.001,0.046,0.001,0.069,0C76.599,13.27,74.505,10.833,69.177,15.776"/>
	<path fill="#5B9A42" d="M79.009,10.312C75.647,4.4,73.044,6.034,72.01,7.119c0.022,0.007,0.044,0.012,0.065,0.019
		c0.381,0.153,0.761,0.389,1.157,0.581c1.592,0.745,3.115,1.678,3.115,1.678s-1.789-0.221-3.508-0.625
		c-0.432-0.096-0.88-0.147-1.276-0.263c-0.021-0.007-0.039-0.017-0.06-0.024C71.584,9.96,72.518,12.811,79.009,10.312"/>
	<path fill="#5B9A42" d="M68.689,1.746c-7.087-3.552-8.479-0.409-8.743,1.253c0.025-0.007,0.049-0.015,0.074-0.022
		c0.463-0.087,0.978-0.096,1.48-0.157c2.002-0.268,4.061-0.313,4.061-0.313s-1.842,0.884-3.74,1.553
		c-0.473,0.174-0.932,0.399-1.383,0.532C60.414,4.597,60.39,4.6,60.365,4.606C61.415,5.954,64.18,8.088,68.689,1.746"/>
	<path fill="#5B9A42" d="M51.443,0.887c3.192,5.934,5.812,4.372,6.862,3.318c-0.021-0.007-0.043-0.012-0.064-0.02
		c-0.374-0.16-0.745-0.403-1.133-0.601c-1.561-0.774-3.048-1.732-3.048-1.732s1.768,0.259,3.463,0.696
		c0.426,0.104,0.869,0.165,1.258,0.288c0.021,0.008,0.039,0.017,0.059,0.025C58.794,1.399,57.936-1.448,51.443,0.887"/>
	<path fill="#5B9A42" d="M59.388,11.829c2.815-4.852,0.489-5.887-0.751-6.107c0.005,0.018,0.011,0.034,0.015,0.052
		c0.056,0.324,0.051,0.682,0.086,1.033c0.157,1.397,0.148,2.831,0.148,2.831s-0.623-1.3-1.084-2.634
		c-0.12-0.332-0.279-0.656-0.368-0.973c-0.004-0.017-0.006-0.034-0.009-0.051C56.39,6.68,54.731,8.557,59.388,11.829"/>
	<path fill="#5B9A42" d="M43.416,18.877c3.823-4.624,1.567-6.097,0.305-6.534c0.002,0.019,0.005,0.038,0.006,0.058
		c0,0.349-0.069,0.725-0.095,1.098c-0.085,1.493-0.352,2.995-0.352,2.995s-0.421-1.468-0.666-2.944
		c-0.066-0.369-0.176-0.736-0.213-1.083c-0.001-0.018,0-0.036,0-0.055C41.192,12.976,39.114,14.67,43.416,18.877"/>
	<path fill="#5B9A42" d="M35.444,22.458c6.225-1.459,5.343-4.064,4.592-5.202c-0.012,0.017-0.021,0.034-0.033,0.051
		c-0.231,0.288-0.538,0.555-0.808,0.847c-1.062,1.179-2.28,2.253-2.28,2.253s0.627-1.47,1.407-2.839
		c0.19-0.345,0.344-0.715,0.544-1.024c0.012-0.016,0.025-0.03,0.037-0.045C37.529,16.219,34.69,16.337,35.444,22.458"/>
	<path fill="#5B9A42" d="M68.553,33.881c1.822-4.506-0.312-5.13-1.407-5.176c0.006,0.014,0.013,0.029,0.019,0.044
		c0.088,0.272,0.129,0.582,0.202,0.88c0.31,1.186,0.479,2.422,0.479,2.422s-0.699-1.048-1.262-2.145
		c-0.145-0.273-0.322-0.534-0.439-0.796c-0.005-0.014-0.009-0.029-0.014-0.043C65.329,29.79,64.132,31.599,68.553,33.881"/>
	<path fill="#5B9A42" d="M43.761,6.033c-4.768,1.516-3.909,3.497-3.249,4.341c0.008-0.014,0.014-0.028,0.023-0.042
		c0.162-0.239,0.384-0.467,0.576-0.711c0.753-0.985,1.634-1.898,1.634-1.898s-0.394,1.187-0.914,2.303
		c-0.126,0.281-0.222,0.579-0.358,0.833c-0.008,0.013-0.017,0.025-0.025,0.038C42.538,11.033,44.748,10.769,43.761,6.033"/>
	<path fill="#5B9A42" d="M36.896,14.171c3.57-0.114,3.396-1.632,3.121-2.335c-0.008,0.008-0.016,0.017-0.024,0.024
		c-0.16,0.132-0.359,0.244-0.541,0.374c-0.719,0.527-1.511,0.98-1.511,0.98s0.516-0.734,1.103-1.395
		c0.145-0.167,0.272-0.353,0.418-0.499c0.008-0.007,0.017-0.014,0.025-0.021C38.771,10.995,37.208,10.748,36.896,14.171"/>
	<path fill="#5B9A42" d="M70.169,7.058c3.214-2.758,1.837-4.035,1.018-4.481c-0.001,0.013-0.001,0.027-0.003,0.04
		c-0.043,0.241-0.137,0.493-0.201,0.748c-0.243,1.023-0.613,2.03-0.613,2.03s-0.11-1.063-0.097-2.111
		c0-0.263-0.03-0.529-0.013-0.773c0.002-0.013,0.005-0.025,0.007-0.038C69.361,2.723,67.715,3.656,70.169,7.058"/>
	<path fill="#5B9A42" d="M79.611,12.248c-2.12,2.539-0.882,3.357-0.187,3.601c-0.001-0.01-0.002-0.021-0.003-0.031
		c0-0.192,0.04-0.399,0.056-0.605c0.051-0.823,0.203-1.65,0.203-1.65s0.228,0.81,0.359,1.625c0.035,0.203,0.095,0.406,0.114,0.597
		c0,0.01,0,0.02,0,0.03C80.82,15.507,81.97,14.579,79.611,12.248"/>
	<path fill="#5B9A42" d="M79.737,32.467c2.191-2.483,0.974-3.333,0.287-3.595c0,0.011,0.002,0.021,0.002,0.031
		c-0.006,0.192-0.051,0.398-0.072,0.603c-0.074,0.822-0.249,1.644-0.249,1.644s-0.205-0.816-0.313-1.634
		c-0.03-0.204-0.083-0.408-0.097-0.6c0-0.01,0.001-0.02,0.001-0.03C78.619,29.178,77.444,30.077,79.737,32.467"/>
	<path fill="#5B9A42" d="M78.505,35.451c-3.113-1.275-3.594,0.096-3.649,0.806c0.01-0.004,0.02-0.008,0.03-0.012
		c0.192-0.052,0.41-0.072,0.62-0.113c0.836-0.176,1.703-0.261,1.703-0.261s-0.747,0.432-1.526,0.774
		c-0.194,0.088-0.38,0.198-0.566,0.268c-0.01,0.003-0.02,0.005-0.03,0.008C75.577,37.458,76.818,38.271,78.505,35.451"/>
	<path fill="#5B9A42" d="M60.896,45.122c2.998-0.183,2.812-1.455,2.562-2.039c-0.007,0.007-0.012,0.014-0.02,0.021
		c-0.131,0.115-0.295,0.214-0.445,0.327c-0.59,0.461-1.244,0.861-1.244,0.861s0.415-0.629,0.891-1.2
		c0.117-0.144,0.22-0.303,0.338-0.43c0.007-0.007,0.014-0.012,0.021-0.018C62.389,42.406,61.068,42.236,60.896,45.122"/>
</g>
</svg>



